<svg viewBox="0 0 1815 857" xmlns="http://www.w3.org/2000/svg" fill-rule="evenodd" clip-rule="evenodd" stroke-linecap="round" stroke-linejoin="round"><path d="m1197.95 261.367 1.5 1.8-2.9.8-2.4 1.1-5.9.8-5.3 1.3-2.4 2.8 1.9 2.7 1.4 3.2-2 2.7.8 2.5-.9 2.3-5.2-.2 3.1 4.2-3.1 1.7-1.4 3.8 1.1 3.9-1.8 1.8-2.1-.6-4 .9-.2 1.7h-4.1l-2.3 3.7.8 5.4-6.6 2.7-3.9-.6-.9 1.4-3.4-.8-5.3 1-9.6-3.3 3.9-5.8-1.1-4.1-4.3-1.1-1.2-4.1-2.7-5.1 1.6-3.5-2.5-1 .5-4.7.6-8 5.9 2.5 3.9-.9.4-2.9 4-.9 2.6-2-.2-5.1 4.2-1.3.3-2.2 2.9 1.7 1.6.2h3l4.3 1.4 1.8.7 3.4-2 2.1 1.2.9-2.9 3.2.1.6-.9-.2-2.6 1.7-2.2 3.3 1.4-.1 2 1.7.3.9 5.4 2.7 2.1 1.5-1.4 2.2-.6 2.5-2.9 3.8.5h5.4zm-261.8 310.4.6 2-.7 3.1.9 3-.9 2.4.4 2.2-11.7-.1-.8 20.5 3.6 5.2 3.6 4-10.4 2.6-13.5-.9-3.8-3-22.7.2-.8.5-3.3-2.9-3.6-.2-3.4 1.1-2.7 1.2-.5-4 .9-5.7 2-5.9.3-2.7 1.9-5.8 1.4-2.6 3.3-4.2 1.9-2.9.6-4.7-.3-3.7-1.6-2.3-1.5-3.9-1.3-3.8.3-1.4 1.7-2.5-1.6-6.2-1.2-4.3-2.8-4.1.6-1.2 2.3-.9 1.7.1 2-.7 16.7.1 1.3 4.7 1.6 3.9 1.3 2.1 2.1 3.3 3.8-.5 1.8-.9 3.1.9.9-1.6 1.5-3.7 3.5-.3.3-1.1h2.9l-.5 2.3 6.8-.1.1 4.1 1.1 2.4-.9 3.9.4 4 1.8 2.4-.4 7.6 1.4-.6 2.4.2 3.5-1 2.6.4zm-65.9-33-1.5-4.8 2.3-2.8 1.7-1.1 2.1 2.2-2 1.4-1 1.6-.2 2.8-1.4.7zm32.7-311 .4 1.2 1.4-.6 1.2 1.7 1.3.7.6 2.3-.5 2.2 1 2.7 2.3 1.5.1 1.7-1.7.9-.1 2.1-2.2 3.1-.9-.4-.2-1.4-3.1-2.2-.7-3 .1-4.4.5-1.9-.9-1-.5-2.1 1.9-3.1zm208.2 108.7 1.3 5.1h-2.8v4.2l1.1.9-2.4 1.3.2 2.6-1.3 2.6v2.6l-1 1.4-16.9-3.2-2.7-6.6-.3-1.4.9-.4.4 1.8 4.2-1 4.6.2 3.4.2 3.3-4.4 3.7-4.1 3-4 1.3 2.2zm-627.1 515-3-.2h-5l-6-13.6 3.1 2.8 4.3 4.6 7.8 3.7 7.3 1.5-.8 3-4.4.3-3.3-2.1zm-30.5-207 11.3 10.4 4.6 1 7.3 4.8 5.9 2.5 1.1 2.8-4.2 9.8 5.8 1.7 6.3 1 4.2-1 4.3-5 .3-5.6 2.6-1.3 3.2 3.8.4 5.1-4.2 3.5-3.3 2.6-5.3 6.3-6 8.7-.5 5.2-.4 6.6 1.2 6.4-.9 1.4.4 4.1.3 3.4 7.8 5.5.2 4.4 3.9 2.8.3 3.1-3.3 8.2-7 3.5-10.2 1.3-6-.7 2.1 3.9.1 4.7 1.8 3.2-2.5 2.3-5.1.9-5.6-2.4-1.5 1.7 2.5 6.3 4 1.9 2.3-2 2.5 3.3-4.2 2-2.9 4 1.2 6.3-.1 3.4h-4.8l-3 3.2.1 4.8 6.5 4.6 5.2 1.2.2 5.7-4.6 3.5-.6 7.3-3.5 2.4-.9 2.9 4.2 6.5 4.6 3.5-2.1-.3-4.9-1-12.1-.8-3.5-3.6-1.9-4.6-3.1.4-2.6-2.3-3.1-6.5 2.7-2.8.1-3.9-1.8-3.2.7-5.4-1.1-8.3-1.8-3.7 1.8-1.2-1.4-2.4-2.8-1.2.8-2.7-3.1-2.4-3.7-7.3 1.7-1.3-3.3-7.8-.8-6.5-.2-5.7 2.5-2.3-3.3-6.3-1.6-5.8 3-4.2-1.4-5.4 1.6-6.2-1.4-5.9-1.6-1.2-4.9-11.1 2.1-6.6-1.7-6.2.9-5.9 2.6-6 3.3-4-2-2.5.8-2.1-1.6-10.7 5.6-3.1 1.2-6.7-.9-1.6 4-5.8 7.5 1.6 3.7 4.6 1.6-5.2 6.4.3 1 1.4zm592.2-391.7-1.8.2-2.8-3.7-.2-1h-2.3l-1.9-1.7-1 .1-2.4-1.8-4.2-1.6-.1-3.1-1.3-2.2 7-1 1.4 1.6 2.2 1.1-.7 1.6 3.2 2.2-1.1 2.1 2.6 1.7 2.5 1 .9 4.5zm512.2 510.6 3.7 2.2 3.3-.9 4.9-1.2 2.8.4-4.5 7.6-3.3 2.1-4 5.2-.6-1.8-6.6 4.4-.8-.3-3-.2.5-5.4 2-4.2.6-5.6 2-2.9 3 .6zm50.5-173.4 1.2 5 4-2.4 1.4 2.7 2.3 2.5-1.1 2.9.2 5.5.2 3.2 1.3.8.4 5.5-1.2 3.3.8 4.3 5.4 3.4 3.2 3 3.2 2.8-1.1 1.6 2.3 4 .5 7 2.6-1.4 1.5 2.7 1.6-.9-.7 6.8 2.9 3.9 1.9 2.4 2.8 5.2v5.2l-1 3.7-1.8 3.9.7 5.5-2.5 5.7-2.1 3-3.8 5.7-1.5 3.7-3.1 4.6-5 5.8-5.5 3.2-4.4 4.9-3.3 3.2-4.4 5.5-3.7 3.2-3.9 4.8-3.1 4.4-.8 2.1-4.3 2.2-6.1.2-6.3 2.7-3.8 2.4-4.8 2.8-2.7-2.9-2.6-1.1 2.6-3.3-3.5 1.2-7.2 4.6-3.6-1.7-2.4-1-2.8-.5-4.1-1.8-1.3-4 1.5-4.8.4-3.3-1.4-2.6-4.7-.7 3.2-3.2.9-4.7-4.7 4.4-5.3 1.2 4.5-3.5 2.5-3.7 3.5-3.2 1.6-4.7-6.8 5.4-4.3 2.2-4.3 5.1-3-2.6 1.7-3.4-1.4-4.7-1.8-2.4 1.6-1.5-5.3-3.9-3.8-.1-4-3.2-9.9.6-7.9 2.3-6.9 2.2-5-.4-7 3.3-5.3 1.4-2.3 3.4-3 2.6-4.7.2-3.6.5-4.2-1.1-4.2.7-3.8.3-4.5 3.4-1.5-.3-3.4 1.8-3.4 2-3.8-.2h-3.5l-4.1-4.1-2.4-1.2 1.5-3.7 2.9-.9 1.5-1.4.6-2.3 2.3-4.5.7-3.8-.7-6.5.2-3.7 1.4-3.6-.9-4.2.3-1.9-1.7-2.6.7-5-1.9-5.1-.1-2.7 1.8 2.8-.5-6 2.3 1.9 1.1 2.5.6-3.3-1.6-5.1-.1-2-.8-1.9 1.3-3.7 1.5-1.6 1.3-3.2.1-3.8 3.1-4.6-.4 4.9 3.1-4.4 4.9-2.2 3.2-2.7 4.7-2.4 2.6-.5 1.4.8 4.8-2.4 3.5-.7 1.1-1.4 1.5-.6 3.1.2 6.2-1.9 3.5-2.9 2-3.4 3.9-3.2.7-2.6.7-3.5 4.9-5.5 1.4 5.6 2.6-1.3-1.5-3 2.3-3.1 2.2 1.4 1.5-4.9 3.5-3.2 1.8-2.5 2.9-1.1.4-1.8 2.3.7.4-1.6 2.6-.9 2.8-.9 3.7 3 2.6 3.8h3.5l3.5.6-.7-3.5 3.5-5.1 2.7-1.7-.6-1.6 2.9-3.7 3.7-2.3 2.7.8 4.9-1.2.3-3.3-3.9-2.1 3.1-.9 3.6 1.6 2.7 2.6 4.5 1.6 1.7-.6 3.3 2 3.5-1.9 2 .6 1.5-1.3 2.2 3.2-2 3.5-2.5 2.6-1.9.2.3 2.5-2.2 3.2-2.5 3.2.2 1.8 3.8 3.6 4 2 2.5 2.2 3.3 3.8h1.6l2.6 1.7.5 2 4.9 2.1 4.1-2.2 1.8-3.4 1.7-2.9 1.3-3.5 2.6-5.1-.2-3.1.7-1.9-.1-3.6 1.4-4.9 1.3-1.3-.6-2.1 1.8-3.4 1.5-3.5.4-1.9 2.3-2.4 1.3 3.2-.1 4 1.3.8-.1 2.7 1.6 3.2-.1 3.7-.6 2.3z" fill-rule="nonzero" stroke="#000" stroke-width=".2"/><path d="m885.55 190.567-.3.8.7 2.1-.2 2.6h-2.8l1.1 1.4-1.3 4-.9 1.1-4.4.1-2.4 1.5-4.2-.5-7.3-1.7-1.3-2.1-4.9 1.1-.5 1.2-3.1-.9-2.6-.2-2.3-1.2.7-1.5-.2-1.1 1.4-.3 2.7 1.7.6-1.7 4.4.3 3.5-1.1 2.4.2 1.7 1.3.4-1.1-1-4.1 1.7-.8 1.6-2.9 3.8 2.1 2.6-2.6 1.7-.5 4 1.9 2.3-.3 2.4 1.2z" class="highlight" fill-rule="nonzero" stroke="#000" stroke-width=".2"/><path d="m1043.95 252.967-3.8-.9-3.2-2.9-1.2-2.5 1-.1 1.9 1.7h2.3l.2 1 2.8 3.7zm6.3-17 2.5-2.6 3.5 3.3 3.6 4.6 2.5.3 1.9 1.7-4.2.5.1 5-.4 2.2-1.7 1.5.8 3.1-1.3.4-3.9-3.4 1.2-3.1-1.9-1.9-1.9.5-5.3 4.7-.9-4.5-2.5-1-2.6-1.7 1.1-2.1-3.2-2.2.7-1.6-2.2-1.1-1.4-1.6 1.1-1.1 4.2 1.9 2.9.3.6-.7-3.3-3.5 1.2-.8 1.5.2 4.3 3.8 2.4.5.6-1.6zm-80.4 294.2-.6.1v-.3l-2-6.1-.01-.06-.09-1.04-1.4-2.9 3.5.5 1.7-3.7 3.1.4.3 2.5 1.2 1.5v2.1l-1.4 1.3-2.3 3.4-2 2.3z" fill-rule="nonzero" stroke="#000" stroke-width=".2"/><path d="m831.45 176.867-.4 4.2-1.3.2-.4 3.5-4.4-2.9-2.5.5-3.5-2.9-2.4-2.5-2.2-.1-.8-2.2 3.9-1.2 3.6.5 4.5-1.3 3.1 2.7 2.8 1.5z" class="highlight" fill-rule="nonzero" stroke="#000" stroke-width=".2"/><path d="m821.65 426.767-.2 2.1 1.3 3.8-1.1 2.6.6 1.7-2.8 4-1.7 2-1.1 4 .2 4.1-.3 10.3-4.7.8-1.4-4.4.3-14.8-1.2-1.3-.2-3.2-2-2.2-1.7-1.9.7-3.4 2-.7 1.1-2.8 2.8-.6 1.2-1.9 1.9-1.9h2l4.3 3.7z" fill-rule="nonzero" stroke="#000" stroke-width=".2"/><path d="m803.45 405.767-.5 3.1.8 2.9 3.1 4.2.2 3.1 6.5 1.5-.1 4.4-1.2 1.9-2.8.6-1.1 2.8-2 .7-4.9-.1-2.6-.5-1.8 1-2.5-.5-9.8.3-.2 3.7.8 4.8-3.9-1.6-2.6.2-2 1.6-2.5-1.3-1-2.2-2.5-1.4-.4-3.7 1.6-2.7-.2-2.2 4.5-5.3.9-4.4 1.5-1.6 2.7.9 2.4-1.3.8-1.7 4.3-2.8 1.1-2 5.3-2.7 3.1-.9 1.4 1.2h3.6zm512.1-45.7.6 4.6-2.1-1 1.1 5.2-2.1-3.3-.8-3.3-1.5-3.1-2.8-3.7-5.2-.3.9 2.7-1.2 3.5-2.6-1.3-.6 1.2-1.7-.7-2.2-.6-1.6-5.3-2.6-4.8.3-3.9-3.7-1.7.9-2.3 3-2.4-4.6-3.4 1.2-4.4 4.9 2.8 2.7.3 1.2 4.5 5.4.9 5.1-.1 3.4 1.1-1.6 5.4-2.4.4-1.2 3.6 3.6 3.4.3-4.2h1.5l4.4 10.2zm-368-138.7-2.3 2.6-1.3 4.5 2.1 3.6-4.6-.8-5 2 .3 3.2-4.6.6-3.9-2.3-4 1.8-3.8-.2-.8-4.2-2.8-2.1.7-.8-.6-.8.6-2 1.8-2-2.8-2.7-.7-2.4 1.1-1.4 1.8 2.6 1.9-.4 4 .9 7.6.4 2.3-1.6 5.9-1.5 4 2.3 3.1.7zm-49.6-7.3 1.9-.1-1.1 2.8 2.7 2.5-.5 2.9-1.1.3-.9.6-1.6 1.5-.4 3.5-4.8-2.4-2.1-2.7-2.1-1.4-2.5-2.4-1.3-1.9-2.7-3 .8-2.6 2 1.5 1-1.4 2.3-.1 4.5 1.1 3.5-.1 2.4 1.4zm58.6-51.6-3.9-.2-.8.6 1.5 2 2 4-4.1.3-1.3 1.4.3 3.1-2.1-.6-4.3.3-1.5-1.5-1.7 1.1-1.9-.9-3.9-.1-5.7-1.5-4.9-.5-3.8.2-2.4 1.6-2.3.3-.5-2.8-1.9-2.8 2.8-1.3-.4-2.4-1.7-2.3-.6-2.7h4.7l4.8-2.3.5-3.4 3.6-2-1-2.7 2.7-1 4.6-2.3 5.3 1.5.9 1.5 2.4-.7 4.8 1.4 1.1 2.9-.7 1.6 3.8 4 2.1 1.1v1.1l3.4 1.1 1.7 1.6-1.6 1.3zm-653.8 237.1h-1.7l1.3-7.2.7-5.1.1-1 .7-.3.9.8 2.5-3.9 1.1-.1-.1 1h1l-.3 1.8-1.3 2.7.4 1-.9 2.3.3.6-1 3.3-1.3 1.7-1.1.2-1.3 2.2zm174.7 231.6-.3-2-5.4-3.3-5.2-.1-9.6 1.9-2.1 5.6.2 3.5-1.5 7.7-1-1.4-6.4-.3-1.6 5.2-3.7-4.6-7.5-1.6-4 5.8-3.9.9-3.1-8.9-3.7-7.2 1.1-6.2-3.2-2.7-1.2-4.6-3.2-4.4 2.9-6.9-2.9-5.4 1.1-2.2-1.2-2.4 1.9-3.2-.3-5.4v-4.6l1.1-2.1-5.5-10.4 4.2.6 2.9-.2 1.1-1.9 4.8-2.6 2.9-2.4 7.3-1.1-.4 4.8.9 2.5-.3 4.3 6.5 5.7 6.4 1.1 2.3 2.4 3.9 1.3 2.5 1.8h3.5l3.4 1.9.5 3.7 1.2 1.9.3 2.7-1.7.1 2.8 7.5 10.7.3-.5 3.7.8 2.5 3.2 1.8 1.7 4-.6 5.1-1.3 2.8.8 3.6-1.6 1.4z" fill-rule="nonzero" stroke="#000" stroke-width=".2"/><path d="m480.75 489.367 3.1.6.6-1.4-1-1.2.6-1.9 2.3.6 2.7-.7 3.2 1.4 2.5 1.3 1.7-1.7 1.3.2.8 1.8 2.7-.4 2.2-2.5 1.8-4.7 3.4-5.9 2-.3 1.3 3.6 3 11.2 3.1 1.1.1 4.4-4.3 5.3 1.7 1.9 10.1 1 .2 6.5 4.3-4.2 7.1 2.3 9.5 3.9 2.8 3.7-.9 3.6 6.6-2 11 3.4 8.5-.2 8.4 5.3 7.4 7.2 4.4 1.8 4.8.3 2.1 2 2 8.2 1.1 3.9-2.1 10.6-2.7 4.2-7.7 8.9-3.4 7.3-4 5.5-1.4.2-1.3 4.7.9 12-1.1 9.9-.3 4.2-1.6 2.6-.5 8.6-5.2 8.3-.5 6.7-4.3 2.7-1.1 3.9h-6l-8.5 2.4-3.7 2.9-6 1.9-6.1 5.1-4.1 6.4-.3 4.8 1.3 3.5-.3 6.5-.8 3.1-3.4 3.6-4.5 11.3-4 5-3.2 3.1-1.5 6.1-2.9 3.6-2.1-3.6 1.8-3.1-3.8-4.3-4.8-3.6-6.3-4.1-1.9.2-6.3-5-3.4.7 6-8.7 5.3-6.3 3.3-2.6 4.2-3.5-.4-5.1-3.2-3.8-2.6 1.3.7-3.7.3-3.8-.3-3.6-2.1-1.1-2 1-2.1-.3-.8-2.4-1.1-5.9-1.2-1.9-3.9-1.8-2.2 1.3-5.9-1.3-.4-8.7-2-3.5 1.6-1.4-.8-3.6 1.3-2.8.6-5.1-1.7-4-3.2-1.8-.8-2.5.5-3.7-10.7-.3-2.8-7.5 1.7-.1-.3-2.7-1.2-1.9-.5-3.7-3.4-1.9h-3.5l-2.5-1.8-3.9-1.3-2.3-2.4-6.4-1.1-6.5-5.7.3-4.3-.9-2.5.4-4.8-7.3 1.1-2.9 2.4-4.8 2.6-1.1 1.9-2.9.2-4.2-.6-3.2 1.1-2.6-.7-.1-9.7-4.4 3.7-5-.1-2.3-3.5-3.8-.3 1-2.8-3.3-3.9-2.6-5.8 1.5-1.1-.2-2.8 3.4-1.8-.7-3.5 1.4-2.2.3-3 6.3-4.4 4.6-1.2.8-1 5.1.3 2.2-17.6.1-2.8-.9-3.6-2.6-2.4.1-4.7 3.2-1 1.1.7.2-2.5-3.3-.7v-4l11 .2 1.9-2.3 1.6 2.1 1 3.8 1.1-.8 3.1 3.4 4.4-.4 1.1-2 4.2-1.5 2.4-1.1.7-2.7 4.1-1.8-.3-1.4-4.8-.5-.7-4.1.3-4.3-2.5-1.6 1.1-.6 4.1.8 4.5 1.6 1.7-1.5 4.1-1 6.4-2.4 2.1-2.5-.7-1.8 3-.2 1.2 1.4-.8 2.9 2 .9 1.2 3-1.6 2.3-1 5.4 1.4 3.3.3 3 3.5 3 2.8.3.6-1.3 1.8-.3 2.6-1.1 1.8-1.7 3.2.6 1.3-.3z" class="highlight" fill-rule="nonzero" stroke="#000" stroke-width=".2"/><path d="m1448.05 472.567 2.2-2.4 4.6-3.6-.1 3.2-.1 4.1-2.7-.2-1.1 2.2-2.8-3.3zm-144.3-149.3 2.6 2.1.5 3.9-4.5.2-4.7-.4-3.2 1-5.5-2.5-.4-1.2 2.6-4.8 2.6-1.6 4.3 1.4 2.9.2 2.8 1.7zm-361.2 292.2 1.9 5.1 1.1 1.2 1.6 3.7 6.1 7 2.3.7-.1 2.3 1.5 4.1 4.3 1 3.4 2.9-8.1 4.7-5.2 4.8-2 4.3-1.8 2.4-3 .5-1.2 3.1-.6 2-3.6 1.4-4.5-.3-2.5-1.8-2.3-.7-2.8 1.4-1.5 3.1-2.7 1.9-2.8 2.9-4 .7-1.1-2.3.6-3.9-3-6.1-1.4-1 .6-18.7 5.5-.2.8-22.9 4.2-.2 8.7-2.3 2 2.7 3.7-2.5h1.7l3.2-1.5 1 .5zm-6.3-169.2 3.9 2.5 3.1 2.6.1 2.1 3.9 3.3 2.4 2.8 1.4 3.8 4.3 2.6.9 2-1.8.7-3.7-.1-4.2-.7-2.1.5-.9 1.6-1.8.2-2.2-1.4-6.3 3.2-2.6-.6-.8.5-1.6 3.9-4.3-1.3-4.1-.6-3.6-2.4-4.7-2.2-3 2.1-2.2 3.2-.5 4.5-3.6-.3-3.9-1.1-3.3 3.4-3 6-.6-1.9-.3-2.9-2.6-2.1-2.1-3.3-.5-2.3-2.7-3.4.5-1.9-.6-2.7.4-5 1.4-1.1 2.8-6.5 4.6-.5 1-1.7 1 .2 1.4 1.4 7.1-2.4 2.4-2.5 2.9-2.3-.6-2.2 1.6-.6 5.5.4 5.2-3 4-7 2.8-2.6 3.6-1.1.7 2.7 3.3 4v2.7l-.8 2.6.4 2 1.9 1.9.5.3zm-455.4-242.9 3.4.9 4.7-.2-3.3 2.6-2 .4-5.5-2.7-.6-2.1 2.5-1.9.8 3zm14.4-16-2.4.1-5.8-1.9-3.5-3 1.9-.5 5.9 1.6 4.2 2.6-.3 1.1zm-307.9 3.7-3.1.9-6.3-2.8v-2.2l-2.9-2.2.3-1.8-4.3-1.1.6-3.4 1.5-1.4 4.1 1.3 2.4 1 4.1.6.2 2.2.4 2.9 3.2 2.6-.2 3.4zm339.1-13.5-5 5.4 3.9-2.1 2.9 1.4-2.4 2.1 3.8 1.7 2.8-1.5 4.3 1.9-2.8 4.6 3.8-1.1-.3 3.3.5 3.9-3.6 5.6-2.4.2-2.9-1.2 2.5-5.1-1.2-.8-7.3 5.4-3-.2 4.4-3-4.4-1.5-5.5.4-9.6-.2-.2-1.8 3.8-2.3-1.7-1.6 5.4-3.8 8.2-9.9 4.2-3.5 5-2.1 2.1.2-1.5 1.7-3.8 3.9zm-360-21.4 1.5.8 5-.5-7.2 6.9.3 5h-1.9l-.7-2.8.5-2.9-.8-1.9 1.3-2.7 2-1.9zm283.4-47.5-3.6 3-1.7-.5-.1-1.7.4-.4 2.8-1.7 1.7.1.5 1.2zm-9.7-3.2-7.2 3.2-3-.2v-1.5l5-2.7 6 .1-.8 1.1zm-3.1-16.8-.9 2.5 2.7-.9 1.5 1.5 3.5 2 3.8 1.7-1.4 2.7 3.5-.4 1.9 1.9-5 1.8-5.9-1.4-.8-2.6-6.3 3.1-8.2 2.9.7-3.3-6.3.5 5.7-2.8 3.6-4.5 5.1-5.1 2.8.4zm44.9-8.3-4.9.3.7-2.7 3.8-3.1 4.3-.7 2.3 1.5-1.5 2.3-.9.8-3.8 1.6zm-74.5-10.7-4.1 1.9-4.2-1.6-3.9.5-3.4-2.4 5-1.7 4.9-2.3 3 1.5 1.6 1 .4 1 .7 2.1z" fill-rule="nonzero" stroke="#000" stroke-width=".2"/><path d="m460.45 212.267-2.2-3.6 2.9-8.5-1.6-1.8-3.7 1-1.1-1.6-5.5 4.7-3.2 4.9-2.8 2.9-2.5 1-1.7.3-1.1 1.5h-9.3l-7.8.1-2.7 1.1-6.8 4.4v-.1l-.9-.4-2 .9-1.9 1.3-1.8-1.1-4.7.8-3.9.9-1.9.8-2.3 2.1 1.8.7 1.7-.4h.3l-.3 1.9-4.8.7-2.8.8-1.7 1-2.6-.6-1.6.3-2.9 1.8-4.6 2-2.7-.4 2-2.2 3.7-3.5 4.1-2.1 1.1-1.8.9-3 3.8-3.5.9-4 1.1 3.9 3.8.9 2.4-2.1-1.4-4.8-.9-2-4-1.2-3.8-.7h-3.9l-3.4-.8-.4-1.4-1.4.9-1.2-.2 1.9-2.1-1.8-.8 1.9-2.4-1.2-1.8 1.7-1.8-5.2-.9-.1-3.6-.8-.8-3.3-.2-4.1-1.2-1.5.8-1.8 1.5-3.3 1-3.1 2.5-5.4-1.7-4.4.8-3.9-1.9-4.6-1-3.3-.4-1-1 .9-3.4h-1.7l-1.3 2.4h-137.8l-5.4-6.1-1.6-2.7-7-2.6 1.3-5.5 3.6-3.7-4.1-2.7 3.1-4.9-2.1-4.4 2.5-3.2 5.1-2.9 3.2-3.8-4.6-3.8 1.4-6.9 1.1-4.2-1.6-2.7-.8-2.4.6-3.1-6.5 1.9-7.6 3.3-.3-3.8-.5-2.6-2.8-1.6-4.2-.2 35.6-32.7 24.6-20.4 6 1.3 3.3 2.6 3.7.5 6.3-2.2 7-1.7 5.3.6 8.9-2.3 8.2-1.3.2 2.2 4.5-1.3 3.9-2.5 2.1.6 1.4 4.8 9.5-3.7-3.9 4.1 6-.9 3.2-1.5 4.6.3 3.9 2.2 7.5 2 4.7.9 4.4-.3 2.9 2.8-8.5 2.7 6.4 1.1 11.9-.6 4.4-1 1.4 3.3 7.1-2.7-2.1-2.4 4.5-1.8 5.2-.3 3.9-.5 2.1 1.3 1.5 2.9 5-.4 5.3 2.5 7.2-.9 6 .1 2.4-3.4 4.5-.9 4.9 1.8-4.3 5.2 6.2-4.4 3.2.2 6.4-5.5-1.6-3.3-2.9-2.2 5.5-5.9 8.2-3.8 4.5.9 2 2.3.4 6-5.8 2.6 6.7 1.1-4.4 5.5 8.9-4.2 2.2 3.5-4.3 4 1.3 3.7 7.3-3.9 6.5-4.8 4.7-5.9 5.5.4 5.4.8 3.6 2.7-1.7 2.7-5.1 2.9.9 2.9-2.4 2.7-10.9 3.9-6.5.9-3.2-1.7-3.3 2.8-7.4 4.7-3 2.5-7.7 3.8-6.5.4-5.1 2.4-2.9 3.8-5.7.7-8.7 4.7-9.4 6.5-5 4.6-4.9 6.9 6 1-1.5 5.5-.8 4.6 7.3-1.2 7 2.6 3.3 2.3 1.7 2.8 4.9 1.7 3.6 2.5 7.6.4 4.8.6-3.6 5.2-1.7 6.1.1 6.9 4.4 5.9 4.7-2 5.6-6.4 2.3-9.6-1.7-3.2 9-2.9 7.5-4.2 4.8-4.2 1.7-4-.4-5.1-3.2-4.5 8.9-6.2 1-5.3 3.9-9 3.8-1.4 6.7 1.6 4.2.6 4.5-1.6 3.1 2 3.6 3.4.2 2.2 7.7.5-2.6 4.9-2.3 7.4 3.8 1 1.6 3.5 8.2-3.3 7.5-6.6 4.2-2.7 1.1 5.3 2.6 7.5 2 7.2-3.4 3.8 4.8 3.4 2.9 3.4 6.9 1.6 2.4 1.9v5.2l3.4.8 1.1 2.3-2 6.9-4.3 2.3-4.2 2.2-8.8 2.2-7.9 5-8.6 1.1-10.1-1.4h-7.3l-5.3.4-5.7 4.5-7.4 2.8-10.1 8.2-7.9 5.8 4.7-1 10.9-8.3 12.3-5.2 7.6-.6 3.3 3.1-6.1 4.2-.6 6.7.1 4.8 5.6 3.1 8.6-.9 7.2-7.1-1 4.6 2.5 2.3-7.4 4.1-12.4 3.8-5.8 2.5-7.2 4.6-3.7-.5 1.5-5.3 10.4-5.3-8.1.2-5.9.8z" class="highlight" fill-rule="nonzero" stroke="#000" stroke-width=".2"/><path d="m353.95 48.467-4.7 2.4 10.5-1.5 2.6 2.6 7.3-2.7 1.8 1.7-2.2 5.1 4.3-2.1 2.8-5.3 4.3-.8 3 .8 2.2 2.1-2.7 5.1-2.4 3.7 4.2 2.6 5 2.6-2.6 2.3-7.1.5.8 2-3.2 2-6.7-.8-5.7-1.5-5.1.3-9.5 1.9-11.3.8-7.9.5.3-2.6-4.1-1.4-4.3.6-.6-4.3 3.3-.6 7.3-.9 5.5.3 6.2-1-6.5-1.2-9.1.4-5.7-.1v-1.9l11.7-2.2-6.3.1-5.4-1.4 7.8-3.9 5.2-2.1 14.2-3.1 2.8 1zm39.5-1.5-7 3.4-2.3-3.6 2.1-.8 5.5-.2 1.7 1.2zm108.6 1.6-.7 1.4-4.1-.1-4.1-.1-4.9.7-.9-.4-2.1-2.7 1.7-1.8 2.2-.4 8.4.6 4.5 2.8z" fill-rule="nonzero" stroke="#000" stroke-width=".2"/><path d="m462.25 48.267.3 3.2 7.2-4.1 11.7-2.1 2.3 5.3-3.2 3.4 9-1.5 5.3-2.1 6.8 2.6 3.7 2.5-1.1 2.3 8.2-1.2 1.9 3.4 8.4 2.1 2.2 2.1.9 5.1-9.1 2.5 7.7 3.6 5.9 1.2 3.3 5 6.5.4-3.3 3.9-10.9 6.5-4-2.4-3.8-5.4-5.9.7-2.3 3.3 2.7 3.2 4.5 2.6 1 1.5-.1 5.7-3.6 4.1-4.7-1.6-8.6-4.5 3.6 4.9 2.8 3.5-.3 2-10.9-2.3-7.6-3.4-3.8-2.7 2.4-1.7-4.8-2.9-4.7-2.7-.9 1.6-13.1.9-2.4-1.9 5.4-4.2 8.1-.1 9.3-.7-.2-2 3.1-2.8 8.8-5.4.4-2.5-.5-1.8-4.7-2.7-7.1-1.8 3.5-1.4-2-3.4-3.4-.3-1.9-1.8-3.3 1.6-7.9.7-14-1.2-7.4-1.6-5.9-.8-1.9-1.9 6.3-2.4h-5.7l3.3-5.3 7.1-4.6 6-2.1 11.2-1.4-5.8 3.3zm-50.4-3.5 3.6 1.1 7.6-.7-.5 1.5-6.1 2.5 3.8 2.2-5.2 4.7-8.4 2-3.4-.4-.9-2-5.9-4 1.7-1.7 7.4.6-.9-3.3 7.2-2.5zm22.6 5.5-7.8 3.9-4.4-.2 1.8-4.6 2.6-2.5 4.2-2.2 5.2-1.4 7.9.2 6.2 1.2-10.1 4.6-5.6 1zm-115.8 7.2-13.5 2.6.6-2.3-6-2.8 4.4-2.2 7.5-3.8 7.6-3.4.4-3.1 14-.8 4.2 1.1 9.5.3 1.9 1.4 1.6 2.2-6.5 1.3-13.9 3.6-9.2 3.7-2.6 2.2zm125.2-18.4-4.1 1.9-5.2-.4-3.2-1.3 4.5-2.2 6.9-1.4 1.4 1.8-.3 1.6zm-8.8-8.7.2 2.3-2.8 2.5-5.8 3.8-6.9.5-3.2-.8 3.4-2.9-6.6.3 4.3-3.8 3.8.2 7.7-1.7 4.9.3 1-.7zm-39.4 2.6-.7 1.7 4.4-.8 3.6.2-2.3 2.5-5.1 2.3-13.9.8-12.3 2.2-6 .1 1.5-1.6 10.7-2.3-17.9.6-4.2-.9 11.7-4.8 5.4-1.4 8.3 1.7 2.9 2.9 6.1.4.7-4.7 5.8-1.8 3.1.5-1.8 2.4zm55.7-4.4 2.3 1.6h7.4l1.4 1.6-2.8 1.8 3.1 1.1 1.2 1.2 4.9.2 5.1.4 7.1-1 8.1-.5 5.8.4 2.3 1.9-1 2-3.6 1.4-6.7 1.1-4.3-.7-11.8.8-8 .1-5.6-.6-8.6-1.6 1.6-2.8 2.1-2.4-1.4-2.2-7-.6-2.6-1.5 3.8-2 7.2.3zm-75.7-2.6-5.8 3.7-5.3 1.7-3.8.2-9.9 2.1-7.1.8-3.6-1.1 11.7-3.7 12.2-3.1 5.5.1 6.1-.7zm81.2.6-1.8.1-6.6-.3.7-1.3 7.2.1 1.6.8-1.1.6zm-58.8-.9-8.8 1.4-3.3-1.5 5.1-1.5 6-.5 4.1.7-3.1 1.4zm7.8-4.2-5.7.9h-6l1-.7 5.7-1.3 1.7.2 3.3.9zm46.8 2.5-6.6 1-1.6-1.1.6-1.7 2.2-1.9 4.4.2 1.7.3 2.3 1.6-3 1.6zm-13.8-1.2-1.1 1.9-5.3-.5-4-1.5-7.8-.2 5.3-1.3-2.8-1.1 2.2-1.8 6.1.6 7.5 1.7-.1 2.2zm54.1-6.1 2.7 1.5-6.5 1.3-10.6 3.5-6.8.3-6.8-.6-1.6-1.9 2.1-1.6 4.3-1.2h-6.6l-2-1.5.4-1.9 4.9-1.9 4.1-1.3 4-.3-.3-1 8.3-.2 1.6 2.2 4.7.9 4.8.9-.7 2.8z" fill-rule="nonzero" stroke="#000" stroke-width=".2"/><path d="m572.15 2.667 8.7.3 6.7.5 5.2 1-1.1 1-9.8 1.7-9 .8-4 .9h7.5l-10.5 2.5-6.8 1.2-9.3 3.5-8.1.7-3.1 1-11.3.4 4.4.6-3.3.8.7 2.3-5 1.6-6.9 1.3-3.5 1.8-6.6 1.5-.5 1.1 6.5-.2-1.1 1.2-12.7 2.9-8.5-1.4-11.7.8-5-.6-6.8-.3 2.1-2.3 8-1.1 2-3.4 2.6-.3 7.5 2-1.7-3-4.9-.9 5-1.8 7.6-1.1 2.8-1.6-3-1.7 1.1-2.2 9.4.1 2.2.5 7.3-1.6-7.3-.5-12.6.3-4.4-1.4-.8-1.7-2.5-1.2 1.1-1.3 6-.8 4.2-.1 7.4-.6 6.8-1.5 3.9.2 2.4 1.1 5-2 5.2-.6 6.5-.4 10.4-.2 1.3.4 10.3-.6 14 .4z" fill-rule="nonzero" stroke="#000" stroke-width=".2"/><path d="m849.35 197.267.2 1.1-.7 1.5 2.3 1.2 2.6.2-.3 2.5-2.1 1.1-3.8-.8-1 2.5-2.4.2-.9-1-2.7 2.2-2.5.3-2.2-1.4-1.8-2.7-2.4 1v-2.9l3.6-3.5-.2-1.6 2.3.6 1.3-1.1h4.2l1-1.3 5.5 1.9z" class="highlight" fill-rule="nonzero" stroke="#000" stroke-width=".2"/><path d="m1417.15 381.667-4.3 3.1-4.9-2-1-5.5 2.2-2.9 5.8-1.8 3.3.1 1.6 2.5-2 2.8-.7 3.7z" fill-rule="nonzero" stroke="#000" stroke-width=".2"/><path d="m1440.55 185.267 9 4.5 6 5.8h7.6l2.6-2.4 6.9-1.9 1.3 5.7-.3 2.3 2.8 6.8.6 6.2-6.9-1.1-2.9 2.2 4.7 5.4 3.9 7.5-2.5.1 1.9 3.3-5.5-3.8v3.6l-6.4 2.7 2.8 3.4-4.6-.3-3.6-2-1.1 4.6-3.9 3.4-2.1 4.1-6.3 1.8-2.4 3-4.8 1.8 1.3-3-2.3-2.5 2-4.3-4.5-3.3-3.4 2.2-3.6 4.5-1.3 4.1-5 .3-1.3 3 4.8 4.3 4.8 1.1 1.4 2.8 5.1 1.9 3.8-4.6 5.9 2.5 3.5.2 2.3 3.3-6.7 1.8-1 3.5-3.8 3.2-.9 4.5 7.1 3.5 4.6 6.3 5.5 5.9 5.5 4.9 1.6 4.8-2.8 1.8 2.4 3.4 3.9 2 .8 5.2.1 5.1-2.8.6-2.1 6.9-2.3 8.5-3.4 7.6-6.4 5.9-6.6 5.5-6.1.7-2.9 2.8-2.3-2-2.5 3.1-7.2 3.3-5.8.9-.7 6.8-3.1.4-2.2-4.7.9-2.4-7.8-2.1-2.4 1.1-5.9-1.7-3.1-2.6.3-3.7-5.3-1.2-3.1-2.4-4.1 3.4-5.3.8-4.4-.1-2.7 1.6-2.7.9 2 7.4-3-.2-.8-1.5-.5-2.7-3.8 1.9-2.6-1.2-4.5-2.4.8-5.3-3.7-1.3-2.4-5.9-5.6 1.1-.7-7.6 4.2-5.4-.9-5.3-1.3-4.9-2.7-1.5-2.7-3.8-3.1.5-6.1-1 1.2-2.7-3.6-4-3.2 2.7-4.9-1.5-5.4 4-3.9 4.8-4.2.8-2.8-1.7-2.9-.2-4.3-1.4-2.6 1.6-2.6 4.8-1.5-5.1-3.1 1.4-6.5-.7-6.5-1.4-5-2.9-4.5-1.2-2.5-3.1-3.3-.9-6.4-4.2-4.8-2-1.9 1.5-8.6-4.5-6.2-4-3.2-7.1 4.1.9-.6-3.3-3-3.3-.8-5.2-7.7-7.6-9.5-2.5-2.9-5-4.7-3-1.5-1.8-1.8-3.6-.5-2.5-3.7-1.5-1.5.7-3.1-6 1.1-1.4-1.2-1.5 4.1-3 3.2-1.3 5.8.9.6-4.1 6.4-.7 1-2.6 6.9-3.4.2-1.4-1.7-3.7 2.9-1.6-8.8-11 9.1-2.5 2-1.4-1-11.3 10.8 2.1 1.6-2.9-2.5-6.2 3.8-.6 1.9-4.2 1.7-.5 3.3 4.4 5.7 3.3 8.2 2.3 5.8 5.1 1.4 7.3 3 2.8 6.5 1.1 7.2.8 8 4 3.4.7 5 5.8 4.7 3.8 5.6-.2 11.3 1.5 6.4-.9 5.6.9 9.4 3.9h6.2l3.3 1.9 4.4-3.4 7.2-2.2 7.6-.2 4.9-2.2 2-3.4 2.4-2.2-1.9-2.1-2.9-2.4.5-4.1 3.2.6 5.9 1.3 3.2-3.4 6.4-2.4 1.3-4.2 2.5-1.8 6.8-.8 4.4.7-.8-2.2-7.2-4.4-5.2-2-2.5 2.3-5.5-1-2.3.8-2.8-2.5-.3-6.3-.6-4.7 7.4 2.4 4.4-3.9-1.9-2.8-.2-6.5 1.3-2-2.5-3.4-3.7-1.4 1.7-3.1 5.1-1.1 6.2-.2 8.6 1.9 6 2.2 7.7 6.2 3.8 2.7 4.5 3.8 6.2 6 10 2z" class="highlight" fill-rule="nonzero" stroke="#000" stroke-width=".2"/><path d="m770.85 434.967 2.5 1.4 1 2.2 2.5 1.3 2-1.6 2.6-.2 3.9 1.6 1.5 9.2-2.4 5.3-1.5 7.3 2.4 5.5-.2 2.6h-2.6l-3.9-1.2h-3.7l-6.7 1.2-3.9 1.8-5.6 2.4-1.1-.2.4-5.3.6-.8-.2-2.5-2.4-2.7-1.8-.4-1.6-1.8 1.2-2.9-.5-3.1.2-1.8h.9l.4-2.8-.4-1.3.5-.9 2.1-.7-1.4-5.2-1.3-2.6.5-2.2 1.1-.5.8-.6 1.5 1h4.4l1-1.8 1 .1 1.6-.7.9 2.7 1.3-.8 2.4-1zm116.9 19-2.8 6.5-1.4 1.1-.4 5 .6 2.7-.5 1.9 2.7 3.4.5 2.3 2.1 3.3 2.6 2.1.3 2.9.6 1.9-.4 3.4-4.5-1.5-4.6-1.7-7.1-.2-.7-.4-3.4.8-3.4-.8-2.7.4-9.3-.1.9-5.1-2.3-4.3-2.6-1-1.1-2.9-1.5-.9.1-1.8 1.4-4.6 2.7-6.2h1.6l3.4-3.8 2.1-.1 3.2 2.7 3.9-2.2.5-2.7 1.3-2.6.8-3.2 3-2.6 1.1-4.5 1.2-1.5.8-3.3 1.4-4.1 4.7-5 .3-2.1.6-1.2-2.3-2.5.2-2.1 1.5-.3 2.3 4.1.5 4.2-.2 4.3 3.2 5.8h-3.2l-1.6.4-2.6-.6-1.2 3 3.4 3.8 2.5 1.1.8 2.6 1.8 4.4-.8 1.8zm68.5 14 3.5 5.3 2.6.8 1.5-1.1 2.6.4 3.1-1.3 1.4 2.7 5.1 4.3-.3 7.5 2.3.9-1.9 2.2-2.1 1.8-2.2 3.3-1.2 3-.3 5.1-1.3 2.5-.1 4.8-1.6 1.8-.2 3.8-.8.5-.6 3.6 1.4 2.9.1 1-1.2 10.3 1.5 3.6-1 2.7 1.8 4.6 3.4 3.5.7 3.5 1.6 1.7-.3 1.1-.9-.3-7.7 1.1-1.5.8-1.7 4.1 1.2 2.8-1.1 7.6-.9 6.4 1.5 1.2 3.9 2.5 1.6-1.2.2 6.9h-4.3l-2.2-3.5-2-2.8-4.3-.9-1.2-3.3-3.5 2-4.4-.9-1.9-2.9-3.5-.6-2.7.1-.3-2-1.9-.1-2.6-.4-3.5 1-2.4-.2-1.4.6.4-7.6-1.8-2.4-.4-4 .9-3.9-1.1-2.4-.1-4.1-6.8.1.5-2.3h-2.9l-.3 1.1-3.5.3-1.5 3.7-.9 1.6-3.1-.9-1.8.9-3.8.5-2.1-3.3-1.3-2.1-1.6-3.9-1.3-4.7-16.7-.1-2 .7-1.7-.1-2.3.9-.8-2 1.4-.7.2-2.8 1-1.6 2-1.4 1.5.7 2-2.5 3.1.1.3 1.8 2.1 1.1 3.4-4 3.3-3.1 1.4-2.1-.1-5.3 2.5-6.2 2.6-3.3 3.7-3.1.7-2 .1-2.4.9-2.2-.3-3.7.7-5.7 1.1-4 1.7-3.4.3-3.9.5-4.5 2.2-3.2 3-2.1 4.7 2.2 3.6 2.4 4.1.6 4.3 1.3 1.6-3.9.8-.5 2.6.6 6.3-3.2 2.2 1.4 1.8-.2.9-1.6 2.1-.5 4.2.7 3.7.1 1.8-.7z" fill-rule="nonzero" stroke="#000" stroke-width=".2"/><path d="m905.85 479.067-.3 3.9-1.7 3.4-1.1 4-.7 5.7.3 3.7-.9 2.2-.1 2.4-.7 2-3.7 3.1-2.6 3.3-2.5 6.2.1 5.3-1.4 2.1-3.3 3.1-3.4 4-2.1-1.1-.3-1.8-3.1-.1-2 2.5-1.5-.7-2.1-2.2-1.7 1.1-2.3 2.8-4.6-6.8 4.3-3.6-2.1-4.2 2-1.6 3.8-.8.4-2.9 3.1 3.1 5 .3 1.7-3 .7-4.3-.6-5-2.7-3.8 2.5-7.5-1.4-1.2-4.2.5-1.6-3.3.4-2.8 7.1.2 4.6 1.7 4.5 1.5.4-3.4 3-6 3.3-3.4 3.9 1.1 3.6.3zm-506.5-53.1-3.7 1.1-1.6 3.2-2.3 1.8-1.8 2.4-.9 4.6-1.8 3.8 2.9.4.6 2.9 1.2 1.5.3 2.5-.7 2.4.1 1.4 1.4.5 1.2 2.2 7.3-.6 3.3.8 3.8 5.6 2.3-.7 4.1.3 3.2-.7 2 1.1-1.2 3.4-1.3 2.2-.6 4.6 1.1 4.3 1.5 1.9.2 1.4-2.9 3.2 2 1.4 1.5 2.3 1.6 6.4-1.1.8-1-3.8-1.6-2.1-1.9 2.3-11-.2v4l3.3.7-.2 2.5-1.1-.7-3.2 1-.1 4.7 2.6 2.4.9 3.6-.1 2.8-2.2 17.6-2.9-3.4-1.7-.1 3.5-6.6-4.4-3-3.4.6-2.1-1.1-3.1 1.7-4.2-.9-3.5-6.7-2.6-1.6-1.8-3.1-3.8-3-1.5.6-2.4-1.5-2.8-2.1-1.6 1-4.8-.9-1.4-2.8-1.1.1-5.6-3.6-.7-2 2.1-.5-.2-3.2 1.4-2.4 2.8-.4 2.5-4 2.2-3.4-2-1.5 1.2-3.7-1.1-5.9 1.3-1.7-.7-5.4-2.2-3.5.9-3.1 1.8.5 1.1-1.9-1.1-3.8.7-.9 2.9.2 4.5-4.5 2.4-.7.1-2.1 1.4-5.5 3.4-2.9 3.5-.2.6-1.3 4.4.5 4.6-3.2 2.3-1.4 2.9-3.1 2 .4 1.3 1.7-1.2 2.1zm-69.8 5.4 1.2 3.5 2 2.6 2.5 2.7-2.2.6-.1 2.6 1.1.9-.9.8.2 1.1-.6 1.3-.3 1.3-3-1.4-1.1-1.4.7-1.1-.1-1.4-1.5-1.5-2.2-1.3-1.8-.8-.3-1.9-1.4-1.1.2 1.8-1.2 1.6-1.2-1.8-1.7-.7-.7-1.2.1-2 .9-2-1.5-.9 1.4-1.3.9-.8 3.6 1.7 1.3-.8 1.8.5.8 1.3 1.7.5 1.4-1.4zm30.2-75.9 1.9 2.3 5.2-.7 1.8 1.5 4.2 4 3.2 2.9 1.8-.1 3.2 1.3-.6 1.8 4 .3 3.9 2.6-.8 1.5-3.8.8-3.8.3-3.7-.5-8.1.6 4.2-3.5-2.1-1.7-3.6-.4-1.7-1.9-.8-3.6-3.2.2-5-1.7-1.5-1.4-7.1-1-1.8-1.2 2.3-1.6-5.4-.3-4.4 3.3-2.3.1-1 1.6-2.8.7-2.3-.7 3.2-1.9 1.5-2.4 2.7-1.4 3-1.2 4.3-.6 1.4-.8 4.7.5 4.4.1 4.9 2.2zm514.9-180.5 2.5 2 3.7.5-.2 1.7 2.8 1.3.6-1.6 3.4.7.7 2 3.7.3 2.6 3.1h-1.5l-.7 1.1-1.1.3-.2 1.4-.9.3-.1.6-1.6.6-2.2-.1-.6 1.4-2.4-1.2-2.3.3-4-1.9-1.7.5-2.6 2.6-3.8-2.1-3-2.6-2.6-1.5-.7-2.7-1-1.8 3.4-1.3 1.7-1.6 3.5-1.2 1.1-1.2 1.3.7 2.2-.6z" fill-rule="nonzero" stroke="#000" stroke-width=".2"/><path d="m868.85 158.667 1.4 3.1-1.2 1.7 1.9 2.1 1.5 3.3-.2 2.2 2.4 3.9-2.2.6-1.3-.7-1.1 1.2-3.5 1.2-1.7 1.6-3.4 1.3 1 1.8.7 2.7 2.6 1.5 3 2.6-1.6 2.9-1.7.8 1 4.1-.4 1.1-1.7-1.3-2.4-.2-3.5 1.1-4.4-.3-.6 1.7-2.7-1.7-1.4.3-5.5-1.9-1 1.3h-4.2l.4-4.5 2.4-4.2-7.2-1.2-2.4-1.6.2-2.7-1-1.4.4-4.2-1.1-6.5h2.9l1.2-2.3.9-5.6-.9-2.1.8-1.3 4-.3 1 1.3 3.1-3-1.3-2.3-.4-3.4 3.7.8 2.9-.9.3 2.3 4.9 1.4.1 2.2 4.7-1.2 2.6-1.6 5.6 2.4 2.4 1.9z" class="highlight" fill-rule="nonzero" stroke="#000" stroke-width=".2"/><path d="m1044.45 427.967-1.9 3.5-1.3-1.2-1.3.5-3.2-.1-.2-2-.5-1.8 1.8-3 1.9-2.8 2.4.6 1.7-1.6 1.4 2-.1 2.6-3.1 1.6 2.4 1.7zm-183.4-280.5-2.4 4.9-5.2-3.5-.9-2.5 6.8-2 1.7 3.1zm-12.8 3.8-2.9.9-3.7-.8-2.1-3.4-.4-6.1.6-1.7 1.3-1.8 4-.3 1.6-1.7 3.6-1.7v3.1l-1.2 2 .7 1.6 2.6.9-1 2.3-1.4-.6-3.1 4.3 1.4 3zm-447.6 234.5.3-1.8-1.3-1.9 1.5-1.1.7-2.5-.1-3.4.8-1.1h4.3l3.2 1.6 1.5-.1.7 2.3 3.1-.2-.4 1.9 2.5.3 2.5 2.3-2.3 2.6-2.6-1.4-2.6.3-1.8-.3-1.1 1.2-2.2.4-.7-1.6-1.9.9-2.7 4.4-1.3-1-.1-1.8zm445.3-121.4-1 3.3 1 6.1-1.1 5.3-3.2 3.6.6 4.8 4.5 3.9.1 1.5 3.4 2.6 2.6 11.5 1.9 5.7.4 3-.8 5.2.4 3-.6 3.5.6 4-2.2 2.7 3.4 4.7.2 2.7 2.1 3.6 2.5-1.2 4.5 3 2.5 4-18.8 12.3-16 12.6-7.8 2.8-6.2.7-.1-4.1-2.6-1.1-3.5-1.8-1.3-3-18.7-14-18.6-14-20.5-15.6.1-1.2.1-.4.1-7.6 8.9-4.8 5.4-1 4.5-1.7 2.1-3.2 6.4-2.5.3-4.8 3.1-.6 2.5-2.3 7.1-1.1 1-2.5-1.4-1.4-1.9-6.8-.3-3.9-1.9-4.1 5.1-3.5 5.8-1.1 3.3-2.6 5.1-2 9-1.1 8.8-.5 2.7.9 4.9-2.5 5.7-.1 2.2 1.5 3.6-.4zm-472 238.2.8 4.9-1.7 4.1-6.1 6.8-6.7 2.5-3.4 5.6-.9 4.3-3.1 2.7-2.5-3.3-2.3-.7-2.3.5-.3-2.3 1.6-1.5-.7-2.7 2.9-4.8-1.3-2.8-2.1 3-3.5-2.9 1.1-1.8-1-5.8 2-1 1-4 2.1-4.1-.3-2.6 3.1-1.4 3.9-2.5 5.6 3.6 1.1-.1 1.4 2.8 4.8.9 1.6-1 2.8 2.1 2.4 1.5zm613.1-201.4 3.9 9.4.7 1.6-1.3 2.6-.7 4.8-1.2 3.4-1.2 1.1-2-2.1-2.7-2.8-4.7-9.2-.5.6 2.8 6.7 3.9 6.5 4.9 10 2.3 3.5 2 3.6 5.4 7.1-1 1.1.4 4.2 6.8 5.8 1.1 1.3h-65.9l-1-23.7-1.3-22.8-2-5.2 1.1-3.9-1-2.8 1.7-3.1 7.2-.1 5.4 1.7 5.5 1.9 2.6 1 4-2 2.1-1.8 4.7-.6 3.9.8 1.8 3.2 1.1-2.1 4.4 1.5 4.3.4 2.5-1.6z" fill-rule="nonzero" stroke="#000" stroke-width=".2"/><path d="m1043.85 420.067-1.7 1.6-2.4-.6-2-2.1-2.5-3.7-2.6-2.1-1.5-2.2-5-2.6-3.9-.1-1.4-1.3-3.2 1.5-3.6-2.9-1.5 4.8-6.6-1.4-.7-2.5 2-9.5.3-4.2 1.7-2 4-1.1 2.7-3.6 3.6 7.4 1.9 5.9 3.2 3.1 8 6.1 3.3 3.6 3.2 3.8 1.8 2.2 2.9 1.9z" fill-rule="nonzero" stroke="#000" stroke-width=".2"/><path d="m928.65 124.367.9 1-2.6 3.4 2.4 5.6-1.6 1.9-3.8-.1-4.4-2.2-2.1-.7-3.8 1-.1-3.5-1.5.8-3.3-2.1-1-3.4 5.5-1.7 5.6-.8 5.1.9 4.7-.1z" class="highlight" fill-rule="nonzero" stroke="#000" stroke-width=".2"/><path d="m1022.25 408.267 3.9.1 5 2.6 1.5 2.2 2.6 2.1 2.5 3.7 2 2.1-1.9 2.8-1.8 3 .5 1.8.2 2 3.2.1 1.3-.5 1.3 1.2-1.2 2.2 2.2 3.6 2.2 3.1 2.2 2.3 18.7 7.6 4.8-.1-15.6 19.3-7.3.3-5 4.5-3.6.1-1.5 2.1h-3.9l-2.3-2.2-5.2 2.7-1.6 2.7-3.8-.6-1.3-.7-1.3.2-1.8-.1-7.2-5.4h-4l-1.9-2.1-.1-3.6-2.9-1.1-3.5-7-2.6-1.5-1-2.6-3-3.1-3.5-.5 1.9-3.6 3-.2.8-1.9-.2-5v-.8l1.5-6.7 2.6-1.8.5-2.6 2.3-5 3.3-3.1 2-6.4.7-5.5 6.6 1.4 1.5-4.8 3.6 2.9 3.2-1.5 1.4 1.3z" fill-rule="nonzero" stroke="#000" stroke-width=".2"/><path d="m919.05 69.867.4 3.8 7.3 3.7-2.9 4.2 6.5 6.3-1.7 4.8 4.9 4.2-.9 3.8 7.4 3.9-.9 2.9-3.4 3.4-8 7.4-8 .5-7.6 2.1-7.1 1.3-3.2-3.2-4.7-1.9.1-5.8-3-5.2 1.6-3.4 3.3-3.5 8.8-6.2 2.6-1.2-.9-2.4-6.5-2.6-1.8-2.2-1.8-8.5-7.2-3.7-6-2.7 2.2-1.4 5.1 2.8 5.3-.2 4.7 1.3 3.4-2.4 1.1-4 5.9-1.8 5.8 2.1-.8 3.8z" class="highlight" fill-rule="nonzero" stroke="#000" stroke-width=".2"/><path d="m875.45 487.067-.4 2.8 1.6 3.3 4.2-.5 1.4 1.2-2.5 7.5 2.7 3.8.6 5-.7 4.3-1.7 3-5-.3-3.1-3.1-.4 2.9-3.8.8-2 1.6 2.1 4.2-4.3 3.6-5.8-6.5-3.7-5.3-3.5-6.6.2-2.2 1.3-2 1.3-4.7 1.2-4.8 1.9-.3h8.2v-7.7l2.7-.4 3.4.8 3.4-.8.7.4z" fill-rule="nonzero" stroke="#000" stroke-width=".2"/><path d="m771.65 157.967-3.5-1.2-3 .1 1.2-3.3-.9-3.2 4-.3 4.9 3.8-2.7 4.1z" class="highlight" fill-rule="nonzero" stroke="#000" stroke-width=".2"/><path d="m787.55 129.267-5.1 6.5 4.7-.8h5.1l-1.3 4.9-4.3 5.4 4.9.3.3.7 4.2 7.1 3.2 1 2.9 7 1.4 2.4 5.9 1.1-.6 4-2.4 1.8 1.9 3.2-4.4 3.2-6.5-.1-8.4 1.8-2.2-1.3-3.3 2.9-4.5-.7-3.6 2.4-2.5-1.2 7.3-6.5 4.4-1.4-7.6-1-1.3-2.5 5.1-1.9-2.5-3.3 1-4 7.1.6.8-3.6-3.1-3.7-.1-.1-5.7-1.1-1.1-1.6 1.8-2.7-1.5-1.7-2.6 2.9-.1-5.9-2.2-3 1.9-6.2 3.8-4.8 3.6.4 5.6-.5z" class="highlight" fill-rule="nonzero" stroke="#000" stroke-width=".2"/><path d="m1030.65 227.667 5.1 1.3 2.1 2.6 3.6 1.5-1.2.8 3.3 3.5-.6.7-2.9-.3-4.2-1.9-1.1 1.1-7 1-5.6-3.2-5.5.3.3-2.7-2.1-4.3-3.4-2.4-3-.7-2.2-1.9.4-.8 4.6 1.1 7.7 1 7.6 3.1 1.2 1.2 2.9-1zm-229.2 203.2-.4 2 2.3 3.3v4.7l.6 5 1.4 2.4-1.3 5.7.5 3.2 1.5 4.1 1.3 2.3-8.9 3.7-3.2 2.2-5.1 1.9-5-1.8.2-2.6-2.4-5.5 1.5-7.3 2.4-5.3-1.5-9.2-.8-4.8.2-3.7 9.8-.3 2.5.5 1.8-1 2.6.5zm-65-9.2.3 2.4h.9l1.5-.9.9.2 1.6 1.7 2.4.5 1.5-1.4 1.9-.9 1.3-.9 1.1.2 1.3 1.4.6 1.8 2.3 2.7-1.1 1.6-.3 2.1 1.2-.6.7.7-.3 1.9 1.7 1.9-1.1.5-.5 2.2 1.3 2.6 1.4 5.2-2.1.7-.5.9.4 1.3-.4 2.8h-.9l-1.6-.2-1.1 2.6h-1.6l-1.1-1.4.4-2.6-2.4-3.9-1.4.7-1.3.2-1.5.3.1-2.3-.9-1.7.2-1.9-1.2-2.7-1.6-2.3h-4.5l-1.3 1.2-1.6.2-1 1.4-.6 1.7-3.1 2.9-2.4-3.8-2.2-2.5-1.4-.9-1.4-1.3-.6-2.8-.8-1.4-1.7-1.1 2.6-3.1 1.7.1 1.5-1 1.2-.1.9-.8-.4-2.1.6-.7.1-2.2 2.7.1 4.1 1.5 1.2-.1.4-.7 3.1.5.8-.4zm-29.9-4.5.8-2.9 6.1-.1 1.3-1.6 1.8-.1 2.2 1.6h1.7l1.9-1 1.1 1.8-2.5 1.5-2.4-.2-2.4-1.3-2.1 1.5h-1l-1.4.9-5.1-.1z" fill-rule="nonzero" stroke="#000" stroke-width=".2"/><path d="m724.15 420.767-.1 2.2-.6.7.4 2.1-.9.8-1.2.1-1.5 1-1.7-.1-2.6 3.1-2.9-2.6-2.4-.5-1.3-1.8.1-1-1.7-1.3-.4-1.4 3-1 1.9.2 1.5-.8 10.4.3zm141.1 66.3v7.7h-8.2l-1.9.3-1.1-.9 1.9-7.2 9.3.1z" fill-rule="nonzero" stroke="#000" stroke-width=".2"/><path d="m927.65 272.367 3.1 2.2 4.1-.4 4 .4v1.2l2.8-.8-.5 1.9-7.6.5-.1-1-6.6-1.3.8-2.7zm9.2-32.7-3.2-.2-2.7-.6-6.2 1.6 4 3.6-2.5 1.1h-2.9l-3.1-3.3-.9 1.4 1.6 3.8 2.9 3-1.9 1.4 3.2 2.9 2.8 1.9.4 3.6-5-1.7 1.8 3.3-3.3.6 2.5 5.7-3.5.1-4.6-2.8-2.4-5.1-1.3-4.3-2.3-2.9-3-3.7-.5-1.8 2.2-3.1.1-2.1 1.7-.9-.1-1.7 3.4-.5 1.8-1.4 2.8.1.8-1.1 1-.2 3.8.2 4-1.8 3.9 2.3 4.6-.6-.3-3.2 2.7 1.7-1.1 4-1.2.7z" class="highlight" fill-rule="nonzero" stroke="#000" stroke-width=".2"/><path d="m711.25 1.167 19.9 3-6.7 1.4-13 .2-18.5.4 1.4.7 12.3-.5 9.7 1.4 7-1.2 2.4 1.4-4.5 2.4 9.2-1.6 17.1-1.5 10 .8 1.7 1.7-14.8 2.9-2.2 1-11.4.8 8.1.2-4.9 3.2-3.6 2.9-1.2 5.2 3.7 3.2-5.9.1-6.5 1.6 6.3 2.6-.1 4.2-4.2.5 4.1 4.3-8.7.4 4 2-1.6 1.8-5.7.8-5.5.1 4.2 3.4-.5 2.4-7.3-2.2-2.4 1.4 5 1.3 4.6 3.2.6 4.3-7.4 1-2.7-2.1-4.2-3 .5 3.6-5.4 2.8 10.7.2 5.5.3-11.9 4.7-12.2 4.3-12.7 1.8-4.6.1-4.9 2.1-7.5 5.8-10.2 3.9-3 .3-6.1 1.3-6.6 1.4-4.8 3.4-1.4 4-3.4 3.8-8.6 4.6.3 4.5-3.6 4.8-4.1 5.7-6.5.4-5-4.8-9-.1-3.2-3.2-.8-5.6-4.8-7.2-.7-3.7 1.5-5.1-3.7-5.1 3.3-4.1-1.9-2 7-6.4 7.2-2.1 2.6-2.2 2.8-4.2-5.5 1.9-2.6.8-4.1.7-4.2-1.7 1.5-3.7 3-2.8 3.8-.1 7.6 1.5-5.3-3.4-2.7-1.8-4.4.7-2.6-1.3 7-4.8-1.3-2-1.1-3.5-1.4-5.4-3.6-1.9 1.4-2.1-8.1-2.9-7.7-.4-10.1.2-9.5.4-3.1-1.6-3.8-3.1 11-1.5 7.6-.2-14.6-1.3-6.5-1.9 2.2-1.8 15.7-2.2 15-2.2 2.8-1.6-8.1-1.6 4.6-1.7 14.7-2.9 5.4-.4.2-1.8 9-1.1 11-.6h10.4l2.8 1.2 10.6-2.2 7.1 1.5 4.6.3 6.2 1.3-6.7-2.1 1.6-1.7 12.7-2.2 11.6.2 5.1-1.4 11.9-.3 26.3.4zm-408.2 386.1-.7 5.1-1.3 7.2h1.7l1.7 1.2.6-1 1.5.8-2.8 2.5-2.9 1.8-.5 1.2.3 1.3-1.3 1.6-1.4.4.3.8-1.2.7-2 1.6-.3.9-2.8-1.1-3.5-.1-2.4-1.3-2.8-2.6.4-1.9.8-1.5-.7-1.2 3.3-5.2h7.2l.4-2.2-.8-.4-.5-1.4-1.9-1.5-1.8-2.1 2.5-.1.5-3.6h5.2l5.2.1zm174.8 76-1 5.8-3.5 1.6.3 1.5-1.1 3.4 2.4 4.6h1.8l.7 3.6 3.3 5.6-1.3.3-3.2-.6-1.8 1.7-2.6 1.1-1.8.3-.6 1.3-2.8-.3-3.5-3-.3-3-1.4-3.3 1-5.4 1.6-2.3-1.2-3-2-.9.8-2.9-1.2-1.4-3 .2-3.7-4.8 1.6-1.8v-3l3.5-1 1.4-1.2-1.8-2.4.5-2.3 4.7-3.8 3.6 2.4 3.3 4.1.1 3.4 2.1.1 3 3.1 2.1 2.3z" fill-rule="nonzero" stroke="#000" stroke-width=".2"/><path d="m334.55 405.267-1.9-.1-.9.9-2 .8h-1.4l-1.3.8-1.1-.2-.9-1-.6.2-.9 1.5-.5-.1-.2 1.4-2.1 1.7-1.2.8-.6.8-1.5-1.3-1.4 1.7h-1.2l-1.3.1-.2 3.2h-.8l-.8 1.5-1.8.3-.8-2-1.7-.6.7-2.6-.7-.7-1.2-.4-2.5.7-.1-.8-1.6-1.1-1.1-1.2-1.6-.6 1.3-1.6-.3-1.3.5-1.2 2.9-1.8 2.8-2.5.6.3 1.3-1.1 1.6-.1.5.5.9-.3 2.6.6 2.6-.2 1.8-.7.8-.7 1.7.3 1.3.4 1.5-.1 1.2-.6 2.5.9.8.2 1.6 1.2 1.5 1.4 1.9 1 1.3 1.7zm561.9-197.9 1.5 2.5 1.7 1.8-1.7 2.4-2.4-1.4-3.5.1-4.5-1.1-2.3.1-1 1.4-2-1.5-.8 2.6 2.7 3 1.3 1.9 2.5 2.4 2.1 1.4 2.1 2.7 4.8 2.4-.5 1-5-2.3-3.2-2.3-4.8-1.9-4.7-4.6 1-.5-2.5-2.7-.3-2.1-3.3-1-1.4 2.7-1.6-2.1v-2.2l.1-.1 3.6.2.8-1 1.8 1 2 .1-.1-1.7 1.7-.7.3-2.5 3.9-1.7 1.6.8 4 2.7 4.3 1.2 1.8-1zm-494.7 167.7.1 3.4-.7 2.5-1.5 1.1 1.3 1.9-.3 1.8-3.6-1.1-2.7.4-3.4-.4-2.7 1.2-2.8-2 .7-2.1 5.1.9 4.1.5 2.2-1.4-2.3-2.8.4-2.5-3.5-1 1.5-1.7 3.4.2 4.7 1.1z" fill-rule="nonzero" stroke="#000" stroke-width=".2"/><path d="m911.15 191.667 3 1.7.5 1.7-2.9 1.3-1.9 4.2-2.6 4.3-3.9 1.2-3.2-.3-3.7 1.6-1.8 1-4.3-1.2-4-2.7-1.6-.8-1.2-2.1-.8-.1 1.3-4-1.1-1.4h2.8l.2-2.6 2.7 1.7 1.9.6 4.1-.7.3-1.3 1.9-.2 2.3-.9.6.4 2.3-.8 1-1.5 1.6-.4 5.5 1.9 1-.6zm571.3 375.7-2.4.1-7.1-4.5 5.4-1.3 2.8 2 1.8 1.9-.5 1.8zm24.8-8.7.5 1.3-.1 1.9-4.1 4.8-5 1.4-.6-.7.7-2.2 2.8-3.9 5.8-2.6zm-39.6-5.1 1.9 1.7 3.6-.5 1.2 2.7-6.7 1.3-3.9.9-3.1-.1 2.2-3.7h3.2l1.6-2.3zm28.3 0-1.1 3.6-8.6 1.8-7.5-.8.2-2.4 4.6-1.3 3.4 1.9 3.8-.5 5.2-2.3zm-80.2-8.5 10.8.7 1.4-2.7 10.3 3.1 1.8 4.2 8.4 1.2 6.7 3.8-6.6 2.4-6.1-2.6-5.1.2-5.8-.5-5.2-1.1-6.4-2.5-4.1-.6-2.4.8-10.2-2.7-.8-2.7-5.1-.5 4.2-6.1 6.8.4 4.4 2.5 2.4.5.6 2.2zm147.9-3.6-3.2 4.4-.2-4.8 1.1-2.3 1.3-2.2 1.2 1.9-.2 3zm-41.4-17.7-2.2 2.2-3.8-1.2-1-2.8 5.7-.3 1.3 2.1zm18.4-2.3 1.8 4.9-4.6-2.7-4.7-.5-3.3.4-3.9-.2 1.5-3.5 7-.3 6.2 1.9z" fill-rule="nonzero" stroke="#000" stroke-width=".2"/><path d="m1600.45 518.267-1 20.9-1.6 21-4.6-5.3-5.6-1.3-1.5 1.8-7.2.2 2.8-5.2 3.7-1.8-1-7-2.3-5.3-10.7-5.5-4.6-.5-8.3-6-1.8 3.2-2.2.5-1.1-2.3.1-2.8-4.2-3.2 6.2-2.3 4 .1-.4-1.7h-8.3l-2.2-3.8-5-1.2-2.3-3.2 7.6-1.5 2.9-2.1 9.1 2.6.9 2.4 1.3 10.4 5.7 3.8 5-6.8 6.6-3.8h5l4.8 2.2 4.1 2.3 6.1 1.2zm-89.1-25.8-4.5 6.4-4.3 1.2-5.4-1.2-9.5.3-4.9.9-.8 4.9 5 5.7 3.1-2.9 10.6-2.2-.5 2.9-2.5-.9-2.5 3.8-5.1 2.5 5.1 8.2-1.1 2.2 4.8 7.4-.3 4.2-3.1 1.9-2.1-2.3 3-5.2-5.7 2.5-1.3-1.8.8-2.5-3.9-3.8.7-6.2-3.9 1.9.2 7.5-.2 9.2-3.7.9-2.3-1.8 1.9-5.9-.6-6.2-2.4-.1-1.6-4.4 2.5-4.2.9-5.1 3-9.7 1.1-2.6 4.8-4.8 4.5 1.9 7.1.9 6.5-.3 5.6-4.6 1 1.4zm19.6 1.9-.3 5.6-2.9-.7-.9 3.9 2.3 3.4-1.6.8-2.2-4.1-1.7-8.2 1-5.1 1.8-2.3.5 3.5 3.4.5.6 2.7zm-108-5.7 1 4.3 3.9 3.7 3.7-1.3 3.6.4 3.3-3.2 2.7-.6 5.4 1.8 4.6-1.4 2.6-8.9 2.1-2.2 1.7-7.3h6.5l5 1.1-3 5.8 4.4 6-.9 3 6.4 5.9-6.7.8-1.8 4.4.2 5.8-5.5 4.4-.4 6.4-2.5 9.8-.7-2.3-6.6 2.9-2.1-3.9-4-.4-2.8-2.1-6.8 2.4-1.9-3.2-3.8.4-4.6-.7-.6-8.6-2.8-1.8-2.7-5.5-.8-5.6.6-6 3.3-4.3zm-22.8 50.5-6.2.1-4.5-5.3-7.1-5.3-2.3-3.9-4.1-5.2-2.7-4.8-4.2-9-4.9-5.4-1.7-5.5-2.2-5-5.2-4-3.1-5.5-4.4-3.6-6.2-7.1-.6-3.3 3.6.3 8.9 1.2 5.2 6.3 4.6 4.4 3.2 2.6 5.5 6.9 5.8.1 4.8 4.4 3.4 5.4 4.3 3-2.3 5.2 3.3 2.2 2 .2.9 4.5 1.9 3.5 4.1.6 2.6 4.1-1.7 8-.7 9.9zm-157.6-231.4-2.8 3-.9 6 5.8 2.4 5.8 3.1 7.8 3.6 7.7.9 3.8 3.2 4.3.6 6.9 1.5 4.6-.1.1-2.5-1.5-4.1-.2-2.7 3.1-1.4 1.5 5.1.4 1.2 5.5 2.5 3.2-1 4.7.4 4.5-.2-.5-3.9-2.6-2.1 4.2-.8 3.9-4.8 5.4-4 4.9 1.5 3.2-2.7 3.6 4-1.2 2.7 6.1 1 1 2.4-1.7 1.2 1.4 3.9-4.2-1.1-6.2 4.4.9 3.7-2 5.4.3 3.1-1.6 5.3-4.6-1.5.9 6.7-1 2.2 1 2.7-2.5 1.5-4.4-10.2h-1.5l-.3 4.2-3.6-3.4 1.2-3.6 2.4-.4 1.6-5.4-3.4-1.1-5.1.1-5.4-.9-1.2-4.5-2.7-.3-4.9-2.8-1.2 4.4 4.6 3.4-3 2.4-.9 2.3 3.7 1.7-.3 3.9 2.6 4.8 1.6 5.3-.5 2.4-3.8-.1-6.6 1.3.9 4.8-2.4 3.8-7.5 4.4-5.3 7.5-3.8 4.1-5 4.2.3 2.9-2.6 1.6-4.8 2.3-2.6.3-1.2 4.9 1.9 8.4.7 5.3-1.9 6.1.7 10.9-2.9.3-2.3 4.9 1.9 2.2-5.1 1.8-1.7 4.3-2.2 1.9-5.6-6-3.1-9-2.5-6.5-2.2-3-3.4-6.2-2-8-1.4-4-5.9-8.8-3.5-12.5-2.6-8.2-.8-7.8-1.7-6-7.7 3.9-4-.8-8.1-7.8 2.4-2.3-1.9-2.5-7.1-5.5 3.2-4.3h12.1l-1.8-5.5-3.5-3.2-1.4-5-4-2.8 4.9-6.8 6.5.5 4.5-6.7 2.2-6.5 3.9-6.5-1-4.6 3.8-3.7-5.1-3.1-2.9-4.4-3.3-5.6 2-2.8 8.5 1.6 5.7-1 3.8-5.4 7.7 7.6.8 5.2 3 3.3.6 3.3-4.1-.9 3.2 7.1 6.2 4 8.6 4.5z" fill-rule="nonzero" stroke="#000" stroke-width=".2"/><path d="m771.65 157.967.7 4.4-3.9 5.5-8.8 3.6-6.8-.9 4.3-6.4-2.1-6.2 6.7-4.8 3.7-2.8.9 3.2-1.2 3.3 3-.1 3.5 1.2z" class="highlight" fill-rule="nonzero" stroke="#000" stroke-width=".2"/><path d="m1043.95 252.967 1.8-.2 5.3-4.7 1.9-.5 1.9 1.9-1.2 3.1 3.9 3.4 1.3-.4 2.5 4.8 5.3 1.3 4.3 3.2 7.7 1.1 8-1.7.2-1.5 4.4-1.2 3-3.7 3.6.2 2-1.2 3.9.6 6.6 3.3 4.3.7 7.3 5.6 4 .3 1.7 5.3-.6 8-.5 4.7 2.5 1-1.6 3.5 2.7 5.1 1.2 4.1 4.3 1.1 1.1 4.1-3.9 5.8 3.2 3.4 2.8 3.9 5.7 2.8 1 5.6 2.7 1.1.9 2.9-7.5 3.4-1.1 7.4-10.6-1.9-6.2-1.5-6.3-.8-3.3-7.9-2.8-1.1-4.1 1.1-5.1 3.1-7-2.1-6.1-5-5.5-1.8-4.4-6.1-5.2-8.5-2.8 1-3.7-2.1-1.7 2.5-3.5-3.4-.5-3.4h-1.7l.2-4.7-3.5-4.8-7.1-3.6-4.6-6.1.5-5 2.3-2.2-.9-3.7-3.8-2-4.7-7.6-3.8-5.1.7-2-2.9-7.3 3.3-1.9 1.2 2.5 3.2 2.9 3.8.9z" fill-rule="nonzero" stroke="#000" stroke-width=".2"/><path d="m1038.45 262.967 4.7 7.6 3.8 2 .9 3.7-2.3 2.2-.5 5 4.6 6.1 7.1 3.6 3.5 4.8-.2 4.7h1.7l.5 3.4 3.5 3.4-3.3-.3-3.7-.6-3.3 6.2-10.2-.5-16.8-12.9-8.6-4.5-6.8-1.8-3.1-7.8 11-6.7 1-7.7-1.2-4.7 2.7-1.6 2.1-4 2.1-1 6.3.9 2.1 1.6 2.4-1.1zm-298.7-178.7-1.4 3.6 4.4 3.8-6.1 4.3-13.1 3.9-3.9 1.1-5.6-.9-11.9-1.8 4.8-2.5-9-2.7 7.9-1.1.1-1.7-8.8-1.3 3.6-3.7 6.6-.8 6 3.8 7-3 5.1 1.5 7.3-2.9 7 .4zm254.3 203.7.4 2.6-.6 1h.1l-.7 2-2.1-.8-.7 4.2 1.5.7-1.3.9-.1 1.7 2.5-.8.4 2.5-1.8 10.2-.7-1.6-3.9-9.4 1.4-2.1-.4-.4 1.1-3 .6-4.8.6-1.7h1.9l.4-1.1 1.4-.1z" fill-rule="nonzero" stroke="#000" stroke-width=".2"/><path d="m883.15 256.167-1.7 5.1.9 1.9-.9 3.3-4.2-2.4-2.7-.7-7.5-3.2.5-3.3 6.2.6 5.4-.7 4-.6zm-34-19 3.3 4.5-.4 8.5-2.4-.4-2.1 2.1-2-1.7-.5-7.7-1.3-3.6 2.9.3 2.5-2z" class="highlight" fill-rule="nonzero" stroke="#000" stroke-width=".2"/><path d="m870.85 203.667-.4 3.1 1.4 2.7-4.1-1-3.9 2.3.4 3.1-.5 1.8 1.9 3.2 5 3.2 2.9 5.3 6.1 5.1 4-.1 1.4 1.4-1.4 1.3 4.8 2.3 4 1.9 4.7 3.4.6 1.1-.8 2.3-3.1-3-4.6-1-1.9 4.1 3.9 2.4-.4 3.3-2.1.4-2.5 5.5-2.2.5-.1-2 .9-3.4 1.1-1.4-2.3-3.7-1.8-3.2-2.2-.8-1.8-2.7-3.4-1.2-2.4-2.6-3.8-.4-4.3-2.8-4.9-4.2-3.7-3.6-1.9-6.3-2.6-.7-4.2-2.1-2.3.8-2.9 3-2.1.4.5-2.7-2.8-.8-1.5-4.9 1.7-1.9-1.5-2.4.1-1.8 2.2 1.4 2.5-.3 2.7-2.2.9 1 2.4-.2 1-2.5 3.8.8 2.1-1.1.3-2.5 3.1.9.5-1.2 4.9-1.1 1.3 2.1 7.3 1.7z" class="highlight" fill-rule="nonzero" stroke="#000" stroke-width=".2"/><path d="m371.45 386.867-1.8 1.1-3-1.1-2.9-2.3.8-1.5 2.4-.4 1.3.2 3.7.6 2.7 1.5.8 1.8-4 .1zm641.6-91.8-.9 1-10.4 3.2 6 6.5-1.6 1-.7 2.2-4.1.9-1.1 2.3-2.1 2-6.2-1.1-.3-.9 1.8-10.2-.4-2.5.6-1.9-.4-4 .7-2 6.3 2.6 9.7-6.9 3.1 7.8zm510.4-12.7 1.6 2.2-1.3 3.9-3.1-2.1-2.1 1.5.1 3.7-4.3-1.8-1.2-3 1.3-3.9 3.4.8 1-2.7 4.6 1.4z" fill-rule="nonzero" stroke="#000" stroke-width=".2"/><path d="m1548.05 263.167.6 5.1 2.5 3.2-.6 4.5-5.4 3-9.2.4-4.4 7.4-4.7-2.5-2.4-4.8-8.6 1.4-5.1 3-6.2.2 7.4 4.7.8 10.9-2.5 2.7-3.6-2.5-.9-5.8-4.1-1.8-4-4.4 4.3-2 1.1-4.1 3.9-3.3 2-4.4 9.7-1.9 6.3 1.3v-11.4l5.1 3.1 4.5-6.4 1.7-2.5-1-7.8-5.1-7.2-.2-4 4.8-1.2 8.2 8.9 2.8 5.1-1.3 6.5 3.6 6.6zm-11.9-44.8 4.5 1.3 1.8-2.6 6 7.1-6.4 1.7-.4 6.3-10.9-4.3 1.6 6.9-5.7.1-4.7-6.3-.6-4.9 5.2-.3-4.4-8.8-1.8-4.9 10.5 6.6 5.3 2.1z" class="highlight" fill-rule="nonzero" stroke="#000" stroke-width=".2"/><path d="m1153.25 160.267 4.4-.3 9.2-5.8-.8 2 8.4 4.7 18.3 15.6 1.1-3.2 8.4 3.5 6.2-1.6 3.3 1.1 4.1 3.6 4 1.2 3.3 2.7 6-.9 4.4 3.8-1.9 4.2-3.8.6 2.5 6.2-1.6 2.9-10.8-2.1 1 11.3-2 1.4-9.1 2.5 8.8 11-2.9 1.6 1.7 3.7-3.5-1-3.4-2.3-7.9-.6-8.6-.2-1.6.7-8.2-2.7-2.5 1.4.5 3.7-9.2-2.2-3.1.9-.3 2.8-2.6 1.2-5.4 4.4-.9 4.6h-2l-2.3-3-6.7-.2-2.5-5.2-2.6-.1-1.5-6.4-7.6-4.6-8.6.5-5.7.9-6.6-5.7-4.8-2.4-9.2-4.5-1.1-.5-12 3.7 6.2 23.4-2.6.3-4.8-5-3.9-1.8-5.6 1.3-1.8 2.2-.6-1.6.6-2.6-1.5-2.2-6.5-2.2-3.7-5.7-3.2-1.6-.6-2.1 5.1.6-1-4.6 4.1-1 4.7.9-.7-6.1-1.9-3.9-5 .3-4.7-1.5-5.1 2.7-4.4 1.4-2.8-1.1-.2-3.2-4.3-4.2-3.6.2-5.3-4.2 1.7-4.8-1.8-1.2 2.2-6.9 6 3.6-.6-4.5 8.1-6.7 7.6-.2 12 4.3 6.6 2.5 4.4-2.6 7.7-.1 7.3 3.2.8-1.9 7 .3.2-2.9-9.4-4.3 3.5-3-1.5-1.6 4-1.6-5.1-4.2 1.4-2.1 17-2.1 1.7-1.5 10.9-2.3 3.1-2.5 9.1 1.3 4.4 6.3 4.3-1.5 7.1 2.1 1.1 3.3zm-114.8 316.2-4.9 7.2.2 23.4 3.3 5.3-4 2.6-1.4 2.7-2.2.4-.8 4.6-1.9 2.6-1.1 4.2-2.3 2.1-8.1-6.4-.3-3.7-20.5-13.1.4-4.7-1.4-2.5v-.3l1.6-2.6 2.8-4.2 2.1-4.7-2.6-7.4-.7-3.2-2.7-4.5 3.4-3.8 3.8-4.2 2.9 1.1.1 3.6 1.9 2.1h4l7.2 5.4 1.8.1 1.3-.2 1.3.7 3.8.6 1.6-2.7 5.2-2.7 2.3 2.2h3.9z" fill-rule="nonzero" stroke="#000" stroke-width=".2"/><path d="m1215.45 229.967-.2 1.4-6.9 3.4-1 2.6-6.4.7-.6 4.1-5.8-.9-3.2 1.3-4.1 3 1.2 1.5-1.1 1.4-9.6 1-7.1-2.1-5.5.5-.6-3.6 6 1 1.4-1.9 4.1.6 5.3-4.6-7.2-3.4-3.2 1.6-4.6-2.4 3-4.1-1.7-.6.3-2.8 3.1-.9 9.2 2.2-.5-3.7 2.5-1.4 8.2 2.7 1.6-.7 8.6.2 7.9.6 3.4 2.3 3.5 1zm189.3 180.4 1.8 4.3.1 7.7-9 5 2.8 3.8-5.9.5-4.6 2.6-4.8-.9-2.6-3.4-3.5-6.6-2.1-7.8 3.1-5.3 7.1-1.2 5.3.9 5 2.5 2-4.4 5.3 2.3zm63.1-151.1v-.6l2.5.2.6-2.8 3.6-.4 2-.4v-1.5l8.3 7.5 3.3 4.2 3.4 7.4-.5 3.5-4.3 1.2-3.1 2.7-4.6.5-2.1-3.5-1.1-4.8-5.3-6.6 3.4-1.1-6.1-5.5zm-405.4 49.9 1.5 2.8-.3 1.5 2.4 4.8-3.9.2-1.7-3.1-5-.6 3.3-6.2 3.7.6z" fill-rule="nonzero" stroke="#000" stroke-width=".2"/><path d="m1404.75 410.367-5.3-2.3-2 4.4-5-2.5 1.5-2.9-.4-5.4-5.3-5.6-1.3-6.4-5-5.2-4.3-.4-.8 2.2-3.2.2-1.9-1.1-5.3 3.8-1-5.8.4-6.7-3.8-.3-.9-3.9-2.7-2 .8-2.3 4.1-4.2.8 1.5 3 .2-2-7.4 2.7-.9 4 5.1 3.5 5.8h6.8l3 5.6-3.3 1.7-1.2 2.3 7.3 3.9 5.7 7.6 4.4 5.6 4.9 4.5 2 4.5-.2 6.4zm-410.7-122.4-1.4.1-.4 1.1h-1.8l1.3-5.3 2.2-4.5v-.2l2.5.3 1.2 2.5-2.7 2.5-.9 3.5zm-240.5 164.3-.2 1.8.5 3.1-1.2 2.9 1.6 1.8 1.8.4 2.4 2.7.2 2.5-.6.8-.4 5.3-1.5.1-5.8-3.1-5.2-4.9-4.8-3.5-3.8-4.1 1.4-2.1.3-1.9 2.6-3.4 2.6-3 1.3-.2 1.4-.7 2.4 3.9-.4 2.6 1.1 1.4h1.6l1.1-2.6 1.6.2zm184-153.4-1.7 3.1 1 2.8-1.1 3.9 2 5.2 1.3 22.8 1 23.7.5 12.8h-6.4v2.7l-22.6-12.3-22.5-12.3-5.5 3.5-3.8 2.4-3.2-3.5-8.8-2.8-2.5-4-4.5-3-2.5 1.2-2.1-3.6-.2-2.7-3.4-4.7 2.2-2.7-.6-4 .6-3.5-.4-3 .8-5.2-.4-3-1.9-5.7 2.6-1.4.4-2.8-.6-2.6 3.6-2.5 1.6-2.1 2.6-1.8.1-4.9 6.4 2.2 2.3-.6 4.5 1.1 7.3 2.9 2.8 5.7 4.9 1.2 7.8 2.7 6 3.2 2.5-1.7 2.5-2.9-1.6-4.9 1.5-3.2 3.7-3 3.7-.8 7.4 1.3 2 2.8 2 .1 1.8 1.1 5.4.7 1.5 2.1zm323.3 162.9-4.8 1.5-2.9-5.1-1.4-9.2 2-10.4 4.1 3.5 2.8 4.5 3.1 6.7-.6 6.7-2.3 1.8zm-306.8 235.9-2 .7-3.7-5 3.2-4 3.1-2.5 2.7-1.4 2.2 2 1.7 2-1.9 3.1-1.1 2.1-3.1 1-1.1 2z" fill-rule="nonzero" stroke="#000" stroke-width=".2"/><path d="m926.05 147.367 1 2.7-3.6 2-.5 3.4-4.8 2.3h-4.7l-1.4-1.9-2.5-.7-.6-1.5.2-1.7-2.2-.9-5.1-1.1-1.7-5.1 5.1-1.8 7.9.4 4.5-.6.9 1.2 2.5.4 5 2.9zm-94.2 37.8-1.4.1-1.1-.5.4-3.5 1.3-.2 1 1.4-.2 2.7z" class="highlight" fill-rule="nonzero" stroke="#000" stroke-width=".2"/><path d="m927.75 136.267 2.5 1.3 1 2.9 2.1 3.6-4.6 2.3-2.7 1-5-2.9-2.5-.4-.9-1.2-4.5.6-7.9-.4-5.1 1.8-.5-4.5 1.7-3.8 4.1-2 4.4 4.5 3.7-.2.1-4.6 3.8-1 2.1.7 4.4 2.2 3.8.1z" class="highlight" fill-rule="nonzero" stroke="#000" stroke-width=".2"/><path d="m789.75 275.767 1.9 4.1.3 3.9 1.9 6.8 1.4 1.4-1 2.5-7.1 1.1-2.5 2.3-3.1.6-.3 4.8-6.4 2.5-2.1 3.2-4.5 1.7-5.4 1-8.9 4.8-.1 7.6h-.9l.1 3.4-3.4.2-1.8 1.5h-2.5l-2-.9-4.6.7-1.9 5-1.8.5-2.7 8.1-7.9 6.9-2 8.9-2.4 2.9-.7 2.3-12.5.5h-.1l.3-3 2.2-1.7 1.9-3.4-.3-2.2 2-4.5 3.2-4.1 1.9-1 1.6-3.7.2-3.5 2.1-3.9 3.8-2.4 3.6-6.5.1-.1 2.9-2.5 5.1-.7 4.4-4.4 2.8-1.7 4.7-5.4-1.2-7.9 2.2-5.6.9-3.4 3.6-4.3 5.4-2.9 4.1-2.7 3.7-6.6 1.8-4 3.9.1 3.1 2.7 5.1-.4 5.5 1.4h2.4zm154.6-65.7-1.3-2.9.2-2.7-.6-2.7-3.4-3.8-2-2.6-1.8-1.8-1.6-.7 1.1-.9 3.2-.6 4 1.9 2 .3 2.6 1.7-.1 2.1 2 1 1.1 2.6 2 1.6-.2 1 1 .6-1.3.5-3-.2-.6-.9-1 .5.6 1.1-1.1 2.1-.6 2.1-1.2.7zm138.5 378.6.4 7.7 1.3 3-.7 3.1-1.2 1.8-1.6-3.7-1.2 1.9.8 4.7-.7 2.8-1.7 1.4-.7 5.5-2.7 7.5-3.4 8.8-4.3 12.2-2.9 8.9-3.1 7.5-4.6 1.5-5.1 2.7-3-1.6-4.2-2.3-1.2-3.4v-5.7l-1.5-5.1-.2-4.7 1.3-4.6 2.6-1.1.2-2.1 2.9-4.9.8-4.1-1.1-3-.8-4.1-.1-5.9 2.2-3.6 1-4.1 2.8-.2 3.2-1.3 2.2-1.2 2.4-.1 3.4-3.6 4.9-4 1.8-3.2-.6-2.8 2.4.8 3.3-4.4.3-3.9 2-2.9 1.8 2.8 1.4 2.7 1.2 4.3zm-818.6-253 2.2-.2-3.2 5.7-1.8 4.6-1.8 8.6-1.1 3.1.4 3.5 1.3 3.2.4 4.9 3 4.8.8 3.7 1.7 3.1 5.7 1.7 1.9 2.7 5.2-1.8 4.3-.6 4.4-1.2 3.6-1.1 3.9-2.6 1.8-3.7 1.2-5.4 1.2-1.9 4-1.7 6.1-1.5 4.9.3 3.4-.6 1.2 1.4-.6 3.1-3.5 3.8-1.8 3.9.9 1.1-1.2 2.8-2.1 5-1.2-1.7-1.1.1-1.1.1-2.5 3.9-.9-.8-.7.3-.1 1-5.2-.1h-5.2l-.5 3.6-2.5.1 1.8 2.1 1.9 1.5.5 1.4.8.4-.4 2.2h-7.2l-3.3 5.2.7 1.2-.8 1.5-.4 1.9-5.6-6.9-2.6-2.1-4.4-1.7-3.2.5-4.8 2.4-2.9.6-3.7-1.7-4.1-1.2-4.8-2.9-4.1-.9-5.9-3-4.3-3.1-1.1-1.7-3.1-.4-5.4-2-1.9-2.9-5.4-3.7-2.2-4-.8-3.2 1.9-.6-.3-1.8 1.6-1.7.4-2.2-1.5-2.9v-2.5l-1.3-3.3-3.8-6.4-4.6-5-1.9-4-4.1-2.6-.7-1.6 1.7-3.9-2.4-1.5-2.5-3.2-.2-4.4-2.8-.6-2.3-3.3-1.7-3.2.3-2-1.5-4.8-.3-4.9.8-2.5-3.1-2.6-1.9.3-2.4-1.7-1.8 2.6-.1 3-1 4.9 1 2.6 2.8 4.4.4 1.6.7.4.1 2.2 1-.1v4.2l1.3 1.6.5 2.3 2.7 3.2.4 6 1 2.8.9 3-.3 3.4 2.6.2 1.6 2.9 1.5 2.9-.3 1.2-2.8 2.3h-1l-.7-3.9-2.9-3.7-3.4-3.1-2.5-1.6 1.2-4.7-.1-3.5-2.1-2-3.1-2.8-.9.8-1-1.7-3-1.5-2.2-3.8.5-.4 2.1.3 2.7-2.4 1-2.9-2.9-4.6-2.6-1.7-.8-4-.6-4.3-.8-5.1-.2-5.8 6.3-.5 7.1-.7-.9 1.3 7 3.1 10.9 4.5h15.1l.8-2.7h9.4l1.3 2.3 2.1 2.1 2.4 2.8.8 3.3.4 3.6 2.3 1.9 4 1.9 4.8-5 4.5-.2 3.2 2.6 1.6 4.4.9 3.8 2.4 3.6.2 4.5.9 3 3.9 2 3.6 1.4zm656.2-99.3-1 .2-.8 1.1-2.8-.1-1.8 1.4-3.4.5-2.3-1.5-1-2.7.5-2.2.7.1.1-1.3 2.9-1 1.2-.3 1.7-.3 2.4-.2 2.8 2.1.8 4.2zm-95.3 142.2.1 14.8-3.1 4.3-.4 4-5 1-7.7.5-2 2.3-3.6.3h-3.6l-1.4-1.2-3.1.9-5.3 2.7-1.1 2-4.3 2.8-.8 1.7-2.4 1.3-2.7-.9-1.5 1.6-.9 4.4-4.5 5.3.2 2.2-1.6 2.7.4 3.7-2.4 1-1.3.8-.9-2.7-1.6.7-1-.1-1 1.8h-4.4l-1.5-1-.8.6-1.7-1.9.3-1.9-.7-.7-1.2.6.3-2.1 1.1-1.6-2.3-2.7-.6-1.8-1.3-1.4-1.1-.2-1.3.9-1.9.9-1.5 1.4-2.4-.5-1.6-1.7-.9-.2-1.5.9h-.9l-.3-2.4.3-2-.5-2.4-2-1.8-1.1-3.7-.2-4 1.9-1.2 1-3.8 1.8-.1 3.9 1.8 3.2-1.3 2.1.4.9-1.4 22.5-.1 1.3-4.5-1-.8-2.5-27.7-2.4-27.7 8.5-.1 18.6 14 18.7 14 1.3 3 3.5 1.8 2.6 1.1.1 4.1 6.2-.7zm538.2-14.6-4.1 4.2-.8 2.3-3 1.5-2.8 2.8-3.9.3-1.5 6.9-2.2 1.2 3.5 5.6 4.1 4.7 2.9 4.3-1.4 5.5-1.8 1.2 1.8 3.2 4.3 5.1 1 3.6.2 3 2.7 5.9-2.6 6-2.2 6.6-.9-4.8 1.3-4.9-2.2-3.8-.2-7-2.6-3.4-2.7-7.6-2-8.1-3.1-5.4-3.2 3.3-5.8 4.5-3.3-.5-3.6-1.5.9-8-2-6-5.3-7.4.3-2.3-3.4-.9-4.6-5.2-1.1-5.2 2.1 1-.6-4.6 2.5-1.5-1-2.7 1-2.2-.9-6.7 4.6 1.5 1.6-5.3-.3-3.1 2-5.4-.9-3.7 6.2-4.4 4.2 1.1-1.4-3.9 1.7-1.2-1-2.4 3.1-.5 2.7 3.8 2.7 1.5 1.3 4.9.9 5.3-4.2 5.4.7 7.6 5.6-1.1 2.4 5.9 3.7 1.3-.8 5.3 4.5 2.4 2.6 1.2 3.8-1.9.5 2.7z" fill-rule="nonzero" stroke="#000" stroke-width=".2"/><path d="m905.55 226.967-.8 1.4-1.4.6-.4-1.2-1.9 3.1.5 2.1-1.1-.5-1.7-2.1-2.3-1.3.5-1 .4-3.5 1.6-1.5.9-.6 1.4 1.1.9.9 1.7.7 2.1 1.3-.4.5z" class="highlight" fill-rule="nonzero" stroke="#000" stroke-width=".2"/><path d="m1311.15 181.267 4-1.2 5.7-.8 5.4.9 6.6 2.9 4.9 3.2h4.6l6.8 1 3.6-1.6 5.9-1 4.4-4.4 3.4.7 3.9 2.1 5.6-.6.6 4.7.3 6.3 2.8 2.5 2.3-.8 5.5 1 2.5-2.3 5.2 2 7.2 4.4.8 2.2-4.4-.7-6.8.8-2.5 1.8-1.3 4.2-6.4 2.4-3.2 3.4-5.9-1.3-3.2-.6-.5 4.1 2.9 2.4 1.9 2.1-2.4 2.2-2 3.4-4.9 2.2-7.6.2-7.2 2.2-4.4 3.4-3.3-1.9h-6.2l-9.4-3.9-5.6-.9-6.4.9-11.3-1.5-5.6.2-4.7-3.8-5-5.8-3.4-.7-8-4-7.2-.8-6.5-1.1-3-2.8-1.4-7.3-5.8-5.1-8.2-2.3-5.7-3.3-3.3-4.4 4.7-1.1 6.7-5.3 5.9-2.9 5.3 1.9 5.2.1 4.8 2.9 5 .2 8 1.6 2.4-4.4-4-3.6 1.3-6.4 7 2.5 4.8.8 6.7 1.6 3.6 4.6 8.5 2.6zm-329.5 492h-4.1l-.3-2.9-.6-2.9-.4-2.3 1.4-7.1-1.1-4.6-2.2-9 6.2-7.3 1.7-4.6.8-.6.9-3.8-.8-1.9.4-4.8 1.3-4.4.4-8.2-2.8-2-2.7-.5-1.1-1.6-2.6-1.3-4.7.1-.2-2.4-.4-4.6 17.2-5.3 3.2 3.1 1.5-.6 2.2 1.6.2 2.6-1.3 3 .2 4.5 3.5 4 1.9-4.5 2.5-1.3-.1-8.3-2.2-4.6-1.9-2.1h-.4l-.6-7.3 1.5-6.1 2.2-.2 6.7 1.8 1.5-.8 3.9-.2 2.1-1.9 3.4.1 6.2-2.5 4.6-3.7.9 2.8-.5 6.4.5 5.7-.2 10 .8 3.1-1.9 4.6-2.4 4.5-3.7 4-5.3 2.4-6.5 3.1-6.6 6.9-2.2 1.2-4.2 4.6-2.3 1.4-.8 4.6 2.4 4.9.9 3.7v2l1-.4-.5 6.3-1.1 3 1.2 1.1-1 2.7-2.4 2.3-4.7 2.1-6.9 3.5-2.5 2.4.3 2.7 1.3.4-.7 3.4zm-207.5-332-8.5.1 2.4 27.7 2.5 27.7 1 .8-1.3 4.5-22.5.1-.9 1.4-2.1-.4-3.2 1.3-3.9-1.8-1.8.1-1 3.8-1.9 1.2-3.6-4.4-3.4-4.8-3.6-1.7-2.7-1.8h-3.1l-2.8 1.4-2.7-.5-2 2-.4-3.4 1.6-3.2.8-6-.4-6.4-.6-3.2.6-3.2-1.4-3-2.8-2.8 1.3-2.1h21.7l-.9-9.3 1.5-3.3 5.2-.5.2-16.5 18 .4.2-9.8 20.5 15.6z" fill-rule="nonzero" stroke="#000" stroke-width=".2"/><path d="M997.25 588.667h.4l1.9 2.1 2.2 4.6.1 8.3-2.5 1.3-1.9 4.5-3.5-4-.2-4.5 1.3-3-.2-2.6-2.2-1.6-1.5.6-3.2-3.1-2.9-1.6 2-6 1.8-2.2-.9-5.4 1.3-5.2 1-1.7-1.3-5.4-2.6-2.9 5.5 1.2 1 1.7-.1.8 1.8 4.1.2 7.7-1.8 3.6 1.6 4.7-.2 2.8 1.2 1.9-.1 2.4.9 1.4 1-1.6 1.9 2.5.2-.8-1-3.4-1.1-.3-.1-.9zm382-127 1.4.6 3.5 3.9 2.5 4.3.6 4.3-.5 2.9.6 2.2.5 3.8 2.1 1.8 2.3 5.7v2.1l-4 .5-5.5-4.8-6.8-5.1-.8-3.3-3.4-4.3-1-5.3-2.2-3.5.4-4.7-1.4-2.7.9-1.1 4.8 2.8.6 3.3 3.7-.8 1.7-2.6zm89.8 13.4-5-1.1h-6.5l-1.7 7.3-2.1 2.2-2.6 8.9-4.6 1.4-5.4-1.8-2.7.6-3.3 3.2-3.6-.4-3.7 1.3-3.9-3.7-1-4.3 4.2 2.2 4.3-1.2 1-5.4 2.4-1.2 6.8-1.4 3.8-5.1 2.6-4 2.8 3.3 1.1-2.2 2.7.2.1-4.1.1-3.2 4.1-4.4 2.6-5 2.3-.1 3.1 3.3.4 2.8 3.8 1.8 4.8 1.9-.2 2.5-3.8.3 1.1 3.2-4 2.2zm-537.9 139 4.6-1.4 3.6.3 2.2 1.5v.5l-3.2 1.5h-1.7l-3.7 2.5-2-2.7-8.7 2.3-4.2.2-.8 22.9-5.5.2-.6 18.7-1.1 23.7-5 3.3-2.9.5-3.4-1.2-2.5-.5-.8-2.7-2-1.8-2.8 3.2-3.9-4.9-2-4.6-1-6.3-1.2-4.6-1.6-9.9.1-7.7-.6-3.5-2.1-2.7-2.8-5.3-2.8-7.7-1.1-4-4.4-6.3-.3-4.9 2.7-1.2 3.4-1.1 3.6.2 3.3 2.9.8-.5 22.7-.2 3.8 3 13.5.9 10.4-2.6zm-47.6-259.3 1.6 10 2.2 1.7.1 2 2.4 2.2-1.2 2.8-1.8 13-.2 8.4-7 6-2.3 8.5 2.4 2.4v4.1l3.7.1-.6 3.1-1.5.3-.2 2.1-1 .1-3.9-7-1.4-.3-4.3 3.6-4.4-1.9-3-.3-1.6.9-3.3-.2-3.3 2.7-2.9.2-6.8-3.3-2.7 1.5-2.9-.1-2.1-2.4-5.6-2.4-6.1.8-1.4 1.3-.8 3.7-1.6 2.6-.4 5.8-4.3-3.7h-2l-1.9 1.9.1-4.4-6.5-1.5-.2-3.1-3.1-4.2-.8-2.9.5-3.1 3.6-.3 2-2.3 7.7-.5 5-1 .4-4 3.1-4.3-.1-14.8 7.8-2.8 16-12.6 18.8-12.3 8.8 2.8 3.2 3.5 3.8-2.4z" fill-rule="nonzero" stroke="#000" stroke-width=".2"/><path d="m881.15 421.467 2.3 2.5-.6 1.2-.3 2.1-4.7 5-1.4 4.1-.8 3.3-1.2 1.5-1.1 4.5-3 2.6-.8 3.2-1.3 2.6-.5 2.7-3.9 2.2-3.2-2.7-2.1.1-3.4 3.8h-1.6l-2.7 6.2-1.4 4.6-5.9 2.3-2.1-.3-2.2 1.4-4.5-.1-3.1-4.1-1.9-4.6-4-4.2h-9.2l.3-10.3-.2-4.1 1.1-4 1.7-2 2.8-4-.6-1.7 1.1-2.6-1.3-3.8.2-2.1.4-5.8 1.6-2.6.8-3.7 1.4-1.3 6.1-.8 5.6 2.4 2.1 2.4 2.9.1 2.7-1.5 6.8 3.3 2.9-.2 3.3-2.7 3.3.2 1.6-.9 3 .3 4.4 1.9 4.3-3.6 1.4.3 3.9 7 1-.1zm-546.6-16.2-.5.7-.5 1.4.4 2.3-1.5 2.2-.8 2.6-.5 2.8.2 1.7-.1 2.9-.9.6-.7 2.8.2 1.7-1.2 1.6.1 1.7.8 1.1-1.4 1.4-1.7-.5-.8-1.3-1.8-.5-1.3.8-3.6-1.7-.9.8-1.8-2-2.5-2.6-1.1-2.1-2.2-2.1-2.5-2.9.7-1 .8 1 .5-.4 1.8-.3.8-1.5h.8l.2-3.2 1.3-.1h1.2l1.4-1.7 1.5 1.3.6-.8 1.2-.8 2.1-1.7.2-1.4.5.1.9-1.5.6-.2.9 1 1.1.2 1.3-.8h1.4l2-.8.9-.9 1.9.1zm594.1-338-6.4 2.1-3.2.5.8-3.8-5.8-2.1-5.9 1.8-1.1 4-3.4 2.4-4.7-1.3-5.3.2-5.1-2.8-2.2 1.4-2.6.2.1 3.6-8-.9-.6 3.1h-4l-2.3 3.9-3.4 6.1-5.7 7.9 1.8 2-1.3 2.2-4.3-.1-2.4 5.4 1 7.7 3.1 2.9-.8 6.9-3.4 4-1.8 3.4-3.3-3.6-8.6 6.8-6.1 1.4-6.5-3-1.8-6.3-2-13.5 4-3.7 11.3-4.9 8.1-5.9 7.2-7.8 8.9-10.7 6.4-4.1 10.3-6.8 8.5-2.4 6.7.3 5.2-4.4 7.4.2 7-1 13.7 3.9-4.9 1.4 5.4 3.4zm-37.1-42.3-7.6 1.9-6.8-1.1 2.2-1.2-2.6-1.5 7.3-.9 1.9 1.7 5.6 1.1zm-25.6-8.5 12.6 3.4-8.6 1.8-1.2 3.4-3 .9-.9 4-4.4.2-8.5-2.9 3-1.7-5.7-1.4-7.7-3.9-3.2-3.5 9.3-1.6 2.3 1.5h5l1-1.5 5.2-.2 4.8 1.5zm24.4-3 7.4 1.5-4.4 2.4-10.1.5-10.7-.8-1-1.2h-5.1l-4.3-2 10.5-1.2 5.4 1 3.1-1.3 9.2 1.1zm393.6 309.2.2 2.7 1.5 4.1-.1 2.5-4.6.1-6.9-1.5-4.3-.6-3.8-3.2-7.7-.9-7.8-3.6-5.8-3.1-5.8-2.4.9-6 2.8-3 1.9-1.5 4.8 2 6.4 4.2 3.3.9 2.5 3.1 4.5 1.2 5 2.9 6.5 1.4 6.5.7zm-185.2 72-2.2-4.5-5.2-10.6 16.3-6.4 2.6-12.8-3-4.6v-2.6l1.3-2.6-.2-2.6 2.4-1.3-1.1-.9v-4.2h2.8l3 4.4 3.3 2.3 4.1.9 3.4 1.1 2.9 3.7 1.7 2.1 2 .9.2 1.4-1.7 3.8-.7 1.8-2.2 2.1-1.7 4.4-2.5-.4-1 1.6-.7 3.2 1.1 4.3-.5.8h-2.5l-3.3 2.4-.3 3.1-1.2 1.4-3.5-.1-2 1.6.2 2.6-2.6 1.8-3.1-.6-3.6 2.2-2.5.3zm12.4-58.2-1.3-2.2 1.4-2.1.7.5-.2 2.7-.6 1.1zm105.4-62.8-3.8 5.4-5.7 1-8.5-1.6-2 2.8 3.3 5.6 2.9 4.4 5.1 3.1-3.8 3.7 1 4.6-3.9 6.5-2.2 6.5-4.5 6.7-6.5-.5-4.9 6.8 4 2.8 1.4 5 3.5 3.2 1.8 5.5h-12.1l-3.2 4.3-4.2-1.6-2.2-4.6-4.9-4.9-10 1.2-9 .1-7.6.9 1.1-7.4 7.5-3.4-.9-2.9-2.7-1.1-1-5.6-5.7-2.8-2.8-3.9-3.2-3.4 9.6 3.3 5.3-1 3.4.8.9-1.4 3.9.6 6.6-2.7-.8-5.4 2.3-3.7h4.1l.2-1.7 4-.9 2.1.6 1.8-1.8-1.1-3.9 1.4-3.8 3.1-1.7-3.1-4.2 5.2.2.9-2.3-.8-2.5 2-2.7-1.4-3.2-1.9-2.7 2.4-2.8 5.3-1.3 5.9-.8 2.4-1.1 2.9-.8 4.7 3 2.9 5 9.5 2.5zm-852.3 172.3-.7.9 1.1 3.8-1.1 1.9-1.8-.5-.9 3.1-1.8-1.8-1-3.5 1.4-1.7-1.4-.4-.9-2.1-2.8-1.8-2.4.4-1.3 2.2-2.4 1.6-1.2.2-.6 1.4 2.5 3.5-1.6.8-.8.9-2.7.4-.8-3.9-.8 1.1-1.8-.4-1-2.5-2.3-.5-1.5-.7h-2.4l-.2 1.4-.6-1 .3-1.3.6-1.3-.2-1.1.9-.8-1.1-.9.1-2.6 2.2-.6 1.9 2.3-.2 1.4 2.2.3.6-.6 1.5 1.6 2.8-.5 2.5-1.6 3.5-1.3 2-1.9 3.1.4-.2.6 3.1.2 2.4 1.2 1.8 1.9 2 1.8zm41.2 83.2-5.1-.3-.8 1-4.6 1.2-6.3 4.4-.3 3-1.4 2.2.7 3.5-3.4 1.8.2 2.8-1.5 1.1 2.6 5.8 3.3 3.9-1 2.8 3.8.3 2.3 3.5 5 .1 4.4-3.7.1 9.7 2.6.7 3.2-1.1 5.5 10.4-1.1 2.1v4.6l.3 5.4-1.9 3.2 1.2 2.4-1.1 2.2 2.9 5.4-2.9 6.9-1.1 3.3-2.8 1.6-5.9-3.7-.8-2.6-11.7-6.4-10.7-7.1-4.7-3.9-2.8-5.3.8-1.9-5.4-8.4-6.4-11.8-6-12.8-2.4-3-2-4.7-4.6-4.2-4.1-2.6 1.7-2.8-3-6.2 1.7-4.5 4.4-4 .7 2.7-1.6 1.5.3 2.3 2.3-.5 2.3.7 2.5 3.3 3.1-2.7.9-4.3 3.4-5.6 6.7-2.5 6.1-6.8 1.7-4.1-.8-4.9 1.5-.6 3.8 3 1.8 3.1 2.6 1.6 3.5 6.7 4.2.9 3.1-1.7 2.1 1.1 3.4-.6 4.4 3-3.5 6.6 1.7.1 2.9 3.4zm1110-81.6.9 4.3.6 3.6-1.6 5.8-2.5-6.5-2.4 3.3 2.1 4.7-1.4 3-6.9-3.7-1.9-4.7 1.5-3-3.8-3.1-1.6 2.7-2.6-.3-4 3.6-1-1.9 1.8-5.4 3.4-1.8 2.9-2.4 2.2 2.9 4.2-1.7.7-2.9 4-.2-.8-4.9 4.9 3 .7 3.2.6 2.4zm-14.6-12-1.8 2.1-1.4 4.1-1.6 1.9-3.9-4.4 1-1.8 1.3-1.8.2-3.9 3.1-.4-.5 4.3 3.6-6.2v6.1zm-30.3 6.2-7.1 6.1 2.4-4.5 3.8-4 3-4.4 2.3-6.4 1.6 5.3-3.5 3.5-2.5 4.4zm17.5-16.5 3.6 2h3.5l.2 2.6-2.3 2.8-3.4 1.9-.5-3 .1-3.3-1.2-3zm20.1-1.8 2.4 7.2-4.5-1.7.3 2.2 1.8 3.9-2.6 1.5-.6-4.6-1.8-.3-1.2-3.9 3.3.5-.3-2.4-4-4.9 5.4.1 1.8 2.4zm-23-5.8-.9 5.6-2.7-3.2-3.5-4.9 4.8.2 2.3 2.3zm-6.5-34.9 3.8 1.9 1.4-1.7.8 1.6-.4 2.7 2.6 4.6-.6 5.3-2.9 2.1-.1 5.2 2 5.1 3 .7 2.4-.7 7.5 3.5-.1 3.5 2.1 1.6-.3 2.9-4.7-3.1-2.5-3.4-1.2 2.4-4-3.9-5 1-3-1.4-.1-2.7 1.6-1.6-1.9-1.5-.4 2.3-3.3-3.7-1.3-2.8-1.1-6.1 2.6 2.1-1.1-10.1.8-5.8h3.4zm204.4 162.6-1.6.7-2.3-2.5-2.2-4.1-.8-4.9.8-.6.5 1.9 1.6 1.5 2.4 4 2.5 2.2-.9 1.8zm-21.4-8.6-3 .5-1 1.8-3.2 1.6-3 1.5h-3.1l-4.5-1.9-3.1-1.8.6-2 5 1 3.2-.5 1-3.1.9-.2.3 3.4 3.2-.4 1.8-2.2 3.3-2.3-.4-3.8 3.4-.1 1.1 1-.4 3.6-2.1 3.9zm-63.8 23.4 1.6-21 1-20.9 9.6 4.4 10.3 3.7 3.7 3.3 3 3.2.6 3.8 9.2 4 1.1 3.4-5.2.7.9 4.3 4.7 4.2 3 6.8 3.3-.2-.6 2.8 4.3 1.1-1.8 1.2 5.7 2.7-.9 1.9-3.8.4-1.2-1.6-4.7-.8-5.6-.9-4-4.1-2.8-3.6-2.5-5.6-7.1-2.8-4.9 1.8-3.7 2.2.3 4.7-4.6 2.2-3.1-1.1-5.8-.2zm70.7-29.7-1.8 1.7-.9-3.8-1.1-2.4-2.5-2.1-3.1-2.8-4-1.9 1.6-1.5 3 1.8 1.9 1.4 2.3 1.5 2.1 2.7 2.1 2.1.4 3.3zm-773.7-375.9 5.9.7 8.8-.1 2.5.7 1.4 1.9.6 2.7 1.7 2.3.4 2.4-2.8 1.3 1.9 2.8.5 2.8 3.2 5.4-.3 1.7-2.3.7-3.8 5.2 1.6 2.8-1.1-.4-5-2.4-3.5.9-2.4-.6-2.8 1.3-2.7-2.2-1.9.9-.3-.4-2.6-3.1-3.7-.3-.7-2-3.4-.7-.6 1.6-2.8-1.3.2-1.7-3.7-.5-2.5-2-2.4-3.9.2-2.2-1.5-3.3-1.9-2.1 1.2-1.7-1.4-3.1 3.1-1.8 7.1-2.8 5.8-2 4.8 1 .6 1.5h4.6zm580.4 75.1 1.4 1.1-2.2-.4-1 2.2-.3 2.1 2.8 4.6-1.9 1.4-.3 1.1-.9 1.9-2.9 1.1-1.4 1.7 1.3 2.7-.3.7 2.6 1.1 4.4 2.8v1.5l-2 .4-3.6.4-.6 2.8-2.5-.2v.6l-3.2-1.2-.1 1.2-1.3.5-.7-1.2-1.7-.6-1.9-1 .1-2.8.9-.8-1-1.1-.4-3.5-.9-1-3.4-.7-3.4-1.7 2.1-4.1 3.9-3.4 1.1-4.6 3.6 2 4.6.3-2.8-3.4 6.4-2.7v-3.6l5.5 3.8zm-997.8 401.5 2 3.5.4 8.7 5.9 1.3 2.2-1.3 3.9 1.8 1.2 1.9 1.1 5.9.8 2.4 2.1.3 2-1 2.1 1.1.3 3.6-.3 3.8-.7 3.7-.3 5.6-4.3 5-4.2 1-6.3-1-5.8-1.7 4.2-9.8-1.1-2.8-5.9-2.5-7.3-4.8-4.6-1-11.3-10.4 1.5-7.7-.2-3.5 2.1-5.6 9.6-1.9 5.2.1 5.4 3.3.3 2zm515.8-337.6.4 4-.6 1.9-2.5.8.1-1.7 1.3-.9-1.5-.7.7-4.2 2.1.8zm91.8 49.9-1.5.5-1.8-1.3-.8-4.7 1.1-3.3 1.5-.7 1.8 2 .5 3.7-.8 3.8zm-151.2-150.6 1.6.7 1.8 1.8 2 2.6 3.4 3.8.6 2.7-.2 2.7 1.3 2.9 2.4 1.2 2.3-1.1 2.4 1.1.4 1.7-2.3 1.3-1.6-.6-.4 7.7-3.1-.7-4-2.3-5.9 1.5-2.3 1.6-7.6-.4-4-.9-1.9.4-1.8-2.6-1-1.1 1-1.1-1.3-.7-1.5 1.4-3.1-1.9-.7-2.6-3.2-1.4-.8-2.1-3-2.4 3.9-1.2 2.6-4.3 1.9-4.2 2.9-1.3 2-1.4 3.2.7h3.2l2.5 1.6 1.6-1 3.6-.6 1-1.5h2.1zm39.9 316 2.2 3.6-.3 3.8-1.6.8-3.1-.4-1.7 3.7-3.5-.5.6-3.6.8-.5.2-3.8 1.6-1.8 1.4.7 3.4-2zm-219.9-184.8-.1.4-.1 1.2-.2 9.8-18-.4-.2 16.5-5.2.5-1.5 3.3.9 9.3h-21.7l-1.3 2.1.3-2.7h.1l12.5-.5.7-2.3 2.4-2.9 2-8.9 7.9-6.9 2.7-8.1 1.8-.5 1.9-5 4.6-.7 2 .9h2.5l1.8-1.5 3.4-.2-.1-3.4h.9z" fill-rule="nonzero" stroke="#000" stroke-width=".2"/><path d="m1055.45 314.767 5 .6 1.7 3.1 3.9-.2 2.7 5.6 2.9 1.4 1.2 2.3 4 2.7.7 2.6-.4 2.2.9 2.1 1.8 1.8.9 2.1 1 1.6 1.8 1.3 1.5-.5 1.3 2.5.3 1.4 2.7 6.6 16.9 3.2 1-1.4 3 4.6-2.6 12.8-16.3 6.4-15.9 2.5-5 2.9-3.5 6.7-2.6 1.1-1.5-2.1-2.1.3-5.5-.7-1.1-.6-6.4.1-1.5.6-2.4-1.6-1.3 3.1.8 2.7-2.4 2.1-.9-2.8-1.8-1.9-.5-2.6-3.1-2.3-3.3-5.4-1.9-5.2-4.1-4.4-2.5-1.1-4.1-6.1-.9-4.4v-3.8l-3.6-7.2-2.8-2.5-3-1.3-2.1-3.7.2-1.4-1.8-3.4-1.7-1.4-2.5-4.8-3.8-5.1-3.1-4.4h-2.7l.5-3.5.1-2.3.4-2.6 6.2 1.1 2.1-2 1.1-2.3 4.1-.9.7-2.2 1.6-1-6-6.5 10.4-3.2.9-1 6.8 1.8 8.6 4.5 16.8 12.9 10.2.5zm-49.5 94.2-.7 5.5-2 6.4-3.3 3.1-2.3 5-.5 2.6-2.6 1.8-1.5 6.7v.8l-.8-.2.1-3.2-.8-2.2-2.9-2.5-.9-4.6.6-4.8-2.6-.4-.4 1.4-3.4.4 1.5 1.8.5 3.9-3 3.5-2.7 4.6-2.9.7-4.8-3.7-2.1 1.3-.5 1.8-2.9 1.3-.2 1.3h-5.6l-.8-1.3-4.1-.3-2 1.1-1.6-.5-2.9-3.8-1-1.7-4.1.9-1.5 2.9-1.3 5.8-2 1.2-1.7.7-.5-.3-1.9-1.9-.4-2 .8-2.6v-2.7l-3.3-4-.7-2.7v-1.6l-2.1-1.9-.1-3.7-1.3-2.5-1.9.4.5-2.4 1.4-2.6-.7-2.7 1.8-2-1.2-1.5 1.3-3.9 2.5-4.8 4.8.5-1.1-25.5v-2.7h6.4l-.5-12.8h65.9l2.1 6.3-1.2 1.1 1.2 6.7 2.5 7.6 2.2 1.6 3.2 2.4-2.7 3.6-4 1.1-1.7 2-.3 4.2-2 9.5.7 2.5z" fill-rule="nonzero" stroke="#000" stroke-width=".2"/><path d="m993.05 440.867.2 5-.8 1.9-3 .2-1.9 3.6 3.5.5 3 3.1 1 2.6 2.6 1.5 3.5 7-3.8 4.2-3.4 3.8-3.5 3h-4l-4.5 1.5-3.6-1.5-2.3 1.8-5.1-4.3-1.4-2.7-3.1 1.3-2.6-.4-1.5 1.1-2.6-.8-3.5-5.3-.9-2-4.3-2.6-1.4-3.8-2.4-2.8-3.9-3.3-.1-2.1-3.1-2.6-3.9-2.5 1.7-.7 2-1.2 1.3-5.8 1.5-2.9 4.1-.9 1 1.7 2.9 3.8 1.6.5 2-1.1 4.1.3.8 1.3h5.6l.2-1.3 2.9-1.3.5-1.8 2.1-1.3 4.8 3.7 2.9-.7 2.7-4.6 3-3.5-.5-3.9-1.5-1.8 3.4-.4.4-1.4 2.6.4-.6 4.8.9 4.6 2.9 2.5.8 2.2-.1 3.2.8.2zm-260.1-33.1.2 4 1.1 3.7 2 1.8.5 2.4-.3 2-.8.4-3.1-.5-.4.7-1.2.1-4.1-1.5-2.7-.1-10.4-.3-1.5.8-1.9-.2-3 1-.8-4.9 5.1.1 1.4-.9h1l2.1-1.5 2.4 1.3 2.4.2 2.5-1.5-1.1-1.8-1.9 1h-1.7l-2.2-1.6-1.8.1-1.3 1.6-6.1.1-2.3-5-2.7-2.2 2.5-1.3 2.8-4.5 1.4-3.3 2-2 2.7.5 2.8-1.4h3.1l2.7 1.8 3.6 1.7 3.4 4.8 3.6 4.4zm10.5 39.9-2.6 3-2.6 3.4-.3 1.9-1.4 2.1-1.5-.5-4-2.6-3-3.4-.9-2.4-.7-4.7 3.1-2.9.6-1.7 1-1.4 1.6-.2 1.3-1.2h4.5l1.6 2.3 1.2 2.7-.2 1.9.9 1.7-.1 2.3 1.5-.3zm-436-32-.7 1.5-3.3-.1-2-.6-2.2-1.3-3-.4-1.5-1.4.3-.9 2-1.6 1.2-.7-.3-.8 1.4-.4 1.6.6 1.1 1.2 1.6 1.1.1.8 2.5-.7 1.2.4.7.7-.7 2.6zm609.5-197.7-1.1 1.4.7 2.4 2.8 2.7-1.8 2-.6 2 .6.8-.7.8-2.4.2-1.7.3-.3-.5.6-.7.4-1.6-.7.1-1.1-1.2-.9-.3-.8-1-1-.4-.8-.9-.9.4-.5 2.1-1.2.4.4-.5-2.1-1.3-1.7-.7-.9-.9-1.4-1.1 1.1-.3.5-2.9-2.7-2.5 1.1-2.8-1.9.1 1.7-2.4-1.7-1.8-1.5-2.5 3.7-1.6 3.2.3 3 2.4.8 2.1 3.2 1.4.7 2.6 3.1 1.9 1.5-1.4 1.3.7-1 1.1 1 1.1zm-421 246.7-3.1 5.5.3 4.4 2.2 3.8-1.1 2.7-.5 3-1.5 2.7-3.2-1.4-2.7.7-2.3-.6-.6 1.9 1 1.2-.6 1.4-3.1-.6-3.3-5.6-.7-3.6h-1.8l-2.4-4.6 1.1-3.4-.3-1.5 3.5-1.6 1-5.8 6.8 1.3.6-1.2 4.6-.5 6.1 1.8z" fill-rule="nonzero" stroke="#000" stroke-width=".2"/><path d="m913.05 187.467-1.2 1.7-.7 2.5-1 .6-5.5-1.9-1.6.4-1 1.5-2.3.8-.6-.4-2.3.9-1.9.2-.3 1.3-4.1.7-1.9-.6-2.7-1.7-.7-2.1.3-.8.6-1.4 2.2.1 1.6-.6.1-.6.9-.3.2-1.4 1.1-.3.7-1.1h1.5l.3.4 1.9-.9 2.7 2.2 2.8-1.3 2.4.6 3.5-.9 5 2.4zm-28.3 16.2-3.9 1.7-.3 2.5-1.7.7.1 1.7-2-.1-1.8-1-.8 1-3.6-.2 1.1-.5-1.4-2.7.4-3.1 4.2.5 2.4-1.5 4.4-.1.9-1.1.8.1 1.2 2.1z" class="highlight" fill-rule="nonzero" stroke="#000" stroke-width=".2"/><path d="m903.15 86.767-7 1.6-3.5 3.9 1.3 3.5-6.2 4.5-7.8 5-2.1 8.1 3.7 4.1 4.8 3.3-3.3 6.6-4.6 1.4-.6 10-2.1 5.7-5.7-.6-2.2 4.8-5.5.3-1.9-5.7-4.5-6.9-4.2-8.4 1.8-3.4 3.4-4 .8-6.9-3.1-2.9-1-7.7 2.4-5.4 4.3.1 1.3-2.2-1.8-2 5.7-7.9 3.4-6.1 2.3-3.9h4l.6-3.1 8 .9-.1-3.6 2.6-.2 6 2.7 7.2 3.7 1.8 8.5 1.8 2.2zm73.5 580.7.6 2.9.3 2.9-1.4 2.8-3.2.7-3.1-3.5.1-2.2 1.7-2.4.6-1.9 1.7-.4 2.7 1.1zm33.3-380.2-9.7 6.9-6.3-2.6h-.1l.6-1-.4-2.6.9-3.5 2.7-2.5-1.2-2.5-2.5-.3-1.1-4.9 1-2.7 1.3-1.4 1.2-1.4-.2-3.5 1.9 1.2 5.6-1.8 3 1.2h4.4l5.7-2.4 2.9.1 5.9-1-2.1 4-2.7 1.6 1.2 4.7-1 7.7-11 6.7zm-75.8 88.6 1.1 25.5-4.8-.5-2.5 4.8-1.3 3.9 1.2 1.5-1.8 2 .7 2.7-1.4 2.6-.5 2.4 1.9-.4 1.3 2.5.1 3.7 2.1 1.9v1.6l-3.6 1.1-2.8 2.6-4 7-5.2 3-5.5-.4-1.6.6.6 2.2-2.9 2.3-2.4 2.5-7.1 2.4-1.4-1.4-1-.2-1 1.7-4.6.5.8-1.8-1.8-4.4-.8-2.6-2.5-1.1-3.4-3.8 1.2-3 2.6.6 1.6-.4h3.2l-3.2-5.8.2-4.3-.5-4.2-2.3-4.1.6-3.1-3.7-.1v-4.1l-2.4-2.4 2.3-8.5 7-6 .2-8.4 1.8-13 1.2-2.8-2.4-2.2-.1-2-2.2-1.7-1.6-10 5.5-3.5 22.5 12.3 22.6 12.3zm-127.8 55.1-.7 3.4 1.7 1.9 2 2.2.2 3.2 1.2 1.3-.3 14.8 1.4 4.4-4.5 1.4-1.3-2.3-1.5-4.1-.5-3.2 1.3-5.7-1.4-2.4-.6-5v-4.7l-2.3-3.3.4-2 4.9.1zm586.1-21-5.3-.9-7.1 1.2-3.1 5.3 2.1 7.8-5.3-3-4.8.2.3-5.1h-4.9l.2 7.1-2.2 9.4-1.4 5.7.7 4.6 3.7.2 2.7 5.9 1.3 5.5 3.4 3.7 3.4.7 3.1 3.4-1.7 2.6-3.7.8-.6-3.3-4.8-2.8-.9 1.1-2.3-2.4-1.2-3.2-3.2-3.6-2.9-3.1-.7 3.8-1.3-3.6.4-4 1.2-6.1 2.2-6.6 2.6-6-2.7-5.9-.2-3-1-3.6-4.3-5.1-1.8-3.2 1.8-1.2 1.4-5.5-2.9-4.3-4.1-4.7-3.5-5.6 2.2-1.2 1.5-6.9 3.9-.3 2.8-2.8 3-1.5 2.7 2 .9 3.9 3.8.3-.4 6.7 1 5.8 5.3-3.8 1.9 1.1 3.2-.2.8-2.2 4.3.4 5 5.2 1.3 6.4 5.3 5.6.4 5.4-1.5 2.9zm-220.5-166.6-1.4 1.9-6-1 .6 3.6 5.5-.5 7.1 2.1 9.6-1 3.1 6 1.5-.7 3.7 1.5.5 2.5 1.8 3.6h-5.4l-3.8-.5-2.5 2.9-2.2.6-1.5 1.4-2.7-2.1-.9-5.4-1.7-.3.1-2-3.3-1.4-1.7 2.2.2 2.6-.6.9-3.2-.1-.9 2.9-2.1-1.2-3.4 2-1.8-.7 1.3-6.5-2.4-4.8-4.2-1.5.6-2.8 4.4.3 1.5-3.5.5-4.1 6.5-1.5-.2 3 1.3 1.7 2.1-.1h0zm-18.7 18.4-1.6-.2-2.9-1.7-.3 2.2-4.2 1.3.2 5.1-2.6 2-4 .9-.4 2.9-3.9.9-5.9-2.5-1.7-5.3-4-.3-7.3-5.6-4.3-.7-6.6-3.3-3.9-.6-2 1.2-3.6-.2-3 3.7-4.4 1.2-1.9-4.5-.6-6.7-4.6-2.2.4-4.3-3.5-.4-.1-5.4 5.3 1.6 4.1-2-4.7-3.9-2.4-3.6-3.8 1.6.6 4.7-2.6-4.1 1.8-2.2 5.6-1.3 3.9 1.8 4.8 5 2.6-.3 5.9-.1-1.7-3.2 3.8-2.2 3.4-3.7 7.9 3.4 1.9 5 2.3 1.3 5.5-.3 2.1 1.2 4.3 6.6 7.1 4.4 4.2 3 6.3 3.1 7.7 2.8.8 3.9zm354.4 300.1.1-1.9-.5-1.3.8-1.5 4.9-1.4 4-.3 1.8-.8 2.1.8-2.2 1.8-6.1 2.8-4.9 1.8zm-644.5-273-.1 4.9-2.6 1.8-1.6 2.1-3.6 2.5.6 2.6-.4 2.8-2.6 1.4-2.6-11.5-3.4-2.6-.1-1.5-4.5-3.9-.6-4.8 3.2-3.6 1.1-5.3-1-6.1 1-3.3 5.7-2.5 3.7.7v3.3l4.4-2.4.4 1.2-2.5 3.2.1 2.9 1.9 1.6-.5 5.6-3.5 3.2 1.2 3.5 2.8.1 1.4 3.1 2.1 1z" fill-rule="nonzero" stroke="#000" stroke-width=".2"/><path d="m1016.65 235.067 5.5-.3 5.6 3.2 1.3 2.2.1 3.1 4.2 1.6 2.4 1.8-3.3 1.9 2.9 7.3-.7 2 3.8 5.1-2.4 1.1-2.1-1.6-6.3-.9-2.1 1-5.9 1-2.9-.1-5.7 2.4h-4.4l-3-1.2-5.6 1.8-1.9-1.2.2 3.5-1.2 1.4-1.3 1.4-2.3-2.9 1.7-2.4-3.2.6-4.6-1.5-3.2 3.7-8 .7-4.7-3.4-5.7-.2-1 2.6-3.6.8-5.4-3.4-5.8.1-3.8-6.4-4.2-3.5 2-5-3.6-3.1 5.1-6.1 8-.2 1.6-4.9 10 .9 5.6-4.1 5.8-1.8 8.5-.2 9.8 4.5 7.9 2.5 5.8-1 4.6.6 5.5-3.4zm-79.8 4.6 1.2-.7 1.1-4-2.7-1.7 5-2 4.6.8.9 2.5 4.8 2-.7 1.6-6.2.3-2 2-3.9 3.4-2-2.9-.1-1.3zm536 115.6-1.4 5.3-4-5.5-1.5-4.7 1.9-6.3 3.3-4.9 3 1.9-.1 3.9-1.2 10.3zm-490.9 152.9-.2 3.9-1.1 4.5 1.6 2.5 2.5-1.5 3.3-.4.7.8 3.3-1.6-2.3-2.2 1.9-2.9 2.8-2.9 20.5 13.1.3 3.7 8.1 6.4-2.8 8 .3 3.6 3.5 2.3.2 1.7-1.7 3.9.3 1.9-.4 3.1 1.8 4 2.2 6.4 2 1.4-4.6 3.7-6.2 2.5-3.4-.1-2.1 1.9-3.9.2-1.5.8-6.7-1.8-2.2.2.1-.1-1.8-2.4-.3-6.8-2.9-3.4-.4 1.2-1-1.7-5.5-1.2-3.2-1.9-3.6-1.1-2.2-1.1-.3-.2-2.7-6.6-.4-3.9-4.5-4.4 1.4-2.4-1.1-2.6.2-2.7-1-.9.3-2.8.6-.1 2-2.3 2.3-3.4 1.4-1.3v-2.1l-1.2-1.5-.3-2.5 1.6-.8.3-3.8-2.2-3.6 2-.8 6.2.1z" fill-rule="nonzero" stroke="#000" stroke-width=".2"/><path d="m993.95 474.267 2.7 4.5.7 3.2 2.6 7.4-2.1 4.7-2.8 4.2-1.6 2.6v.3l-.2-.4-3-1.3-2.4 1.6-3.6.9-2.6 3.7.3 2.5-6.2-.1-2 .8-3.4 2-1.4-.7.1-4.8 1.3-2.5.3-5.1 1.2-3 2.2-3.3 2.1-1.8 1.9-2.2-2.3-.9.3-7.5 2.3-1.8 3.6 1.5 4.5-1.5h4l3.5-3zm-21.8-299.9 2.3 2.7.1 1.2 6.7 2.2 3.6-1 3.6 2.9 2.9-.1 7.7 2 .4 1.9-1.3 3.2 1.8 3.5-.3 2.1-4.8.4-2.2 1.8.4 2.7-3.9.5-3 2.1-4.6.3-4 2.4 1 3.9 2.8 1.5 5.1-.4-.6 2.3-5.4 1.1-6.3 3.6-3.1-1.3.7-2.9-5.9-1.9.7-1.2 4.6-2.1-1.7-1.4-8.1-1.6-.8-2.4-4.5.8-1.3 3.5-3.3 4.6-2.4-1.1-2.3 1.1-2.4-1.2 1.2-.7.6-2.1 1.1-2.1-.6-1.1 1-.5.6.9 3 .2 1.3-.5-1-.6.2-1-2-1.6-1.1-2.6-2-1 .1-2.1-2.6-1.7-2-.3-4-1.9-3.2.6-1.1.9h-2.1l-1 1.5-3.6.6-1.6 1-2.5-1.6h-3.2l-3.2-.7-2 1.4-.5-1.7-3-1.7.7-2.5 1.2-1.7 1.1.4-1.6-2.8 3.8-5.2 2.3-.7.3-1.7-3.2-5.4 2.3-.3 2.4-1.6 3.8-.2 4.9.5 5.7 1.5 3.9.1 1.9.9 1.7-1.1 1.5 1.5 4.3-.3 2.1.6-.3-3.1 1.3-1.4 4.1-.3 1.8.2 1-1.4 1.5.3 4.9-.6 3.8 3.5-.9 1.3.8 1.9 3.9.3zm-457.5 544-1.6 4.1-5.4 3.5-4.2-1.3-2.8.7-5.5-2.7-3.6.2-3.9-3.6-.4-4.1.9-1.4-1.2-6.4.4-6.6.5-5.2 3.4-.7 6.3 5 1.9-.2 6.3 4.1 4.8 3.6 3.8 4.3-1.8 3.1 2.1 3.6zm653-487.9 1.7.6-3 4.1 4.6 2.4 3.2-1.6 7.2 3.4-5.3 4.6-4.1-.6-2.1.1-1.3-1.7.2-3-6.5 1.5-.5 4.1-1.5 3.5-4.4-.3-.6 2.8 4.2 1.5 2.4 4.8-1.3 6.5-4.3-1.4h-3l-.8-3.9-7.7-2.8-6.3-3.1-4.2-3-7.1-4.4-4.3-6.6-2.1-1.2-5.5.3-2.3-1.3-1.9-5-7.9-3.4-3.4 3.7-3.8 2.2 1.7 3.2-5.9.1-6.2-23.4 12-3.7 1.1.5 9.2 4.5 4.8 2.4 6.6 5.7 5.7-.9 8.6-.5 7.6 4.6 1.5 6.4 2.6.1 2.5 5.2 6.7.2 2.3 3h2l.9-4.6 5.4-4.4 2.6-1.2zm-704 217.4-4.7 3.8-.5 2.3 1.8 2.4-1.4 1.2-3.5 1v3l-1.6 1.8 3.7 4.8.7 1.8-2.1 2.5-6.4 2.4-4.1 1-1.7 1.5-4.5-1.6-4.1-.8-1.1.6 2.5 1.6-.3 4.3.7 4.1 4.8.5.3 1.4-4.1 1.8-.7 2.7-2.4 1.1-4.2 1.5-1.1 2-4.4.4-3.1-3.4-1.6-6.4-1.5-2.3-2-1.4 2.9-3.2-.2-1.4-1.5-1.9-1.1-4.3.6-4.6 1.3-2.2 1.2-3.4-2-1.1-3.2.7-4.1-.3-2.3.7-3.8-5.6-3.3-.8-7.3.6-1.2-2.2-1.4-.5-.1-1.4.7-2.4-.3-2.5-1.2-1.5-.6-2.9-2.9-.4 1.8-3.8.9-4.6 1.8-2.4 2.3-1.8 1.6-3.2 3.7-1.1-.2 1.5-3.4.8 1.7 2.9-.3 3.4-2.7 3.7 1.9 5.1 2.5-.4 1.5-4.7-1.7-2.2v-4.9l7.2-2.6-.6-3 2.1-2.1 1.7 4.6 4 .1 3.4 3.5.2 2.2h5l6.1-.6 3.1 2.8 4.2.8 3.3-2 .1-1.6 7.1-.4 6.7-.1-4.9 1.9 1.8 3.1 4.5.4 4.2 3.2.7 5.1 2.9-.1 2.2 1.5zm937.8-84.6-6.5 5.4-3.7 6.1-.6 4.5 5.3 6.7 6.5 8.4 5.7 4 4.1 5.1 4 11.9.4 11.3-4.3 4.2-6.1 4.2-4.2 5.3-6.6 6-2.3-4.1 1.2-4.4-4.4-3.6 4.6-2.6 5.9-.5-2.8-3.8 9-5-.1-7.7-1.8-4.3.2-6.4-2-4.5-4.9-4.5-4.4-5.6-5.7-7.6-7.3-3.9 1.2-2.3 3.3-1.7-3-5.6h-6.8l-3.5-5.8-4-5.1 2.7-1.6 4.4.1 5.3-.8 4.1-3.4 3.1 2.4 5.3 1.2-.3 3.7 3.1 2.6 5.9 1.7zm-302.7 31.4-4 1.7-.9 2.9v2.2l-5.4 2.7-8.8 3-4.7 4.5-2.5.4-1.7-.4-3.2 2.7-3.5 1.2-4.7.3-1.4.4-1.1 1.7-1.5.5-.8 1.6-2.8-.2-1.7.9-4-.3-1.6-3.8v-3.5l-1-1.9-1.3-4.7-1.8-2.6 1.1-.4-.7-2.9.6-1.2-.4-2.8 2.4-2.1-.8-2.7 1.3-3.1 2.4 1.6 1.5-.6 6.4-.1 1.1.6 5.5.7 2.1-.3 1.5 2.1 2.6-1.1 3.5-6.7 5-2.9 15.9-2.5 5.2 10.6 2.2 4.5zm-121.7 161.9.3.2 2.2 1.1 3.6 1.1 3.2 1.9 2.6 2.9 1.3 5.4-1 1.7-1.3 5.2.9 5.4-1.8 2.2-2 6 2.9 1.6-17.2 5.3.4 4.6-4.3.9-3.3 2.5-.8 2.2-2 .6-5.1 5.2-3.2 4.2-1.9.1-1.8-.7-6.2-.7-1-.5v-.5l-2.2-1.5-3.6-.3-4.6 1.4-3.6-4-3.6-5.2.8-20.5 11.7.1-.4-2.2.9-2.4-.9-3 .7-3.1-.6-2 1.9.1.3 2 2.7-.1 3.5.6 1.9 2.9 4.4.9 3.5-2 1.2 3.3 4.3.9 2 2.8 2.2 3.5h4.3l-.2-6.9-1.6 1.2-3.9-2.5-1.5-1.2.9-6.4 1.1-7.6-1.2-2.8 1.7-4.1 1.5-.8 7.7-1.1.9.3-.3 1.4 1.9.5 1.2 1.3 1-.3-.5-1.1h0z" fill-rule="nonzero" stroke="#000" stroke-width=".2"/><path d="m974.35 644.467-2.9-.7-1.9.8-2.7-1.1h-2.2l-3.4-2.9-4.3-1-1.5-4.1.1-2.3-2.3-.7-6.1-7-1.6-3.7-1.1-1.2-1.9-5.1 6.2.7 1.8.7 1.9-.1 3.2-4.2 5.1-5.2 2-.6.8-2.2 3.3-2.5 4.3-.9.2 2.4 4.7-.1 2.6 1.3 1.1 1.6 2.7.5 2.8 2-.4 8.2-1.3 4.4-.4 4.8.8 1.9-.9 3.8-.8.6-1.7 4.6-6.2 7.3zm62.7-132.1-3.3-5.3-.2-23.4 4.9-7.2 1.5-2.1 3.6-.1 5-4.5 7.3-.3 15.6-19.3-4.8.1-18.7-7.6-2.2-2.3-2.2-3.1-2.2-3.6 1.2-2.2 1.9-3.5 1.9 1.2 1.2 2.7 2.7 2.7h2.8l5.2-1.7 6.1-.7 4.9-2 2.8-.4 2-1.2 3.2-.2 1.8-.2 2.5-.9 3-.7 2.5-2.2h2.2l.2 1.8-.4 3.7.2 3.4-1.1 2.3-1.4 7-2.4 7.1-3.3 8.2-4.6 9.4-4.7 7.2-6.6 8.8-5.6 5.2-8.4 6.4-5.3 4.8-6.2 7.8-1.3 3.4-1.3 1.5z" fill-rule="nonzero" stroke="#000" stroke-width=".2"/><path d="m912.75 230.567-1.2.3-2.9 1-.1 1.3-.7-.1-.6-2.3-1.3-.7-1.2-1.7.8-1.4 1.2-.4.5-2.1.9-.4.8.9 1 .4.8 1 .9.3 1.1 1.2.7-.1-.4 1.6-.6.7.3.5z" class="highlight" fill-rule="nonzero" stroke="#000" stroke-width=".2"/><path d="m974.35 644.467 2.2 9 1.1 4.6-1.4 7.1.4 2.3-2.7-1.1-1.7.4-.6 1.9-1.7 2.4-.1 2.2 3.1 3.5 3.2-.7 1.4-2.8h4.1l-1.7 4.7-1 5.3-1.7 2.9-4 3.3-1.1.9-2.6 3.3-1.8 3.3-3.5 4.6-6.7 6.6-4.1 3.8-4.3 3-5.9 2.4-2.7.4-.9 1.8-3.2-1-2.7 1.2-5.7-1.2-3.3.8-2.2-.4-5.8 2.6-4.6 1-3.5 2.4-2.4.2-2.1-2.3-1.8-.1-2.2-2.9-.3.9-.6-1.7.3-3.8-1.5-4.3 1.8-1.2.1-4.9-3.3-6-2.4-5.4v-.1l-3.6-8.3 2.8-3.2 2 1.8.8 2.7 2.5.5 3.4 1.2 2.9-.5 5-3.3 1.1-23.7 1.4 1 3 6.1-.6 3.9 1.1 2.3 4-.7 2.8-2.9 2.7-1.9 1.5-3.1 2.8-1.4 2.3.7 2.5 1.8 4.5.3 3.6-1.4.6-2 1.2-3.1 3-.5 1.8-2.4 2-4.3 5.2-4.8 8.1-4.7h2.2l2.7 1.1 1.9-.8 2.9.7zm-20.3 53.2 1.1-2 3.1-1 1.1-2.1 1.9-3.1-1.7-2-2.2-2-2.7 1.4-3.1 2.5-3.2 4 3.7 5 2-.7zm747.1 66.5-.8 2.6 5.6-2.6-.5 2.7-2.1 2.7-4.2 2.9-7.1 4.7-4.7 2.6-.6 3-4 .1-6.3 2.4-4.7 4.1-8.2 6.4-6.3 2.8-4 1.8-4.6-.1-1.5-2.1-5.1-.4 1-2.4 6.5-4.6 11.4-6.3 4.3-1.2 5.6-2.4 7-3.3 5.7-3.3 6-4.7 3.1-1.6 3.5-3.6 5.8-2.9-.8 2.7zm29-30.5-.4 6.8 2.9-4.4 1.3 1.8-2.4 4.8 2.9 2.1 3.2.5 4.7-2.4 2.2.7-5.2 5.7-4.2 3.7-3.9-.1-2.8 1.9-1.5 2.8-1.6 1.1-4.6 3.5-5.9 4.3-6 2.6.5-1.7-1.5-.9 6.9-5.2.9-3.6-3.8-2.5 1.8-2.3 5.3-2.2 4.2-5 2.5-4.1.6-4.3.8-1.1-.9-2.7-.7-5.6.4-4.6 2.2-.5.9 3.6 3.2 1.6-2 5.7zm-1260.1 104 6 13.6h5l3 .2-.5 2.4-3.2 1.9-2.4-.2-3.1-.5-4.2-1.8-5.4-.9-7.5-3.4-6.4-3.2-9.8-6.9 4.6 1.3 8.6 4.1 7.3 2.2 1.2-2.8-.3-4.2 3.4-2.6 3.7.8z" fill-rule="nonzero" stroke="#000" stroke-width=".2"/><path d="m429.35 647.567.9 1.6-1.2 6.7-5.6 3.1 1.6 10.7-.8 2.1 2 2.5-3.3 4-2.6 6-.9 5.9 1.7 6.2-2.1 6.6 4.9 11.1 1.6 1.2 1.4 5.9-1.6 6.2 1.4 5.4-3 4.2 1.6 5.8 3.3 6.3-2.5 2.3.2 5.7.8 6.5 3.3 7.8-1.7 1.3 3.7 7.3 3.1 2.4-.8 2.7 2.8 1.2 1.4 2.4-1.8 1.2 1.8 3.7 1.1 8.3-.7 5.4 1.8 3.2-.1 3.9-2.7 2.8 3.1 6.5 2.6 2.3 3.1-.4 1.9 4.6 3.5 3.6 12.1.8 4.9 1h-4.3l-1.7 1.5-3.4 2.2 1.7 5.7-1.9.1-6.3-1.9-7.5-4.3-7.6-3.5-3.2-3.9-.3-3.6-4.2-4.2-5-10.6-.2-6 3.4-4.8-8.3-1.9 2.7-5.5-2-10.5 6.5 2.2-1.8-13.1-4-1.7 1 7.9-3.5-.9-1.5-9-2-11.8 1.1-4.4-3.3-6.2-2.4-7.2 2.2-.3.6-10.3 1.2-10.3.1-9.5-3.3-9.7.6-5.3-2.1-7.9 1.8-7.8-.9-12.4v-13.4l.1-14.3-1.5-10.5-2.1-9.1 2.8-1.6 1.1-3.3 3.2 4.4 1.2 4.6 3.2 2.7-1.1 6.2 3.7 7.2 3.1 8.9 3.9-.9z" fill-rule="nonzero" stroke="#000" stroke-width=".2"/><path d="m831.45 176.867-2.8-1.5-3.1-2.7-4.5 1.3-3.6-.5 2.5-1.7 4-9 6.5-2.6 4 .2.9 2.1-.9 5.6-1.2 2.3h-2.9l1.1 6.5zm-69.6 86.6-2.2 1.6-2.8-.9-2.7.7.9-5-.3-3.9-2.4-.6-1.1-2.4.5-4.2 2.2-2.3.5-2.6 1.2-3.8v-2.7l-.9-2.3-.2-2.2 1.9-1.6 2.2-.9 1.2 3.1h3l.9-.8 3.1.2 1.3 3.2-2.4 1.7-.3 5-.8.9-.3 3.1-2.3.5 2 3.8-1.6 4.2 1.8 1.9-.8 1.7-2 2.4.4 2.2z" class="highlight" fill-rule="nonzero" stroke="#000" stroke-width=".2"/><path d="m1504.45 177.167 13.7 11-8.9-2 3.7 9 9.6 6.4 3 4.4-6.5-3.8.1 4.9-4.7-5.3-3.8-6.1-5.6-6.7-2.4-4.8-6.4-8.2-8-6.1-6.8-8.4 1.9-2.8-4.4-2.8 1.3-.9 4.9 4 6.9 5.9 5.2 6.1 7.2 6.2zm-594.9-22-8.8.1-5.9-.7.7-2.6 6.3-2 5.1 1.1 2.2.9-.2 1.7.6 1.5zm453.8-107.2-5.9.1-8.9-.6-1-.3.7-2 4.2-.5 8.4 2 2.5 1.3zm12.6-9.5-1.1 2-6.9-.4-10.3-2-1.8-1.6 8.3.7 11.8 1.3zm-25.5-2.4 3.1 3.8-14.3-.2-4.6 1.2-12.5-3.3-3.4-3.4 3.5-.9 10.2.2 18 2.6zm-316.7 25-2.2.4-13.5-.7-2.3-2.3-7.9-1.4-2-2.9 3.5-1.1-1.6-2.8 5.4-4.4-4-.6 6.7-4.5-2.5-2.3 6.8-2.6 10.3-3.2 11.7-.9 5-1.8 6.7-.6 4.2 1.9-1.3 1.5-11.4 2.5-9.9 2.3-8.7 4.8-2.8 5-3.3 5 3.1 4.3 10 4.4z" fill-rule="nonzero" stroke="#000" stroke-width=".2"/><path d="m1476.65 230.767-1.4-1.1-1.9-3.3 2.5-.1-3.9-7.5-4.7-5.4 2.9-2.2 6.9 1.1-.6-6.2-2.8-6.8.3-2.3-1.3-5.7-6.9 1.9-2.6 2.4h-7.6l-6-5.8-9-4.5-10-2-6.2-6-4.5-3.8-3.8-2.7-7.7-6.2-6-2.2-8.6-1.9-6.2.2-5.1 1.1-1.7 3.1 3.7 1.4 2.5 3.4-1.3 2 .2 6.5 1.9 2.8-4.4 3.9-7.4-2.4-5.6.6-3.9-2.1-3.4-.7-4.4 4.4-5.9 1-3.6 1.6-6.8-1h-4.6l-4.9-3.2-6.6-2.9-5.4-.9-5.7.8-4 1.2-8.5-2.6-3.6-4.6-6.7-1.6-4.8-.8-7-2.5-1.3 6.4 4 3.6-2.4 4.4-8-1.6-5-.2-4.8-2.9-5.2-.1-5.3-1.9-5.9 2.9-6.7 5.3-4.7 1.1-1.7.5-4.4-3.8-6 .9-3.3-2.7-4-1.2-4.1-3.6-3.3-1.1-6.2 1.6-8.4-3.5-1.1 3.2-18.3-15.6-8.4-4.7.8-2-9.2 5.8-4.4.3-1.1-3.3-7.1-2.1-4.3 1.5-4.4-6.3-9.1-1.3-3.1 2.5-10.9 2.3-1.7 1.5-17 2.1-1.4 2.1 5.1 4.2-4 1.6 1.5 1.6-3.5 3 9.4 4.3-.2 2.9-7-.3-.8 1.9-7.3-3.2-7.7.1-4.4 2.6-6.6-2.5-12-4.3-7.6.2-8.1 6.7.6 4.5-6-3.6-2.2 6.9 1.8 1.2-1.7 4.8 5.3 4.2 3.6-.2 4.3 4.2.2 3.2 2.8 1.1-1.4 3.7-4.6 1-3.6 6.5 6 6.1.4 4.2 7.3 7.5-2.5 2.6-.6 1.6-2.4-.5-4.3-3.8-1.5-.2-3.6-1.5-2.1-2.6-5.1-1.3-2.9 1-1.2-1.2-7.6-3.1-7.7-1-4.6-1.1-.4.8-7.6-5.4-6.2-2.4-5.1-3.7 3.6-1 3.2-5.2-3.3-2.5 6.9-2.6-.4-1.4-4.3 1-.4-2.7 2.2-1.8 4.8-.4.3-2.1-1.8-3.5 1.3-3.2-.4-1.9-7.7-2-2.9.1-3.6-2.9-3.6 1-6.7-2.2-.1-1.2-2.3-2.7-3.9-.3-.8-1.9.9-1.3-3.8-3.5-4.9.6-1.5-.3-1 1.4-1.8-.2-2-4-1.5-2 .8-.6 3.9.2 1.6-1.3-1.7-1.6-3.4-1.1v-1.1l-2.1-1.1-3.8-4 .7-1.6-1.1-2.9-4.8-1.4-2.4.7-.9-1.5-5.3-1.5-2.1-3.6-1-2.9-2.5-1.3 1.6-1.9-2.4-5.6 2.6-3.4-.9-1 4.5-3.3-5.4-2.8 8-7.4 3.4-3.4.9-2.9-7.4-3.9.9-3.8-4.9-4.2 1.7-4.8-6.5-6.3 2.9-4.2-7.3-3.7-.4-3.8 3.2-.5 6.4-2.1 3.7-1.9 7.7 3.2 11.7 1.3 17.7 6.2 4.1 2.6 1.5 3.7-3.7 2.9-6.5 1.5-20.2-4.2-2.9.7 8.1 4.1 1 2.6 1.9 5.8 6.1 1.7 3.8 1.5-.2-2.8-3.4-2.4 2.1-2.2 11.6 3.6 3.2-1.4-4.3-4.2 8.1-5.4 4.1.3 4.6 1.9 1.1-3.8-4.7-3.3.8-3.3-4.3-3.4 12.3 1.8 3.6 3-5.1.7 1.2 3.1 4.1 1.9 6-1.2-.4-3.5 7.7-2.7 12.4-4.6 3.2.2-2.5 3.3 5.4.6 2.1-1.9 7.7-.1 5-2.3 6.4 3.3 2.8-3.6-6-3.1 1.2-1.8 13 1.6 6.6 1.7 18.6 6.2 1.1-2.8-5.9-2.9-.8-1.1-5.3-.6-.2-2.5-4.7-4.2-1.1-1.7 4.3-4.7-.6-4.8 2.2-1 11.4 1.4 2.9 2.9-.9 4.2 3.7 1.7 3.8 3.7 3.8 7.4 6.7 3.3.5 3.7-3.5 7.8 5.3.8.5-2 3.8-1.4-.5-2.7 1.9-2.7-4.4-3.1-.4-3.6-4.8-.4-2.9-3-.4-5.4-8.2-4.3 4.7-3.5-3.7-3.7 1.9-.1 4.2 2.8 2.1 5.1 5 1-4.6-3.8 5.1-2.1 8.1-.3 9.6 3-6.9-4.3-4.9-5.5 5.9-1 9.5.2 7.8-.7-5.6-2.6 1.3-3.3 4.2-.2 4.9-2.4 9.3-.7-.2-1.4 9.3-.4 4.3 1.1 5.4-2.6 7 .1-1.5-2.2.9-2 6.2-2 8.3 1.6-3.5 1.2 9.4.7 4.1 2.4 1.9-1.2 10.9.1 11.6 2.4 5.5 1.8 2.5 2.6-2.4 1.5-6.6 2.8-1.1 1.5 5.6.7 7.2 1.3 2.4-1 5.8 3.3.2-1.3 5.2-.8 13.6.8 3.8 2.4 17.4.8-4.8-3.9 9.5.9 6.1-.1 9.9 2.7 6 3.3.4 2.2 10.1 4.2 9 2.1-3-5.5 9.4 2.3 5-1.4 9.8 1.6 1-1.4 7.6.7-9.4-4.9 2.1-2.2 40.4 3.4 7.9 3.1 16.3 4 14.8-1 9.3.9 6.6 2.2 5.1 3.9 7.3 1.5 3.9-1.1 7-.1 9.3 1 6.9-.6 14.3 4.8 2.5-1.7-8.5-3.4-1.8-2.4 15.3 1.5 8-.3 15.8 2.5 9.5 2.4 33.2 22.1-2 2.5-6.2-.4 8.2 3 9.1 4.7 4.2 1.5 3.8 2.4 1 1.5-10-1.2-6.6 4.3-3 .7-1.6 4.1-2 3.6 1.7 2.7-11.5-4.1-6.1 4.6-4.7-2.2-1.4 2.6-7-.9 3.1 3.9 1.1 5.8 2.9 2.4 6.8 1.3 9.1 8.7-4.1.3 3.4 5 4.7 2.6-5 3.1 5.4 7-5.7 1.5 4.5 6.2-1.7 5.8-5.7-4.3-10.5-8.9-16.2-13.6-6.5-8.3.1-3.6-2.8-2.8 5.7-1.3-.2-7.5.7-6 2.5-4.7-6.6-8.2-4.7.5 3.2 4.8-3.6 6.4-12.3-7.2-9.1 2v9.8l7.7 3.6-8.5 1.6-6.4.6-4.3-4.3-8-.9-2.5 2.9-15.1-1-13.2 1.7-3.5 11.7-5 14.2 8.2.8 5.7 3.8 5.8 1.3.4-3 5.6.4 12.8 6.7 4.7 5.2 1.4 6.2 5.5 7.4 5.3 9.9-1 9.1 1.3 4.3-2 7.4-2.1 7.3-.9 3.7-4.6 3.7-3.1.1-5.2-3.1-4.1 4.7.5 2.1z" class="highlight" fill-rule="nonzero" stroke="#000" stroke-width=".2"/><path d="m1182.05 22.867-18.1 1.8-1.3-6.1 2.2-.5 3.1.3 12.6 2.6 1.5 1.9zm-202.3-10-4.3.5-2.9.4v.7l-3.6.7-4.5-1 1.1-1.4-7.8-.1 6.3-.8h5.2l1.5 1.1 1.3-1 2.8-.7 5.8.9-.9.7zm180.3 7.3-7.1.6-11.7-1.3-8.1-1.7-6.6-3.2-5.9-.8 5.4-2.9 6.2-.9 9.6 2 13.7 4.2 4.5 4z" fill-rule="nonzero" stroke="#000" stroke-width=".2"/><path d="m791.55 223.167 2 2.4 9.5 2.9 1.9-1.4 5.8 2.9 5.9-.8.4 3.7-4.9 4.2-6.6 1.4-.5 2.1-3.2 3.5-2 5.2 2 3.7-3 2.8-1.2 4.2-4 1.3-3.7 4.9-6.8.1-5-.1-3.4 2.2-2.1 2.4-2.6-.5-1.9-2.2-1.4-3.6-4.9-1-.4-2.2 2-2.4.8-1.7-1.8-1.9 1.6-4.2-2-3.8 2.3-.5.3-3.1.8-.9.3-5 2.4-1.7-1.3-3.2-3.1-.2-.9.8h-3l-1.2-3.1-2.2.9-1.9 1.6.5-4.5-2-2.7 7.4-4.6 6.2 1.1h6.9l5.4 1.1 4.3-.4 8.3.3zm59.1 8-1.5 4.9-2.4-1.3-1.3-4.2.9-2.4 3.2-2.4 1.1 5.4z" class="highlight" fill-rule="nonzero" stroke="#000" stroke-width=".2"/><path d="m829.35 184.767 1.1.5 1.4-.1 2.4 1.6 7.2 1.2-2.4 4.2-.4 4.5-1.3 1.1-2.3-.6.2 1.6-3.6 3.5v2.9l2.4-1 1.8 2.7-.1 1.8 1.5 2.4-1.7 1.9 1.5 4.9 2.8.8-.5 2.7-4.5 3.6-10.2-1.7-7.4 2.1-.6 3.8-5.9.8-5.8-2.9-1.9 1.4-9.5-2.9-2-2.4 2.7-3.8 1-12.6-5.1-6.6-3.7-3.2-7.6-2.4-.4-4.6 6.5-1.3 8.3 1.6-1.5-7.1 4.7 2.7 11.4-4.8 1.5-5.1 4.2-1.3.8 2.2 2.2.1 2.4 2.5 3.5 2.9 2.5-.5 4.4 2.9zm-474.9 9.5-6.1 2-4.7 2.5-4.6 2.7-.5.9 5.7-1.3 2.1 2.1 4.6-1.5 4.9-2.1 5.4-2.1-3.1 3.3 2.5.8 2.5 2.4 5.1-1.4 5.1-.5.3 1.8 1.5.2 1.2.2 1.5 2.5-4.7.6h-.1l-3.7-.7-4.5 1.2-3.7.6-4.7 4.1-3 2.3.4.7 5.5-4.1h.7l-4.7 4.9-2.9 4.4-2.5 3.6-.6 3.1-.8 1.5-.6 1.7.1 3.3.3.5 1.8-.1 1.6-.7 1.4-.8 3.3-3.1 1.8-4.2-.1-3.9 1.4-2.7 2.6-3.1 2.1-2.2 2.7-1.5-.4 2.1 2.2-3.1 1.3-.6 1.7-2.4 3.8 1.3 2.8 2.4-.8 2.9-1.6 2.9-3.8 2.5-.4 1.6h1l4.3-2.7 1.6.6-.5 3.7-.7 2.6-3.7 3.5-2 2.2-2.7 2.4 2.7 1.3 2.5.4 4-.9 3.7-1.7 3-.9 4.6-1.8 5.8-3.8.1-.6.3-1.9 2.7-.8 3.9.3 4 .5 4.6-2.1.6-2.5-.2-.9 6.8-4.4 2.7-1.1 7.8-.1h9.3l1.1-1.5 1.7-.3 2.5-1 2.8-2.9 3.2-4.9 5.5-4.7 1.1 1.6 3.7-1 1.6 1.8-2.9 8.5 2.2 3.6.2 2.1-6.4 3-6 2.2-6 1.9-4 3.8-1.3 1.4-1.2 3.4.7 3.3 2.1.2.2-2.3 1.1 1.4-1 1.8-3.8 1-2.5-.1-4.2 1.1-2.3.3-3.1.3-5 1.9 8.1-1.2 1.1 1.2-7.9 1.9h-3.3l.4-.8-2.1 1.8 1.4.3-2.5 4.6-5.3 4.9.1-1.7-1.1-.3-1.2-1.6v3.5l1 1.1-.6 2.4-2.4 2.5-4.5 5.1-.4-.2 2.9-4.4-2-2.4 1-5.4-1.9 2.8v4.1l-3.2-1 3 2-1.5 6.1 1.4.5v2.2l-1 6.4-4.6 4.7-6.1 1.9-4.4 3.8-2.8.4-3.4 2.4-1.3 2.1-6.9 4.2-3.8 3.1-3.5 3.8-1.9 4.5v4.5l.6 5.5 1.5 4.5-.5 2.8 1.3 7.4-1 4.4-.6 2.5-2 3.9-1.8.8-2.6-.8-.4-2.8-1.8-1.5-2-5.5-1.6-4.9-.4-2.5 2-4.3-.8-3.5-3.1-5.4-1.9-1-6.1 3-.9-.4-2-3-3-1.6-6.4.9-4.6-.8-4.3.5-2.5 1 .6 1.7-.7 2.6.8 1.3-1.2.8-1.8-.9-2.3 1.2-3.9-.2-3.3-3.4-4.9.8-3.6-1.5-3.5.5-5 1.5-6.1 4.7-6.1 2.8-3.7 3-1.9 2.9-1 4.5-.4 3 .6 2.2-2.2.2-3.6-1.4-3.9-2-.9-3-.2-4.5-2.4-3.6-.9-3.8-1.6-4.4-3.2-2.6-4.5.2-4.8 5-4-1.9-2.3-1.9-.4-3.6-.8-3.3-2.4-2.8-2.1-2.1-1.3-2.3h-9.4l-.8 2.7h-15.1l-10.9-4.5-7-3.1.9-1.3-7.1.7-6.3.5.3-3.2-2.1-3.7-2.2-.8.1-1.8-2.9-.4-1.2-1.7-4.8-.6-.9-1.1.8-3.5-2.5-6.4-.5-8.9.9-1.5-1.3-2.1-1.5-5.4 1.8-5.2-.9-3.5 3.9-5.3 2.8-5.4 1.1-4.9 5.5-6 4-5.7 4-5.7 4.3-8.5 1.8-5.3.4-2.9 1.4-1.3 5.8 2.2-1 5.9 2.2-1.7 2.5-5.1 1.6-5.1h137.1l1.3-2.4h1.7l-.9 3.4 1 1 3.3.4 4.6 1 3.9 1.9 4.4-.8 5.4 1.7z" class="highlight" fill-rule="nonzero" stroke="#000" stroke-width=".2"/><path d="m89.95 138.367-7 2.3-.8-1.6 2.3-2.8 6.4-2.1 3.5-.9 2.6.4v1.9l-7 2.8zm-39-16.6-3.9.9-1.7-1.1-.8-1.6 5.7-1 3 .6-2.3 2.2zm1.2-22.4 1.2 1 3.5-.5 1.6 1.5 3.3.7-1.2.7-4.9 1.2-1.7-1.3-.3-1-4.3.3-.3-.5 3.1-2.1z" fill-rule="nonzero" stroke="#000" stroke-width=".2"/><path d="m224.95 66.367-24.6 20.4-35.6 32.7 4.2.2 2.8 1.6.5 2.6.3 3.8 7.6-3.3 6.5-1.9-.6 3.1.8 2.4 1.6 2.7-1.1 4.2-1.4 6.9 4.6 3.8-3.2 3.8-5.1 2.9-.6-2.2-2.5-2 3.3-5.2-1.6-4.9 2.7-5.6-4.1-.4-7.1-.1-3.8-1.8-3.3-6.1-3.3-1.1-5.7-2.1-6.8.5-6-2.7-2.7-2.5-6.3 1.2-3.5 4.1-2.9.4-6.6 1.2-6.2 2-6.4 1.3 3.2-3.5 8.4-5.8 6.8-1.8.4-1.4-9.4 3.2-7.4 3.9-11.2 4.2.2 2.9-9 4.2-7.7 2.5-6.6 1.9-4 2.6-10.6 3.1-4.5 2.8-8.2 2.6-2.7-.4-6.2 1.6-7 2.1-6.1 2-10 1.8.4-1.1 8.2-2.8 6.6-1.9 8.6-3.3 6.5-.6 5-2.5 10.4-3.6 2.3-1.2 5.7-2.1 5.8-4.5 6.2-3.5-7.3 1.8-.3-1.1-4.9 2.2.4-3-3.6 2.1 1.6-2.9-7.3 2.3h-2.8l3.7-3.5 3.3-2.2-.4-2.1-7.2 1.2-.6-2.8-1.3-1.4 4-3.3-.4-2.5 5.9-3.3 7.7-3.3 5.3-2.9 4.1-.4 1.8.9 7.1-2.8 2.5.5 5.6-1.8 2.5-2.6-1.1-1 6-2.2-2.8.1-6.2 1.2-2.9 1.3-1.8-1.3-6.9.7-4.6-1.4 1.2-2.3-1-3.2 9.2-2.4 13.2-2.7h3.5l-4.3 2.8 9.2-.2 1.2-3.5-2.3-2.1.8-2.8-.7-2.3-3.3-1.7 6.5-2.9 7.5-.2 8.8-2.4 4.8-2.6 7.9-2.6 4.8-.6 11.2-2.4 3.1.4 10.4-2.8 4.4 1.1-.5 2.4 3.3-1 6.3.3-1.9 1.2 4.9.9 4.9-.5 6.2 1.6 7.2.6 2.2.6 6.6-.8 4.1 1.6 3.5.7zm267.3 420.4 1.5-2.8.5-2.9 1-2.7-2.1-3.8-.3-4.4 3.1-5.5 1.9.7 4.1 1.5 5.9 5.4.8 2.6-3.4 5.9-1.8 4.7-2.2 2.5-2.7.4-.8-1.8-1.3-.2-1.7 1.7-2.5-1.3zm-84.4-65-.5-.2-.5-.5.1-.6.2.3.4.4.3.5v.1zm41.3-37.1h-.2l.3-.4h.3l-.2.3-.2.1zm6.5 7 .6.3-.2.3h-.2l-.7.1-.2-.1v-.5l.3-.1.1-.3h.2l.1.3zm0-3.7h.2l.2.2.1.4-.1.3-.2.1-.1-.2-.3-.2v-.5l.2-.1zm623.4-54.9.3.1.2-.1.4.7-.1.2.1.9v.7l-.2.4-.1-.4-.6-.8.1-.4-.2-.7v-.4l.1-.2zm-683.7 32.7-.4.5-.2.5-.6.3h-.5l-.1-.1-.4.2-.5.1-.6-.2-.4.1-.1-.5.3-.2.2-.3.4-.2.3-.4h.4l.3-.2.2.3.5.2.5-.2.7-1h.3v.2l-.3.9zm.2-1.7-.2-.6.6-.3.3.3v.2l-.3.1-.4.3zm.4-6.5.2-.1.5.3h.4l.4.1.3.2v.3l-.2.1-.5-.4h-.4l-.1-.1-.5.2-.5-.2v-.1l.2-.5.2.2zm-3.9-1.8-.2.4v.7l-.1.4-.4.3-.2.4-.4.3-.7.3-.1.2-.2-.2.1-.2.4-.1.2-.2v-.2l.4-.1.2-.4.4-.1.3-.4-.2-.3h-.4l-.2-.2.4-.5.1-.1h.6zm-1.9-.3.1.1h.4l.4.2-.4.4-.1-.2h-.2l-.4-.1-.4-.2-.3-.6.3-.1.4.1.2.4zm-9.2-5.9.6.7.3.2.3.5-.3-.1-.1-.2-.3-.1-.4-.4-.2-.1-.2-.4.3-.1zm3.7 0 .3.6.2.5v.4l.2.2.2.7v.9l.2.3.5.2.4.6v.8l-.4-.7v-.2l-.3-.4-.6-.2.2-.2-.3-.3v-.3l.2-.3-.1-.5-.3-.4.1-.1-.3-.4-.1-.6-.2.1.1-.7zm2.9 0-.3.2-.3-.1-.1-.2.6-.2.1.3zm-8.2-1.9-.1-.1-.3-.7h.2l.2.8zm10.5-.5-.4.6h-.4l.2-.3.1-.6.4-.3.1.4v.2zm-18.5-1.2-.3.1-.2.3-.3-.1.6-.4.2.1zm.2.7.4.2.2-.2.1-.5.2-.1.2.6v.5l-.1.3.1.6v.3l-.4.8-.2.1-.4-.2.2-.3.4-.2-.1-.1-.6.4-.2-.2.4-.3h-.4l-.2.1-.2-.2v-.7l.1-.2-.4-.5v-.2l.4-.2.1-.3.3-.1.1-.2.6-.3.1.4-.5.4-.2.3zm13.5-.6.1.5-.2-.1-.5.1-.4.1-.1-.2.3-.2.4-.3v-.2l-.4-.2-.2-.6-.1-.6-.4-.4v-.2l-.5-.5.3-.3.4.4v.5l.2.3.1.5.3.5.4.3.1.3.2.3zm-10.3-5.5.3.2-.6.3-.3-.1-.2.2-.5-.1.2-.3.4-.2h.7zm-4.2-.5.4-.2.3.3-.1.2.1.2-.2.4.3.3.2.9.2.3.4.5-.2.7.1.6-.2.3-.3.1-.4.4-.3.2h-.3l-.3.2h-.3v-.4l-.3-.2.1-.6-.3.3-.2-.1-.6-.4-.3-.3-.2-.3.7-.3.5.7.1-.6-.3-.1-.1-.3.1-.3.6-.6.2-.4-.1-.1.3-.4v-.5l-.2-.7.1-.1h.3l.2.3zm8.1-2.6.1.2.3.4.8.7.5.1.1.1.2.4.3.4.5.4v.2l-.2.8-.1.2v.3l-.1.5-.2.3-.1.7-.1.1-.2-.6-.4-.3.1-.2.5.1.2-.2-.1-.2.1-.4.3-.4.1-.5v-.3l-.5-.4-.4-.7-.3-.2-.6-.3-.3-.3-.6-.2-.4.2.4-.9h.1zm-8.8-7.5.5.2h.1l.7.1.2-.2.2.1h.5l.4-.2h.4l.3-.2.1.5-.1.2h-.7l-1.1.2h-.3l-1.5.4-.7.4h-.4l-.2-.1-.3-.3-.5-.6.6.3.1.2h.5l.5-.2.4-.6-.3-.1.2-.3.1-.3.3.5zm4.3-1.3.8.2.2-.1.4.3.9 1 .2.6.4.1.7.5v.2l-.2.5.2.7h-.4l-.5.4-.1.2-.3 1-.1.9-.2.2-.3-.2-.1-.4-.4-.1.3-.5h.2l.5-.4-.1-.4.2-.4v-.3l.2-.3v-.6l.2-.1.2-.3.1-.3-.3-.1-.5-.1-.1-.3v-.2l-.4-.2v-.3l-.3-.7-.2-.1-.3.1-.5-.1h-.3l-.6-.4h.5zm76 58.1-.1-.3.3.1-.2.2zm2.1-93h-.3l-.1.1.1.2-.4.2-.1-.1.2-.1h.1l.1-.3.3-.1.1.1zm14.2 124-.6-.2-.1-.5v-.8l.2-.4.2.2.2.6.5.3.1.4-.5.4zm581.7 163.3-.9-.1-.2-.4v-.3l.5.1.7.5-.1.2zm3.7-1.9.2 1v.7l-.1.2-.2-.3-.4-.3-.1-.2-.3-.1-.6-.4.1-.1.5.2.3-.1.2-.4v-.2l.3-.1.1.1zm-5.7-1-.5-.4-.3-.1-.3-.2-.2-.6.1-.3v-.2l.2-1.2-.1-.1.2-.4.5-.1.2.3-.2 1.2.1.3.2.4.1.5.2.6-.2.3zm-383.4-171.9-.2.3-.2-.2v-.3l.3-.1.1.3zm1.9.1-.2.1-.4-.1-.3-.3-.1-.3.2-.4.5-.3h.4l.2.7-.1.4-.2.2zm3.5-3.1.2.1v.2l.2.2.4.5h.2l.2.3.2.5.2.2-.3.5-.3.1-.5-.1-.3-.1-.3-.3v-.2l-.2-.1-.1-.4.1-.2v-.3l.2-.4-.2-.5h.3zm3.1 0 .3.1.1.6-.1.4-.4.2-.4-.4.2-.4-.1-.2.4-.3zm2-5.7.3-.2.5.2.1.2v.7l-.4.3-.3.2h-.3l-.5-.2v-.5l.2-.2v-.6l.1-.1.3.2zm-8-2.8.4-.1.3.2h.4l.3.2.1.2h-.5l-.7-.3-.2.1-.3.6-.3-.6-.1-.1-.1-.4.3-.1.4.3zm7.8-.5.1.1-.1.6-.2.1v-.5l-.2-.3v-.3l-.1-.3.4-.3.2.2-.1.6v.1zm-11.3-1.3.2.3.1.3-.7.3-.3-.2-.2-.2.4-.4.5-.1zm-.8-1.8.3.1v.2l.3.3-.2.4-.6.3-.4.4-.7.1v-.6l-.2-.2v-.2l.2-.2h.2l.2-.2.7-.4h.2zm-247 33.1h-.3l-.4-.3-.3-.1-.3-.3-.1-.2-.3-.1-.2-.4-.3-.3.1-.5.5.3.1.5.4.4.7.2.2.3.3.4-.1.1zm-66.3-46.7.3.1.2-.4.4.1h.5l.1.2-.2.2-.2-.1-.4.1-.2.1h-.7l.2-.3zm8.1-2.5-.7.3.2-.3h.5zm.6.1-.1-.1.8-.3-.2.3-.5.1zm626.8-98.7.1.2.3.4-.4-.1h-.3l-.4.2-.3-.3v-.3l.3-.1.2.1.5-.1zm-1.7.5v.1l-.2.2-.1.6-.1.2h-.3l-.2.2-.5.2-.2.1-.6.3-.4-.1-.5.1-.3.4-.2-.3-.3.1h-.2l-.3-.3-.4.3h-.5l-.5-.2-.5-.1-.4-.3-.3-.6-.3-.3-.2-.7-.2-.3.1-.3.5.3.4-.1.2-.3.1-.3.3-.1.2.1.2-.2h.2l.1.4.5.2.1.2h.6l.6-.5.4.1.3-.2.3.1.4.2.2-.3h.3l.3.4v.6l.3-.2.3.2.1-.1.7.2zm-524.5 124.5.5.1.2.5v.6l-.1.8-.1.2-.2.1-.4.2.1-.4-.1-.2-.1-.7-.3-.5v-.3l.1-.3v-.3h.2l.2.2zm55.4 434.5.4-.1v.4l-.8-.3.3-.3.2-.1-.1.4zm-.7-1.4.2.2.4.1.1.4-.3.1-.1-.4-.2-.2-.1-.2zm6.2-.8.2.1-.1.4-.3-.1-.2-.3.3-.2.1.1zm-12.1-.9v.2l.1.3-.4.1-.3-.1-.2-.2-.3-.1-.1-.4h.2l.1-.2.3-.1.2.1-.3.3.3.1.3-.3.1.3z" fill-rule="nonzero" stroke="#000" stroke-width=".2"/><path d="m508.65 831.567-.4-.2-.5-.3-.8-.3.1-.4-.7-.1-.3-.1-.3-.4.2-.1.8.3.8.4.5.1.4.1.3-.3.1-.3.2.1.4-.2.1.2h.5v.3h.3l.9-.2.1.2h.3l.4-.1-.3-.2-.1-.3h.4l.6.2.1.4-.4.5.1.3-.2.2h-.4l-.3.8-.3.3-.3.6-.1.3-.5.3-.1-.2h-.4v.3l-.8-.1-.1.1.3.4-.1.1-.2.4h-.4l-.3.4-.3.1h-.2l-.2-.3-.4-.3v-.2h-.5l.6.4h-.4l-.5-.3-.2-.1-.4-.2-.3-.2v-.2l.7.2.6-.2-.5-.2-.1-.1h.9l.4.1.3.2v-.2l.4-.1.1-.3-.4-.2-.2-.5.1-.2h.6l.2.1.4-.1-.1-.3h-.8v.1l-.4.2h-.6l-.5-.3v-.3l.7.2.6-.2h.3l.5-.1.4.2v-.1l-.4-.1z" fill-rule="nonzero" stroke="#000" stroke-width=".2"/><path d="M510.25 829.667h.3l.3.3-.3.1h-.3v-.4zm-1 0h-.3l-.1-.3.4.1v.2zm-1.4-.2.6-.1.2.3-.3.4-.2-.1-.3.1-.3-.2.3-.2.3.2.1-.2-.5-.1.1-.1zm7.2.1h.6l.1-.1.5-.1.4.2.4.3.1.3v.1l-.5.1-.2-.3-.2-.1-.1.3.2.1.1.3.3-.2.2.1.1.4.3.1.1-.1.5.3.1-.4-.8-.2.1-.5.3-.2 1.5-.1.7.6.2.1v.4l-.6-.1-.5-.2-.6.2.3.2.4.1.9.1.3.1.1.2-.2.5h-.5l-.1.1-.7.1-.5.2.3.2-.9.4-.4-.1-.5.1h-.7l-.6-.2-.6-.4v.3l.3.2.6.2.3.3.2-.1.4.1.4.3-.2.1.2.5h-.2l-.3-.3-.4-.1-.5.4-.2-.3-.3-.2h-.3l-.5-.2-.2.1.2.4h.3l.2.2-.2.1.7.6-.2.1-.4-.2h-.3l-.3-.3-.3-.1-.3-.1-.1.6.5.1v.3l-.1.2-.4-.1-.1-.2-.5-.2-.1-.2h-.2l-.4-.5.3-.4v-.2l-.4-.5v-.2l.5-.2-.1-.2.5-.1-.1-.3.6-.4.6-.2.4.4v.4l.3-.1-.5-.6.1-.3-.6-.2-.4-.3.1-.2.4.2.1-.5-.7-.2.1-.3.2.1.3-.2h.3l.2-.3-.3-.3h.4l.5.2zm-5-.4h.7l.2.2.2-.2.2.1.2.3-.2.1-.4-.1-.4-.2-.8-.1.1-.2.2.1zm-6.8-1.1-.5-.1.1-.2.4.3zm267.3-716.3.4.2h.3l.1.2v.4l.2.3-.1.2-.6-.4-.2-.4-.2-.2-.2-.3h.3zm.3-1.6.8.2.2.2-.1.4-.1.1-.4-.5-.5-.1-.2-.4.3.1zm-1.28-1.36.08.16h.3v.3h-.4l-.2.2-.6-.2-.2-.1-.2-.3.5-.1.1-.1.557.093-.257-.193.2-.8.5.1.3.5v.1l.6.2.3.5.3.2-.1.6-.5-.4-.2-.2-.2-.1-.1-.2-.2-.2h-.5l-.08-.06zm3.68-.64-.2-.2.3-.2-.1.4z" fill-rule="nonzero" stroke="#000" stroke-width=".2"/><path d="m770.85 108.667-.4-.2-.3-.3-.1-.3.1-.1.4-.1h.3l.6.4-.1.2.1.2.6.2v.2l-.4.3-.8-.5zm2.2-.6-.3.4-.3-.2h-.3l.2-.3-.1-.4.1-.1.2.4.5.2zm-.9 0h-.2l-.2-.4.1-.3.2.4.1.3zm952.2 359.4-.2.3-.5-.1v-.2l.5-.4.2.4zm-28.2-10.6h.4l.3.2.1.4-.2.1.1.2-.1.2h-.6l-.2-.2v-.2l-.2-.3v-.3l.4-.1zm-114.7-16.6.1.3h-.3l-.3.5-.1-.1.3-.8.4-.1-.1.2zm-1127.3-16-.4.3-.2-.1-.1-.5.2-.5.3-.4h.3l.1.3-.1.7-.1.2zm1161.6-9-.1.4v.6l-.1.3h-.3l-.2-.3-.1-.5v-.5l.6-.5.1-.2.1-.5.2-.1.1.2.4.1-.2.5-.5.5zm-1164.5-23.5h-.3l-.1-.2.2-.4h.2l.1.2-.1.4zm-.7-1.5-.1.3h-.2l-.4-.2-.2-.2.3-.4.5.4.1.1zm8.1 23.3-.2-.2-.4-.2-.1-.2v-.6l.1-.2.7-1.1.3.2v.7l-.1.8-.1.4-.2.4zm-9.5-27.8-.4-.1.2-.3.3-.1-.1.5zm768.7 88.8v.2l-.2-.1.2-.2v.1zm550.9-18.8 1 .4h-.2l-.8-.4zm-889.9-184.3-.2.3-.5-.2-.5-.3v-.5l-.1-.1h.6l.4.3.2.2.1.3zm-1.6-1.1-.5-.1v-.2l.4-.1.4.3-.3.1zm740.2 140.5-.1.1-.2-.1-.1-.2.5-.2.2.2-.3.2zm1.5-5.1h-.2l-.3-.6.1-.3h.3v.3l.2.2-.1.4zm.5-1.6-.2.2.1.3h-.4v-.7l.1-.2.4-.2-.1.5.1.1zm-1.9-7.5h-.3l-.1-.2h.4v.2zm-1.9-11-.1-.2v-.5l.3-.1.2.3-.4.5zm-1.2-4.3-.4-.1v-.3l.2-.1.2.2v.3zm-1161.3 12.3.2.4v.3l-.2.2-.2-.1-.1-.3.3-.5zm669.5 236.9.4.9-.2.6-.4.4.1.3-.3.3-.5.2h-.5l-.6-.1-.1.1-.3-.3.2-.2.1-.4.1-.7.2-.4.5-.4.1-.2.2-.5.4-.3.4.1.2.6zm31.8-2.1-.3-.3.4-.2.3-.1.2.1-.1.2-.5.3zm575.7 18.2-.2.1-.2.4-.4-.2.2-.5.1-.2.3.1.2.3zm4.4-7.8-.1.1.2.4h.3l.4-.2-.1.6-.2.2-.1.4-.5.3-.4-.2v-.1l-.3-.3.1-.2-.2-.2.1-.4-.1-.4h.1l.4.1.4-.1zm-2.7-4.3-.2.5v.4l-.2.3.3.2.2.1.1.2-.1.2.3.4h-.2l-.2.5-.2.2-.3-.1-.2-.3-.1-.2-.6-.1-.3-.5v-.2l-.1-.3h.3l.3-.2.4-.3.1-.3-.4-.2-.4.1.2-.4.3-.1.2.1.4-.3.4.3zm-3.4-1.6-.3.6-.1.3h.3l-.5.5-.2.2-.1-.2.3-.4.2-.5.4-.5zm0 0-.2-.4h.4l.1.4h-.3zm-13.9-2.4.2.1.5.9.3.3.3-.1.2-.3.9.5.3.5.7.6.3.4.1.3.4.4.1.2h.2l.3.3.9.2.1.3v.4l.3.4.4.1-.3.5.1.2.4.5h.1l.4.5-.1.4.7.2.4.5h.3l.3.2.5.4-.1.3h.3l.4.5.6.4v.2l.3.1.3.3v.2l.3.6.4.4.1-.1.4.6.5.1.3.3v.4l.1.4.1.1-.2.6-.7.4-.1-.3-.3.1-.3.3-.6-.8h-.4l-.1-.2h-.2l-.2.3-.9-.9h-.2l-.4-.5.1-.8h-.7l-.3-.2-.1-.2-.2-.1h-.3v-.3l-.2-.5-.4.1-.8-.5-.1-.2v-.3l-.3.2-.6-.3-.1-.4-.4-.3-.2-.5-.5-.1.2-.2-.3-.3-.3-.1-.3-.7v-.4l-.2-.3h-.3l-.2-.6.1-.2-.7-.4-.3-.2-.4-.6.3-.2-.2-.2-.2-.3v-.5l-.5-.3v-.6l-.2-.3h.3l.1-.3-.1-.2h-.6l-.2-.3.5-.7-.3-.3.2-.1zm1.1.3-.3-.1.1-.4.2.5zm-2.3-2.4-.2.2-.1-.4.2-.2.1.4zm34.6-123.4h-.2l-.1-.3h.3v.3zm-185.3-52.2-.2.4.1.1-.2.6.1.2-.5.2-.2-.7.3-.2-.2-.2.3-.6.3-.1.2.3zm-1140.6-67.2-.3-.2.1-.2h.3l.1.1-.2.3zm14.6-.5h-.2l-.9.3h-.6l.2-.2.4-.2.4-.1.6.1.1.1zm-9.5-2.4.6.1h.6l.3.1.6-.1.3.1.4-.1.2.1.5-.1.4.1h.3l.8.2v-.2l.6.2.1-.1.8.1.2.2h.2l.6.3.2-.1-.1.7.2.3-.9.3-.3.4-.3.6-.3.2-.3.1h-.4l-.6.1-.3.2-.7-.1-.2-.2-.5.2-.3-.3-.7.2-.9-.1-.3.1-.6.1-.2.1-.2-.2-.4-.1-.3.2-.6-.1.3-.7v-.4l.2-.4-.2-.6-.2-.1-.1-.4.4-.2.2-.1v-.5l.4-.2.5.1zm-416.9 296.3-.1-.1-.2-.3.1-.2.3.2-.1.4zm10.3-38.1-.1.1-.3-.2.2-.2.2.3zm-6.2-24.7-.2-.1.2-.6.5-.4h.3v.2l-.2.4-.6.5zm4.9-47h-.3v-.4l-.2-.3.4.1.1.4v.2zm-3.1-3.5h-.2v-.4l.2-.3.3.2-.2.2-.1.3zm1.2-1.6v.3l-.4.1h-.6v.3l-.4-.1-.2-.2-.1-.3.7-.4h.3l.2.2.5.1zm-6.9-2.6v.6h-.3l-.3-.4.3-.3.3.1zm2.4-3 .3.1.1.1-.6.2-.1-.3.3-.1zm-3.7-.6.9.1.3.3v.2l-.4.3h-.8l-.1-.5-.1-.4h.2zm1732.6 18 .3.2-.1.4h.3v.2h-.8l-.3-.5.2-.3h.4zm-38.3-.6h.2l1 .8.5.3.9.7-.1.3h-.2l-.2.2-.2-.3h-.1l-.2-.2-.1-.4-.4-.1v-.3l-.3-.1-.1.1h-.2l-.9-.4-.2-.4.3-.4.3.2zm36.9-1.5-.2.3-.3-.2v-.2l.3-.2.2.3zm-2.3-3.9.1.1h.3l-.1.4-.5.2h-.3l-.4.1-.4.6-.1-.3-.3.1-.2-.2v-.3l.5-.1v-.2l.3-.4.7.1.4-.1zm-26.3-2.8.3-.1.6.3.8.8h.2l.2.2h.2l.3.3.3-.1.4.1.2.2h.4l.3-.1.2.3.2.8.3.3v.5l-.2.2.1.3-.4-.2-.3.2-.3-.1-.5-.3h-.2l-.6-.2-.4-.1-.2-.3-.3-.2-.3-.1-.2-.3-.4-.2.2-.4-.1-.4v-.4l-.2-.1-.6-.2-.3.1-.1-.2.1-.3.1-.3h.2zm4-3.4-.1.2v.7l-.2-.2v-.5l.3-.2zm-2.9-1.8.3.9.2.4v.4l.1.5-.2.3-.4-.7-.1.3-.3-.5.1-1 .1-.2v-.3l.2-.1zm-8.4.2h.3l.3-.1.4.1.1-.1h1.3l.2.3.3.1.2.3h.2l.2.1.4.4v.6h.2l.4.2.1.3v.6l-.1.1-.7.2-.2.1-.4-.1-.4-.2h-.4l-.1-.2-.5-.3h-.6l-.5.1h-.5l-.5-.1-.3-.2-.3.1-.3-.4-.3-.2-.3-.8-.2-.4.2-.2-.1-.2v-.7l.1-.3.6-.3.4.2.4.5.1.3.3.2zm2.3-2.4.5.5-.3.3-.3-.2v-.1l.1-.5z" fill-rule="nonzero" stroke="#000" stroke-width=".2"/><path d="m1706.75 559.767-.2.4h-.1l-.4-.3-.3.1-.2-.1-.1-.2.3-.1.2-.2.5.1.3.3zm-6.6-.5.1.2.2.1-.2.4-.4.2-.3-.4.6-.5zm-8.5-1.8.2.3-.1.3-.8-.4.5-.3.2.1zm3.4.8-.3-.2.1-.3.3-.3v.5l.1.2-.2.1zm-.9-1.8.2-.1h.4v.2l-.4.3.2.2v.3l-.4.4-.2.1-.3-.1-.4-.4.1-.6.3-.1.2-.4.3-.1v.3zm-3.6.1-.2.1-.2.5.4.5-.5-.2v-.2l-.1-.3-.4-.4v-.2l.4-.2.1-.3.4-.3.3.2v.4l-.2.4zm12.9-.5.2.2-.1.2-.2-.1-.6-.5.2-.4.3-.1.2.2-.1.3.1.2zm6.5-.8.4.8.6.8v.3l-.4.2v.8l.1.2h.2l.2.3.5.4.1.5.1.3.2.2-.2.2.3.3-.1.1.1.5-.2.2.3.3.1.5.2.5v.6l-.1.1-.3-.3-.3-.5v-.3l-.3-.4-.4-.3-.3-.3-.5-.6-.4-.3-.3-.9-.2-1-.2-.7v-.5l-.1-.4.4-.4-.1-.3-.5-.7-.1-.3.1-.1.4.1.2.1.3-.3.2.3zm-20.7-.3-.2-.4-.3-.3h.4l.1.7zm-.1-1 .4.1.1.1.1.5h-.2l-.2-.4-.2-.3zm3.1.2-.1.3h.7l.4.7v.2l.2.3.1.5-.2.2v.3l-.6-.2-.2-.2h-.3l-.4-.3-.1-.2-.1-.3.4.1-.3-.8-.1-.2-.5.1-.2.1h-.4l-.3.4-.4-.2v-.6l.2-.2h.4v-.4l.4-.6.4-.3.3-.2.4.3.2.4-.1.7.2.1zm-5.9 0h-.1l-.2-.8.1-.3v-.4l.2.1.1.4v.7l-.1.3zm3.4-.5-.3.2-.1-.1h-.4l-.3-.3-.1-.3-.1-.3.1-.3.3-.4.5-.2.2.2.3.5v.6l-.1.4zm-3-3.5.4.5v.1l.7.4-.1.3-.6.7v.3l-.3.1v-.4h-.2v-.4l-.2-.4-.3-.2-.1-.3.1-.3.2-.2.2-.2h.2zm10.3.1.3.2-.2.1-.5.1-.1-.3.2-.2.3.1z" fill-rule="nonzero" stroke="#000" stroke-width=".2"/><path d="m1697.95 550.267.2-.1.5.3.3.1.2.2.3.5.3.1.3.3v.3l.5.1v.3l.3.1.3-.1.1.1.4.2.1.2.3-.1.3.1.1.3.4.3.3.3.4.3 1 1-.3.4.3.5.1.6-.3-.1-.3-.4-.7-.8-.4-.1-.5-.4-.6-.1-.1-.3-.6-.2-.5-.5h-.2l-.8-.6-.5-.3v-.2l-.4-.2-.2-.2-.2-.4-.4-.3-.1-.2v-.4l-.4-.5-.2-.1v-.3l.7.3zm-1.5-.6.2.2.2-.1.3.2-.1.2-.3-.1-.3-.4zm-4.5-.6h.5l-.2.2-.3-.1v-.1zm4.3 0-.2.5-.1-.2.3-.3zm-2.7.4-.5.1-.2-.2.3-.4.3.1.1.4zm-12.5-.9.2.3-.2.2-.3-.1-.1-.1.4-.3zm1.5-1.9.3.2-.1.3-.7.2-.3-.3.3-.6.2-.1.3.3zm1.7-.9v.5l-.2-.2v-.2l.2-.1zm2.9-1.5.3.1.4.5.3.2.3.1.3.3.8.4.4.5v.4l.1.6.5.5h.2l.1.4.7.3.4-.1.1.1v.3l-.3.1-.2.3-.5-.2-.8-.4h-.5l-.3-.4-.7-.4-.6-1-.6-1-.5-.3-.7-.7v-.7l.3-.2.3.1.2.2zm-848.3-43.2h-.2l-.2.3h-.2l-.1-.4-.2-.8v-.3l.4-.5.3-.1.3-.3.4.1.2.4.1.3-.1.4-.2.3-.3.4-.2.2zm4.6-9.8-.1.3-.2.1-.3-.1v-.3l.2-.1v-.3l.2-.2.3.1-.1.5zm-394.3-105.5v.1l-.4-.1v-.1l.4.1zm614.8 176.1-.3.2h-.5l-.4.2h-.4v-.2h.5l.4-.1.4-.3h.2l.1.2zm-.5-.3-.2.1h-.4v-.2l.6.1zm51.9-30.3.4.4-.2.3-.2-.3-.3-.2.2-.5.1.3zm-712.7-169.9h.7l.3.4h-.3l-.3-.1-.5.1-.1-.3.2-.1zm-2.7-.1.3.4.6-.1-.2.2h-.6l-.4-.2.3-.3zm2.2-.6v.5l-.5-.2-.1-.3.1-.1.5.1zm55.6 71.3-.2.5-.3.4-.2.1-.1.4.2.6-.2.1v.7l.2.3.2.2-.2.2-.1.3v.7l-.2.1-.4.2-.5.1h-.3l-.5.1-.5-.1-.4.1-.3-.1-.5.2-.4-.2h-.6l-.3.2-.3-.1.5-.2.3-.3.4-.1.4-.3.2-.3.6.1.3-.4-.2-.8.2-.4v-.7l-.3-.4-.3-.1-.4-.1-.1-.1.4-.3 1.1-.1.2-.2h1.1l.1-.1 1.2-.2h.2zm2.4-3.2-.1.5-.3.1-.4.3h-.2l-.7.4-.2-.2.3-.3.7-.5.9-.3zm1353.7 127.6v-.2h.1v.1l-.1.1zm-1356.7-139.2-.1.1-.5-.3v-.4l.2-.3.2-.5h.4l.1.4-.1.8-.2.2zm-16.1-34-.4.2h-.1l-.3.2-.1-.1.1-.3.6-.1.2.1zm-1.6 4.4.3.3-1.1.2-.1-.5.7-.2.2.2zm.7-3.8-.2.2h-.5v-.2l.3-.1.4.1zm-1.4-.2.4.3-.2.2-.3-.2h-.5l.2-.2.4-.1zm1308 248-.5-.2.2-.4.5-.1.2.4-.1.2-.3.1zm-1.2-3.8h-.2l-.3-.1-.4-.5-.1-.4v-.4l.2-.2.1-.4.3-.1h.4l-.2.3v.5l.7.5-.3.3-.2.5zm0-5.9h.3l.1.2-.5.1.1.3.4.2.1.3-.1.4-.4.1-.4-.3h-.4l-.2-.2-.3-.2.1-.4v-.3l.2-.5.3-.4h.5l.2.1-.1.4.1.2zm-3-7.6.6-.1.1.1.2.6.2.3.1.1-.4.6-.8.2-.3-.3-.1-.5-.3-.1-.4.3-.1-.1.2-.4.4-.3.4-.5.2.1zm2.3-3.9-.1-.3h.3l-.2.3zm-1.6-2.4.1.5v.2l.4.1.2.5h.5v.4l-.1.1-.3-.3-.3-.1-.6.2-.3-.1-.1-.2-.1-.4.2-.5.2-.3.2-.1zm.9-.2h-.1l-.1-.3h.2v.3zm.2-1.4-.2.2h-.6l-.3.1-.2-.2-.4-.1-.5-.4.1-.2.5-.2.4-.1.4-.3.1-.3h.2l.1.3v.6l.5.4-.1.2zm-4.7-1.3.2.3.6.4.8.8v.4l.2.3-.3.2-.4.4v-.2l-.3-.1h-.4l-.2.1v.2l-.4.2-.3-.1v-.7l-.1-.6.1-.6.1-.5-.2-.5-.6.3-.2-.2-.1-.3v-.3l.3-.3v-.4l.1-.3.3-.1.6.3-.1.2.2.5-.1.2.2.4zm-.6-2.4h-.3l-.5-.3v-.1l.2-.3.2-.1.5.1-.1.4v.3zm-.5-1 .4-.3.1.1.1.3h-.5l-.1-.1zm5.7 2.6-.2-.1.1-1.2-.1-.3.1-.5.3-.8.1-.5.2.6-.1.3v1.6l-.1.6-.3.3zm-1.3-3.3h-.7l-.3-.1v-.2l.9-.7.5-.2.5-.1v.2l-.3.4-.2.3-.4.4zm1.9-.7v.2h-.3l.1-.3.2-1.3v-.1l.1-1.2.2.1-.1 1.3.1.3-.1.5-.2.5z" fill-rule="nonzero" stroke="#000" stroke-width=".2"/><path d="m1738.55 601.667-.9-.1-.6.3-.1.2h-.2l-.1-.6-.2-.1-.4-1 .4-.8v-.4l-.1-.2v-1.4l-.1-.3v-.5l.2-.3v-.3l.2-.3v-.2l.3-.1.1.5.2.4.2.3.1 1.3-.1.8v.1l.6-.1.3-.3.2-.8v-.2l.3-.2.3.1-.1.4v.9l.3.1v.5l-.2.1.3.4-.2.2v.5l.2.5-.1.2h-.3l-.5.4zm4.2-9.3.4.3-.1.4-.3.3-.2.2h-.6v-.4l.1-.4.2-.3.5-.1zm.6-1.9-.3.2-.2.1v.2l-.2.1v-.3l-.2-.2-.1-.3.1-.4.2-.1.4-.2.1.2.1.4v.1l.1.2zm-5-4.2-.1-.1.1-.5.2.2-.2.4zm-1321.4-161.9h-.2l-.1-.5.1-.3-.1-.3-.4-.1-.3-.3.1-.3 1.2.6-.1.2v.4l-.2.2v.4zm32.3-35-.2.1v-.2l.1-.1.1.2zm-1.5-.9h-.1l.1-.2.1.1-.1.1zm11.2 18.2v.2l.4-.1-.2.5.2.2v.2l.2.2.2.9-.3.3-.1-.4-.1.1-.6-.1h-.4l-.2-.3.6-.5h-.4l-.4-.4-.1-.5-.2-.5.3-.4.4.1.5.3.2.2zm244.4-83.5-.3.5-.4.5-.3-.4h-.4l-.2-.2.2-.3.4.1.4-.4.3-.2.2.1.1.3zm13.6-2.3v.5l.2.4-.2.7.1.3-.4.4-.5.2-.2.2-.6-.2-.5-.5-.2-.4v-.6l.6-.4.1-.5v-.2l.6.1h.4l.3.1.3-.1zm-9.9.8h-.2l-.3-.2-.2-.3.1-.4.1-.3h.6l.5.4.1.3-.5.5h-.2zm6.1-3.5v.2l-.6.3-.4.5-.3.2v.4l-.4.7-.1.4-.5.6-.1.2h-.2l-.6.2-.1-.1-.1-.4-.3-.4-.1-.2-.2-.3v-.3l-.4-.6.5-.3.3.2.6-.2h.4l.5-.2.5-.4v-.2l.6-.3h.6l.3-.1.1.1zm10.2 2.8-.3.4-.4.1-.3-.1h-.4v-.2h.3l.6-.2.4-.3.3-.3.1-.5.1-.3.2-.5.3-.4.3-.6.2-.8.2-.2.4-.1.3.3.1.5-.1.5-.1.5v.5l-.1.1-.3.7-.3.3-.6.1-.7.3-.2.2zm-19.6-4.5.3-.1.2.3.2.5-.2.3.1.4-.6 1-.1-.1-.1-.4-.4-.9-.1-.3-.1-.2.2-.4.3-.2.3.1zm24.1-2v.4l-.2.5-.7.5-.5.1-.4.5-.5-.2v-.1l.2-.4v-.4l.2-.3.3-.2h.3l.3-.3h.5l.1-.1.2-.5.2-.1.2.2-.2.4zm327.3 268.4.2.3.5.2v.3l-.2.2.1.2-.3.6.1.2-.3.1-.2-.3v-.3l.2-.2-.2-.7-.1-.1-.1-.2.3-.3zm54.8 52.7h.4l.4.2.3.3v.3l.1.5.3.2.2.2.1.2-.2.6-.1.4-.2.2-.4.1h-.9l-.2-.2-.8-.4-.3-.5v-.3l-.3-.6.1-.4.2-.2.2-.4h.1l.5-.2h.5zm-652-235.9h-.3l-.2-.4.1-.2.3-.3.3.2.1.3v.2l-.3.2zm-1.8-2.6h.3v.3l-.2.1v1.2l-.2.2-.6.3v-.2l-.2-.2-.1-.5v-.5l-.1-.5v-.3l.2-.3.3-.1.5.3.1.2zm1.4-.4.4.1.5.4-1.3.3-.3.1-.4-.3.1-.6.2-.1-.1-.6.1-.2.3-.2.3.4v.4l.2.3zm1346.5 228-.3.1.1-.4.2.3zm-7.5-1.6.2.2.3.1v.3l-.5.2-.5-.3-.5.3h-.3l-.2.3.1.3-.4-.1-.1.2-.4-.1-.1.1-.4-.2.3-.1.2-.1.2-.2.4.1.3-.3.2-.3.5-.1.5-.3h.2zm.9-.1-.2.1-.2-.1.2-.2.2.2zm5.9-6.1.1.5-.2.6-.1-.2-.1-.4h-.2l.1-.5.2-.1.2.1zm-2.6-1.4h-.1l-.1-.4.2-.2.4-.1v.4l-.2.2-.2.1zm-2.2-2.5-.1.4.3.2.1.3.3.4.3.1.1.3h.2l.1.4-.3.5.1.2.1.5-.3.2v.5h.2l.1.5-.3.3-.6.2-.1-.2-.3.1-.1.2-.3-.3-.8.3-.8.7-.3-.1-.4.2-.3-.1-.6.1-.3-.2-.9-.3-.3-.1-.6-.1-.2-.1-.5-.2-.2-1 .3-.7h.3l.3-.1.1-.5.3-.1.1-.4-.2-.2.6-.4.4-.5.1.1.6-.5h.2l.9-.4.6.2.3-.1.5-.2.6-.1.3-.3.4.3zm6.3.2-.2.1.2-.9h.4l-.1.4-.3.4zm-11.4-2-.2.3-.5.3v-.3l.4-.4.3.1zm14.9-.4-.2-.2.1-.2.5-.5.3-.5-.3 1.1-.4.3zm1-5-.4.4-.8 1.1-.3.1-.7.4-.2.6-.4.2-.2.3-.1.2.3.1.6-.3.1-.1.3-.3.2-.3.6-.3.3-.3.6-.3v.3l-.5.7-.2.1.1.6-.3.3-.3-.3h-.4l-.5.1-.4.3-.7.1h-1l.5-.5-.4-.2-.6.2-.4.2v.2l-.3.1-.2.1-.1.4-.2.3-.3-.1v-.2l-.4-.1-.4.2-.2.5-.3.2h-.3v-.7l-.2-.4.1-.2-.1-.1-.6.2v-.4l.4-.3h.1l-.1-.5.3-.1.5.3.6-.4h.2l.3-.3h.2l.3-.3v-.2l.8-.1.9-.3.3-.1.4.1.5-.2.2-.4h.2l.2-.4.4.1.1-.2.2.1 1-.5.1.3.2-.1.2.1.3-.3.5-.2.1.1-.5.4h-.2z" fill-rule="nonzero" stroke="#000" stroke-width=".2"/><circle cx="392.689" cy="209.174" r="12.096" fill="#b44a2e" stroke="#000" stroke-width=".4" transform="translate(266.797 184.845) scale(.33069)"/><circle cx="392.689" cy="209.174" r="12.096" fill="#b44a2e" stroke="#000" stroke-width=".4" transform="translate(278.499 141.438) scale(.33069)"/><circle cx="392.689" cy="209.174" r="12.096" fill="#b44a2e" stroke="#000" stroke-width=".4" transform="translate(402.288 527.537) scale(.33069)"/><circle cx="392.689" cy="209.174" r="12.096" fill="#b44a2e" stroke="#000" stroke-width=".4" transform="translate(696.544 95.346) scale(.33069)"/><circle cx="392.689" cy="209.174" r="12.096" fill="#b44a2e" stroke="#000" stroke-width=".4" transform="translate(711.594 133.146) scale(.33069)"/><circle cx="392.689" cy="209.174" r="12.096" fill="#b44a2e" stroke="#000" stroke-width=".4" transform="translate(838.4 63.44) scale(.33069)"/><circle cx="392.689" cy="209.174" r="12.096" fill="#b44a2e" stroke="#000" stroke-width=".4" transform="translate(1403.99 193.096) scale(.33069)"/><circle cx="392.689" cy="209.174" r="12.096" fill="#b44a2e" stroke="#000" stroke-width=".4" transform="translate(1290.05 170.896) scale(.33069)"/><circle cx="392.689" cy="209.174" r="12.096" fill="#b44a2e" stroke="#000" stroke-width=".4" transform="translate(671.4 101.496) scale(.33069)"/><text x="1177.26" y="131.949" transform="translate(-189.512 4.707)">
      MHRF
    </text><text x="840.668" y="156.62" transform="translate(.213 1.827)">
      EMA
    </text><text x="898.489" y="139.927" transform="translate(-165.948 35.322)">
      MHRA
    </text><text x="227.468" y="240.915" transform="translate(190.522 -45.277)">
      Health Canada
    </text><text x="227.468" y="240.915" transform="translate(180.087 32.281)">
      FDA
    </text><text x="877.611" y="197.738" transform="translate(-89.94 33.91)">
      SwisssMedic
    </text><text x="1707.28" y="189.391" transform="translate(-360.734 55.256)">
      NMPA
    </text><text x="1345.12" y="486.896" transform="translate(209.235 -220.98)">
      PMDA
    </text><text x="806.211" y="492.623" transform="translate(-304.165 84.074)">
      ANVISA
    </text></svg>